<svg xmlns="http://www.w3.org/2000/svg" width="96" height="15" fill="none" viewBox="0 0 96 15">
  <g class="bridge-logo-small" clip-path="url(#a)">
    <path fill="var(--kd-color-background-logo-kyndryl-neutral-txt,#FF462D)" fill-rule="evenodd" d="M0 .07v11.06h1.43V6.92l3.69 4.21h1.76L3.07 6.78l3.638-3.43 2.702 6.92h1.38l-1.26 3.69h1.5L14.6 3.33h-1.49l-2.28 6.8-2.66-6.8h-3.2L1.43 6.66V.07H0Zm22.29 11.06V6.28h-.01c-.02-1.76-.95-3.09-2.71-3.09a2.54 2.54 0 0 0-1.51.46c-.44.31-.77.76-.94 1.27V3.33h-1.43v7.79h1.43V6.51c0-1.59.76-2.28 1.88-2.28 1.12 0 1.86.67 1.86 2.26v4.64h1.43ZM29.83.07v5.14c-.18-.59-.54-1.1-1.03-1.47-.49-.37-1.09-.57-1.7-.57-1.88 0-3.31 1.66-3.31 4.04s1.43 4.04 3.31 4.04c.59 0 1.16-.19 1.64-.52.49-.33.87-.79 1.09-1.33v1.69h1.43V.07h-1.43Zm-2.29 10.15c-1.47 0-2.33-1.17-2.33-3s.83-3 2.33-3 2.33 1.17 2.33 3-.86 3-2.33 3Zm7.18-5.275a2.4 2.4 0 0 1 .93-1.305c.47-.33 1.04-.49 1.62-.45v1.4h-.43c-1.43 0-2.12.45-2.12 1.85v4.68h-1.43V3.33h1.43v1.615Zm9.11-1.615h1.47l-3.57 10.63h-1.5l1.26-3.69h-1.38L37.4 3.33h1.47l2.66 6.8 2.28-6.8h.02ZM46.4.07h1.43V11.1H46.4V.07Z" class="primary" clip-rule="evenodd"/>
    <path fill="var(--kd-color-background-logo-bridge-txt,#29707A)" fill-rule="evenodd" d="M55.14 7.16c0-1.83.86-3.02 2.33-3.02 1.38 0 2.21 1.04 2.31 2.69l.213-.08v-.001c.387-.147.79-.3 1.187-.419-.29-1.93-1.59-3.21-3.24-3.21-.61 0-1.21.2-1.7.57-.49.37-.85.88-1.03 1.47V0h-1.43v10.15c.55-.44 1.12-.84 1.71-1.21a3.92 3.92 0 0 1-.36-1.78h.01ZM56 9.64c.4.36.93.56 1.47.54l.01.01c1.3 0 2.11-.93 2.28-2.43.47-.18.97-.37 1.47-.54-.03 2.38-1.43 4.02-3.31 4.02a3.032 3.032 0 0 1-2.4-1.29c.04-.026.08-.054.12-.082.115-.079.235-.162.36-.228Zm-.81 1.42h-1.18c.01 0 .03-.01.03-.01.01-.01.01-.02.01-.03.36-.29.74-.57 1.14-.86v.9Zm8.96-4.73v4.73h-1.43V6.71c.24-.06.477-.125.715-.19.237-.065.475-.13.715-.19Zm2.12-1.81h.43v-1.4c-.57-.04-1.14.11-1.61.45-.47.34-.8.82-.94 1.38V3.29h-1.43v2.57l.551-.15.001-.001c.34-.094.683-.188 1.038-.279.29-.67.93-.9 1.95-.9l.01-.01ZM67.78 0h1.55v1.93h-1.55V0Zm1.48 3.28h-1.43v1.43l.092-.013c.448-.066.889-.13 1.338-.177V3.28Zm0 2.07v5.71h-1.43V5.54c.24-.035.478-.065.715-.095.238-.03.475-.06.715-.095Zm5.26-1.19h.4c.48 0 .93 0 1.38.02-.27-.34-.61-.62-1-.8-.39-.19-.82-.28-1.26-.26-.46 0-.91.1-1.32.31-.41.2-.77.5-1.05.86a45.946 45.946 0 0 1 2.2-.105l.46-.015h.19v-.01Zm2.01.87c.082.005.165.01.25.01v.02h.02c.464.02.937.04 1.43.09v5.94H76.8V9.38c-.22.54-.6 1-1.09 1.33-.48.33-1.05.52-1.64.52-1.88 0-3.31-1.67-3.31-4.07-.01-.69.12-1.37.38-2 .275-.01.543-.027.81-.045.268-.017.535-.035.81-.045-.39.62-.58 1.35-.55 2.09 0 1.83.84 3.02 2.31 3.02 1.47 0 2.33-1.19 2.33-3.02.04-.76-.16-1.5-.57-2.14.085 0 .168.005.25.01ZM78.19 0h-1.41l-.02 4.18 1.43.07V0Zm5.32 9.96c1.47 0 2.33-1.07 2.33-2.9 0-.27-.02-.54-.07-.81.48.12.95.24 1.43.38v4.47c0 2.07-1.73 2.97-3.54 2.97s-3.35-.88-3.52-2.59h1.45c.12 1.02 1.03 1.54 2.07 1.54 1.19 0 2.14-.62 2.14-1.9V9.19c-.23.54-.61.99-1.1 1.31-.49.32-1.06.5-1.64.5-1.88 0-3.31-1.55-3.31-3.95 0-.6.1-1.21.31-1.78.48.05.95.1 1.43.17-.21.52-.3 1.07-.29 1.62 0 1.83.84 2.9 2.31 2.9Zm0-5.8a2.086 2.086 0 0 1 1.97 1.17c.369.088.734.18 1.095.27h.001c.217.054.43.108.644.16v-2.5h-1.43v1.86c-.18-.58-.54-1.09-1.04-1.45-.49-.36-1.09-.55-1.7-.55-.51 0-1.01.12-1.45.36-.45.24-.83.58-1.11 1 .52.05 1.05.12 1.57.21.19-.18.42-.32.67-.41.25-.09.51-.13.78-.11v-.01Zm6.59 3.45c.12 1.67.98 2.57 2.26 2.57v.01a2.064 2.064 0 0 0 1.62-.64c.35.23.71.47 1.04.71-.35.33-.77.59-1.23.76-.46.16-.94.24-1.43.21-2.33 0-3.69-1.72-3.69-4.07v-.07c.48.16.95.33 1.43.52Zm5.9-.58c-.004-2.394-1.473-3.94-3.64-3.94-1.97 0-3.28 1.26-3.59 3.11 1.18.38 2.33.84 3.45 1.38H96c-.01-.18-.01-.36 0-.55Zm-5.9-.52c.17-1.54.95-2.35 2.24-2.35 1.29 0 2.12.95 2.21 2.35H90.1Zm4.26 2.26h1.45a2.3 2.3 0 0 1-.31.76c-.37-.27-.75-.53-1.14-.76Z" class="secondary" clip-rule="evenodd"/>
  </g>
  <defs>
    <clipPath id="a" class="a">
      <path fill="#fff" d="M0 0h96v14.08H0z"/>
    </clipPath>
  </defs>
</svg>
