<svg xmlns="http://www.w3.org/2000/svg" width="156" height="23" fill="none" viewBox="0 0 156 23">
  <g clip-path="url(#bridge-large_a)">
    <path fill="var(--kd-color-text-variant-brand,#FF462D)" fill-rule="evenodd" d="M0 .114v17.968h2.322v-6.84l5.993 6.84h2.859l-6.187-7.068 5.922-5.58 4.394 11.252h2.241l-2.047 5.994h2.436l5.799-17.27h-2.39l-3.706 11.048L13.3 5.41H8.074l-5.752 5.41V.113H0Zm36.22 17.968v-7.88l-.01-.012c-.035-2.859-1.544-5.02-4.404-5.02a4.193 4.193 0 0 0-2.459.754 4.175 4.175 0 0 0-1.52 2.07V5.41h-2.323v12.66h2.322v-7.49c0-2.586 1.235-3.706 3.054-3.706 1.818 0 3.02 1.086 3.02 3.67v7.538h2.32ZM48.47.114v8.35a4.626 4.626 0 0 0-1.681-2.391 4.656 4.656 0 0 0-2.768-.926c-3.054 0-5.376 2.699-5.376 6.564 0 3.866 2.322 6.565 5.376 6.565a4.879 4.879 0 0 0 2.676-.846 4.913 4.913 0 0 0 1.773-2.173v2.745h2.322V.114H48.47Zm-3.717 16.504c-2.402 0-3.786-1.899-3.786-4.872 0-2.974 1.35-4.872 3.786-4.872s3.785 1.898 3.785 4.872c0 2.973-1.395 4.872-3.785 4.872ZM56.43 8.033a3.963 3.963 0 0 1 1.51-2.12 3.997 3.997 0 0 1 2.63-.732v2.276h-.697c-2.322 0-3.443.732-3.443 3.008v7.605h-2.322V5.41h2.322v2.623ZM71.24 5.41h2.391l-5.799 17.27h-2.436l2.048-5.994h-2.242L60.799 5.41H63.2l4.335 11.048L71.241 5.41ZM75.405.114h2.321v17.922h-2.321V.114Z" clip-rule="evenodd"/>
    <path fill="var(--kd-color-background-logo-bridge-txt,#29707A)" fill-rule="evenodd" d="M89.597 11.631c0-2.973 1.395-4.906 3.786-4.906 2.241 0 3.59 1.693 3.75 4.369.135-.05.27-.102.407-.154a27.73 27.73 0 0 1 1.87-.658c-.47-3.134-2.585-5.215-5.261-5.215-.995 0-1.967.331-2.768.926a4.692 4.692 0 0 0-1.681 2.39V0h-2.322v16.492a29.068 29.068 0 0 1 2.78-1.967 6.463 6.463 0 0 1-.584-2.894h.023Zm1.384 4.026a3.455 3.455 0 0 0 2.402.88l-.012.012c2.116 0 3.431-1.51 3.706-3.945.778-.298 1.59-.607 2.402-.881-.046 3.866-2.322 6.53-5.376 6.53a4.913 4.913 0 0 1-2.196-.583 5.024 5.024 0 0 1-1.704-1.51c.062-.04.126-.084.19-.129.187-.128.384-.263.588-.374Zm-3.207 2.31h-.041v.012c.015 0 .03-.005.041-.012Zm0 0h1.892v-1.464c-.652.47-1.281.927-1.853 1.396 0 .023 0 .034-.023.057a.07.07 0 0 1-.016.011Zm16.474-7.685v7.685h-2.322V10.9c.389-.097.775-.203 1.161-.308.386-.106.772-.212 1.161-.31Zm3.431-2.94h.698V5.067a3.935 3.935 0 0 0-2.608.731 3.975 3.975 0 0 0-1.521 2.242V5.341h-2.322v4.174c.273-.073.547-.148.821-.224.577-.158 1.16-.318 1.764-.473.469-1.087 1.51-1.464 3.168-1.464v-.012ZM110.149 0h2.516v3.134h-2.516V0Zm2.402 5.33h-2.322v2.32l.104-.015c.742-.11 1.475-.217 2.218-.293V5.33Zm0 3.362v9.276h-2.322V9c.389-.057.775-.106 1.161-.154.386-.049.772-.098 1.161-.155Zm8.544-1.933h.663c.766 0 1.51 0 2.241.035a4.48 4.48 0 0 0-1.624-1.304 4.673 4.673 0 0 0-2.047-.435c-.743 0-1.487.172-2.15.503-.675.332-1.258.8-1.715 1.396 1.234-.1 2.504-.138 3.748-.177l.586-.018h.298Zm3.265 1.413c.134.008.268.017.406.017l.011.011c.766.034 1.544.08 2.356.149v9.641h-2.322v-2.779a4.913 4.913 0 0 1-1.772 2.173 4.882 4.882 0 0 1-2.677.846c-3.053 0-5.375-2.71-5.375-6.61a8.545 8.545 0 0 1 .618-3.248c.449-.018.89-.046 1.329-.075h.001c.432-.029.863-.057 1.3-.074a5.876 5.876 0 0 0-.892 3.408c0 2.974 1.361 4.907 3.751 4.907 2.391 0 3.786-1.933 3.786-4.907a5.84 5.84 0 0 0-.926-3.477c.137 0 .271.009.406.018ZM127.053 0h-2.287l-.035 6.805 2.322.114V0Zm8.646 16.183c2.391 0 3.786-1.738 3.786-4.712h-.023c0-.446-.034-.88-.114-1.315a58.06 58.06 0 0 1 2.322.618v7.262c0 3.362-2.814 4.826-5.753 4.826-2.94 0-5.444-1.43-5.719-4.208h2.356c.195 1.658 1.67 2.504 3.363 2.504 1.933 0 3.477-1.006 3.477-3.088v-3.133a4.894 4.894 0 0 1-1.785 2.127 4.77 4.77 0 0 1-2.653.812c-3.054 0-5.375-2.516-5.375-6.416 0-.984.171-1.967.503-2.894.778.08 1.544.16 2.322.275a6.842 6.842 0 0 0-.458 2.63c0 2.974 1.361 4.712 3.751 4.712Zm.001-9.424a3.319 3.319 0 0 1 1.887.47 3.316 3.316 0 0 1 1.315 1.429c.648.152 1.276.31 1.897.466h.001l.927.231v-4.06h-2.322v3.02a4.606 4.606 0 0 0-1.681-2.356 4.693 4.693 0 0 0-2.756-.892c-.824 0-1.636.194-2.368.583a4.942 4.942 0 0 0-1.807 1.624c.846.08 1.704.194 2.551.343a3.15 3.15 0 0 1 1.086-.675c.4-.148.835-.206 1.27-.183Zm10.716 5.604c.194 2.711 1.59 4.175 3.671 4.175l.012.011a3.23 3.23 0 0 0 1.429-.228 3.195 3.195 0 0 0 1.201-.812c.572.377 1.155.766 1.693 1.155a5.655 5.655 0 0 1-2.002 1.235 6.027 6.027 0 0 1-2.333.343c-3.786 0-5.993-2.79-5.993-6.61v-.115c.778.263 1.544.538 2.322.846Zm9.584-.926c0-3.9-2.402-6.416-5.913-6.416-3.214 0-5.33 2.047-5.833 5.066a44.643 44.643 0 0 1 5.604 2.242H156a5.776 5.776 0 0 1 0-.892Zm-9.584-.846c.274-2.505 1.544-3.82 3.637-3.82s3.442 1.544 3.591 3.82h-7.228Zm6.919 3.67h2.356a3.746 3.746 0 0 1-.503 1.236 20.05 20.05 0 0 0-1.853-1.235Z" clip-rule="evenodd"/>
  </g>
  <defs>
    <clipPath id="a">
      <path fill="#fff" d="M0 0h156v22.874H0z"/>
    </clipPath>
  </defs>
</svg>
