<svg xmlns="http://www.w3.org/2000/svg" width="90" height="14" fill="none" viewBox="0 0 90 14">
  <g clip-path="url(#bridge-smalle_a)">
    <path fill="var(--kd-color-text-variant-brand,#FF462D)" fill-rule="evenodd" d="M0 .18v10.368h1.34V6.601l3.46 3.947h1.65L2.878 6.47l3.41-3.215 2.534 6.487h1.294l-1.182 3.46h1.407l3.347-9.966H12.29L10.153 9.61 7.66 3.236h-3L1.341 6.358V.18H0Zm20.897 10.368V6.001h-.01c-.018-1.65-.89-2.897-2.54-2.897a2.382 2.382 0 0 0-1.416.432c-.412.29-.722.712-.881 1.19v-1.49h-1.34v7.303h1.34V6.217c0-1.49.712-2.138 1.762-2.138s1.744.629 1.744 2.12v4.35h1.34ZM27.966.18v4.818A2.716 2.716 0 0 0 27 3.62a2.651 2.651 0 0 0-1.594-.534c-1.762 0-3.103 1.556-3.103 3.787 0 2.232 1.34 3.788 3.103 3.788a2.72 2.72 0 0 0 1.538-.488c.46-.31.815-.74 1.022-1.247v1.585h1.34V.18h-1.34Zm-2.147 9.515c-1.378 0-2.185-1.097-2.185-2.812 0-1.716.779-2.813 2.185-2.813 1.406 0 2.184 1.097 2.184 2.813 0 1.715-.806 2.812-2.184 2.812ZM32.55 4.75c.141-.496.451-.928.872-1.224.44-.309.975-.459 1.519-.421v1.312h-.404c-1.34 0-1.987.422-1.987 1.734v4.388h-1.34V3.236h1.34V4.75Zm8.54-1.514h1.379L39.122 13.2h-1.407l1.182-3.459h-1.294l-2.54-6.506h1.377l2.494 6.375 2.138-6.375h.018ZM43.5.18h1.34v10.34H43.5V.18Z" clip-rule="evenodd"/>
    <path fill="var(--kd-color-background-logo-bridge-txt,#29707A)" fill-rule="evenodd" d="M51.694 6.826c0-1.715.806-2.83 2.184-2.83 1.294 0 2.072.974 2.166 2.521l.2-.076c.362-.138.74-.282 1.112-.393-.272-1.81-1.49-3.01-3.037-3.01a2.65 2.65 0 0 0-1.594.535c-.46.347-.797.825-.966 1.378V.114h-1.34V9.63c.515-.413 1.05-.788 1.603-1.135a3.676 3.676 0 0 1-.338-1.669h.01Zm.806 2.325c.375.338.872.525 1.378.507l.01.009c1.218 0 1.978-.872 2.137-2.278.44-.169.91-.347 1.378-.506-.028 2.23-1.34 3.768-3.103 3.768a2.843 2.843 0 0 1-2.25-1.21l.112-.075c.108-.075.22-.152.338-.215Zm-.76 1.332h-1.106c.01 0 .029-.01.029-.01.009-.01.009-.019.009-.028a26.42 26.42 0 0 1 1.069-.806v.844Zm8.4 0H58.8V6.405c.225-.057.447-.117.67-.178.223-.061.446-.122.67-.179v4.435Zm1.988-6.132h.403V3.04a2.292 2.292 0 0 0-1.51.422c-.44.319-.75.769-.88 1.294V3.198H58.8v2.41l.518-.142c.318-.088.64-.177.973-.261.272-.629.872-.844 1.828-.844l.01-.01ZM63.544.114h1.453v1.81h-1.453V.113Zm1.387 3.075h-1.34v1.34l.086-.012c.42-.061.833-.122 1.254-.166V3.19Zm0 7.294h-1.34V5.308c.225-.033.447-.061.67-.09.223-.027.445-.056.67-.088v5.353Zm4.931-6.47h.375c.45 0 .872 0 1.294.02a2.599 2.599 0 0 0-.937-.75 2.435 2.435 0 0 0-1.182-.244 2.7 2.7 0 0 0-1.237.29 2.829 2.829 0 0 0-.984.807 43.792 43.792 0 0 1 2.062-.099l.431-.014h.178v-.01Zm1.885.817c.077.004.155.009.234.009v.019h.02c.434.019.878.038 1.34.084v5.569H72V8.908a2.762 2.762 0 0 1-1.023 1.247 2.72 2.72 0 0 1-1.537.487c-1.763 0-3.103-1.566-3.103-3.816a4.734 4.734 0 0 1 .356-1.875c.258-.009.508-.025.76-.042.25-.016.5-.033.759-.042a3.419 3.419 0 0 0-.516 1.96c0 1.715.787 2.83 2.165 2.83 1.379 0 2.185-1.115 2.185-2.83a3.373 3.373 0 0 0-.534-2.007c.08 0 .157.005.234.01ZM73.303.114h-1.322l-.018 3.919 1.34.065V.114Zm4.988 9.337c1.378 0 2.184-1.003 2.184-2.718 0-.253-.019-.507-.066-.76.45.113.891.225 1.341.357v4.19c0 1.94-1.622 2.785-3.319 2.785-1.697 0-3.14-.825-3.3-2.429h1.36c.112.957.965 1.444 1.94 1.444 1.116 0 2.007-.581 2.007-1.781v-1.81a2.744 2.744 0 0 1-1.032 1.229c-.46.3-.994.468-1.537.468-1.763 0-3.103-1.453-3.103-3.703 0-.562.093-1.134.29-1.668.45.046.89.093 1.34.159a3.853 3.853 0 0 0-.271 1.519c0 1.715.787 2.718 2.166 2.718Zm0-5.437a1.956 1.956 0 0 1 1.847 1.097c.345.082.688.168 1.026.252.203.051.404.102.605.151V3.17h-1.34v1.744a2.63 2.63 0 0 0-.976-1.36 2.696 2.696 0 0 0-1.594-.515c-.478 0-.947.112-1.359.337a2.861 2.861 0 0 0-1.04.938 19.5 19.5 0 0 1 1.471.197 1.812 1.812 0 0 1 1.36-.488v-.009Zm6.178 3.234c.112 1.566.918 2.41 2.118 2.41v.01a1.936 1.936 0 0 0 1.519-.6c.328.215.666.44.975.665-.328.31-.722.553-1.153.712-.431.15-.881.225-1.34.197-2.185 0-3.46-1.612-3.46-3.816v-.065c.45.15.89.31 1.34.487ZM90 6.714v-.01.01Zm0-.01c-.004-2.244-1.38-3.693-3.412-3.693-1.847 0-3.075 1.181-3.366 2.915 1.106.357 2.184.788 3.234 1.294H90a4.739 4.739 0 0 1 0-.515Zm-5.531-.487c.16-1.444.89-2.203 2.1-2.203s1.987.89 2.072 2.203h-4.172Zm3.994 2.119h1.359c-.056.253-.15.497-.29.712a13.22 13.22 0 0 0-1.07-.712Z" clip-rule="evenodd"/>
  </g>
  <defs>
    <clipPath id="a">
      <path fill="#fff" d="M0 .114h90v13.2H0z"/>
    </clipPath>
  </defs>
</svg>
