<svg xmlns="http://www.w3.org/2000/svg" width="137" height="20" fill="none" viewBox="0 0 137 20">
  <g class="bridge-logo-large" clip-path="url(#a)">
    <path fill="var(--kd-color-background-logo-kyndryl-neutral-txt)" fill-rule="evenodd" d="M0 .1v15.71h2.03V9.83l5.24 5.98h2.5L4.36 9.63l5.178-4.88 3.842 9.84h1.96l-1.79 5.24h2.13l5.07-15.1h-2.09l-3.24 9.66-3.79-9.66H7.06L2.03 9.46V.1H0Zm31.67 15.71V8.92l-.01-.01c-.03-2.5-1.35-4.39-3.85-4.39-.77-.01-1.52.22-2.15.66-.62.45-1.09 1.08-1.33 1.81V4.73H22.3V15.8h2.03V9.25c0-2.26 1.08-3.24 2.67-3.24 1.59 0 2.64.95 2.64 3.21v6.59h2.03ZM42.38.1v7.3c-.25-.84-.77-1.57-1.47-2.09a4.07 4.07 0 0 0-2.42-.81c-2.67 0-4.7 2.36-4.7 5.74 0 3.38 2.03 5.74 4.7 5.74.83-.01 1.65-.27 2.34-.74s1.23-1.13 1.55-1.9v2.4h2.03V.1h-2.03Zm-3.25 14.43c-2.1 0-3.31-1.66-3.31-4.26 0-2.6 1.18-4.26 3.31-4.26s3.31 1.66 3.31 4.26c0 2.6-1.22 4.26-3.31 4.26Zm10.21-7.506a3.495 3.495 0 0 1 3.62-2.494v1.99h-.61c-2.03 0-3.01.64-3.01 2.63v6.65h-2.03V4.73h2.03v2.294ZM62.29 4.73h2.09l-5.07 15.1h-2.13l1.79-5.24h-1.96l-3.85-9.86h2.1l3.79 9.66 3.24-9.66ZM65.93.1h2.03v15.67h-2.03V.1Z" class="primary" clip-rule="evenodd"/>
    <path fill="var(--kd-color-background-logo-bridge-txt)" fill-rule="evenodd" d="M78.34 10.17c0-2.6 1.22-4.29 3.31-4.29 1.96 0 3.14 1.48 3.28 3.82l.348-.131.003-.002h.003l.001-.001c.534-.202 1.088-.413 1.635-.576-.41-2.74-2.26-4.56-4.6-4.56-.87 0-1.72.29-2.42.81s-1.21 1.25-1.47 2.09V0H76.4v14.42c.78-.62 1.59-1.2 2.43-1.72-.36-.79-.54-1.66-.51-2.53h.02Zm1.21 3.52c.58.52 1.33.79 2.1.77l-.01.01c1.85 0 3-1.32 3.24-3.45a57.3 57.3 0 0 1 2.1-.77c-.04 3.38-2.03 5.71-4.7 5.71-.67-.02-1.33-.19-1.92-.51a4.39 4.39 0 0 1-1.49-1.32l.166-.113c.163-.112.336-.23.514-.327Zm-2.804 2.02h-.036v.01a.076.076 0 0 0 .036-.01Zm0 0H78.4v-1.28c-.57.41-1.12.81-1.62 1.22 0 .02 0 .03-.02.05a.06.06 0 0 1-.014.01ZM91.15 8.99v6.72h-2.03V9.53c.34-.085.678-.178 1.015-.27.338-.093.675-.185 1.015-.27Zm3-2.57h.61V4.43a3.44 3.44 0 0 0-2.28.64c-.66.48-1.13 1.17-1.33 1.96V4.67h-2.03v3.65l.718-.196a92.628 92.628 0 0 1 1.542-.414c.41-.95 1.32-1.28 2.77-1.28v-.01ZM96.31 0h2.2v2.74h-2.2V0Zm2.1 4.66h-2.03v2.03l.09-.013c.65-.096 1.29-.19 1.94-.257V4.66Zm0 2.94v8.11h-2.03V7.87c.34-.05.677-.092 1.015-.135.337-.042.675-.085 1.015-.135Zm7.47-1.69h.58c.67 0 1.32 0 1.96.03-.38-.49-.87-.88-1.42-1.14-.56-.26-1.17-.39-1.79-.38-.65 0-1.3.15-1.88.44-.59.29-1.1.7-1.5 1.22 1.08-.086 2.189-.12 3.277-.154l.513-.016h.26Zm2.855 1.235c.117.007.235.015.355.015l.01.01c.67.03 1.35.07 2.06.13v8.43h-2.03V13.3c-.32.77-.86 1.43-1.55 1.9-.69.47-1.51.73-2.34.74-2.67 0-4.7-2.37-4.7-5.78-.01-.97.18-1.94.54-2.84.393-.015.778-.04 1.163-.066.378-.025.755-.05 1.137-.064-.56.89-.83 1.93-.78 2.98 0 2.6 1.19 4.29 3.28 4.29s3.31-1.69 3.31-4.29c.06-1.07-.23-2.14-.81-3.04.12 0 .237.007.355.015ZM111.09 0h-2l-.03 5.95 2.03.1V0Zm7.56 14.15c2.09 0 3.31-1.52 3.31-4.12h-.02c0-.39-.03-.77-.1-1.15.68.17 1.35.34 2.03.54v6.35c0 2.94-2.46 4.22-5.03 4.22-2.57 0-4.76-1.25-5-3.68h2.06c.17 1.45 1.46 2.19 2.94 2.19 1.69 0 3.04-.88 3.04-2.7v-2.74c-.33.76-.87 1.4-1.56 1.86-.69.46-1.49.71-2.32.71-2.67 0-4.7-2.2-4.7-5.61 0-.86.15-1.72.44-2.53.68.07 1.35.14 2.03.24-.28.73-.42 1.51-.4 2.3 0 2.6 1.19 4.12 3.28 4.12Zm0-8.24c.58-.03 1.15.11 1.65.41.5.29.9.73 1.15 1.25.567.133 1.116.271 1.66.408l.81.202V4.63h-2.03v2.64c-.26-.83-.77-1.55-1.47-2.06s-1.55-.78-2.41-.78c-.72 0-1.43.17-2.07.51-.64.34-1.18.82-1.58 1.42.74.07 1.49.17 2.23.3.27-.26.6-.46.95-.59.35-.13.73-.18 1.11-.16Zm9.37 4.9c.17 2.37 1.39 3.65 3.21 3.65l.01.01c.42.03.85-.04 1.25-.2.4-.15.76-.4 1.05-.71.5.33 1.01.67 1.48 1.01-.5.47-1.09.85-1.75 1.08-.66.23-1.35.34-2.04.3-3.31 0-5.24-2.44-5.24-5.78v-.1c.68.23 1.35.47 2.03.74Zm8.38-.81c0-3.41-2.1-5.61-5.17-5.61-2.81 0-4.66 1.79-5.1 4.43 1.68.54 3.31 1.2 4.9 1.96h5.37c-.02-.26-.02-.52 0-.78Zm-8.38-.74c.24-2.19 1.35-3.34 3.18-3.34s3.01 1.35 3.14 3.34h-6.32Zm6.05 3.21h2.06c-.08.38-.23.75-.44 1.08-.52-.39-1.06-.75-1.62-1.08Z" class="secondary" clip-rule="evenodd"/>
  </g>
  <defs>
    <clipPath id="a" class="a">
      <path fill="#fff" d="M0 0h136.4v20H0z"/>
    </clipPath>
  </defs>
</svg>
