<svg width="60" height="60" viewBox="0 0 60 60" fill="none" xmlns="http://www.w3.org/2000/svg">
<rect x="2.5" y="2.57513" width="54.8497" height="54.8497" rx="27.4249" fill="white"/>
<rect x="2.5" y="2.57513" width="54.8497" height="54.8497" rx="27.4249" stroke="#00AF41" stroke-width="4"/>
<path fill-rule="evenodd" clip-rule="evenodd" d="M55.6717 30C55.6717 44.2195 44.1445 55.7467 29.925 55.7467C15.7054 55.7467 4.17822 44.2195 4.17822 30C4.17822 15.7805 15.7054 4.25324 29.925 4.25324C44.1445 4.25324 55.6717 15.7805 55.6717 30ZM42.315 22.0474C43.0013 21.2987 42.9507 20.1354 42.202 19.4491C41.4533 18.7627 40.2899 18.8133 39.6036 19.562L25.7871 34.6346L20.2463 28.5901C19.56 27.8414 18.3967 27.7908 17.648 28.4771C16.8992 29.1635 16.8487 30.3268 17.535 31.0755L24.4314 38.5989C24.7798 38.9789 25.2716 39.1953 25.7871 39.1953C26.3026 39.1953 26.7944 38.9789 27.1428 38.5989L42.315 22.0474Z" fill="#00AF41"/>
</svg>
