<svg xmlns="http://www.w3.org/2000/svg" width="80" height="24" fill="none" viewBox="0 0 80 24">
  <path fill="var(--kd-color-text-variant-brand,#FF462D)" fill-rule="evenodd" d="M0 .115V18.27h2.381v-6.91l6.147 6.91h2.932l-6.346-7.14 6.074-5.64 4.507 11.372h2.3l-2.1 6.055h2.498l5.947-17.45h-2.45L18.088 16.63 13.642 5.466h-5.36l-5.9 5.466V.115H0ZM37.15 18.27v-7.962l-.012-.011c-.035-2.89-1.584-5.074-4.516-5.074a4.346 4.346 0 0 0-2.522.763 4.225 4.225 0 0 0-1.56 2.092V5.466h-2.382v12.793h2.382v-7.57c0-2.611 1.267-3.744 3.132-3.744 1.865 0 3.096 1.098 3.096 3.71v7.615h2.382ZM49.713.115v8.437a4.676 4.676 0 0 0-1.725-2.416A4.822 4.822 0 0 0 45.15 5.2c-3.132 0-5.514 2.728-5.514 6.634s2.382 6.633 5.514 6.633a5.056 5.056 0 0 0 2.745-.855 4.982 4.982 0 0 0 1.818-2.196v2.773h2.38V.115h-2.38ZM45.9 16.791c-2.463 0-3.882-1.918-3.882-4.923 0-3.004 1.384-4.923 3.882-4.923 2.499 0 3.883 1.919 3.883 4.923 0 3.005-1.431 4.923-3.883 4.923Zm11.977-8.674a4.008 4.008 0 0 1 1.548-2.142 4.145 4.145 0 0 1 2.698-.74v2.3h-.715c-2.382 0-3.531.74-3.531 3.039v7.685h-2.381V5.466h2.38v2.65Zm15.19-2.651h2.452l-5.947 17.45h-2.499l2.1-6.055h-2.3L62.359 5.466h2.463l4.446 11.163 3.8-11.163Zm4.27-5.35h2.381v18.108h-2.38V.115Z" clip-rule="evenodd"/>
</svg>
