<svg xmlns="http://www.w3.org/2000/svg" width="193" height="274" fill="none" viewBox="0 0 193 274">
  <g clip-path="url(#404-error-spruce__a)">
    <path fill="#467E89" d="M180.18 181.92c1.09 0 2.16-.5 2.85-1.45 17.79-24.44 6.98-53.48-2.46-62.9a3.53 3.53 0 0 0-4.98 0 3.53 3.53 0 0 0 0 4.98c6.97 6.95 17.37 32.3 1.74 53.77a3.521 3.521 0 0 0 2.85 5.59v.01Z"/>
    <path fill="#467E89" d="M171.03 173.5c4.59-4.06 9.11-1.96 13.35 1.16 3.01 2.21 4.95 7.24 2.89 12.01s-4.65 7.45-6.99 8.81c-2.32 1.34-4.29.72-4.95-.74-.68.35-1.36.6-1.99.66-2.85.29-3.27-1.33-3.14-2.25h.02c-1.85.56-3.46.5-4.22-.44-1.52-1.88 3.98-4.83 5.62-6.53 1.64-1.7 2.35-4.07 1.41-4.99-.94-.92-2.36.49-3.85 2.03-1.49 1.54-4.3 1.07-4.87-.42-.57-1.5 2.15-5.23 6.74-9.29h-.02v-.01Zm-158.64 8.42c-1.09 0-2.16-.5-2.85-1.45-17.79-24.44-6.98-53.48 2.46-62.9a3.53 3.53 0 0 1 4.98 0 3.53 3.53 0 0 1 0 4.98c-6.97 6.95-17.37 32.3-1.74 53.77a3.521 3.521 0 0 1-2.85 5.59v.01Z"/>
    <path fill="#467E89" d="M21.54 173.5c-4.59-4.06-9.11-1.96-13.35 1.16-3.01 2.21-4.95 7.24-2.89 12.01s4.65 7.45 6.99 8.81c2.32 1.34 4.29.72 4.95-.74.68.35 1.36.6 1.99.66 2.85.29 3.27-1.33 3.14-2.25h-.02c1.85.56 3.46.5 4.22-.44 1.52-1.88-3.98-4.83-5.62-6.53-1.64-1.7-2.35-4.07-1.41-4.99.94-.92 2.36.49 3.85 2.03 1.49 1.54 4.3 1.07 4.87-.42.57-1.5-2.15-5.23-6.74-9.29h.02v-.01Z"/>
    <path fill="#29707A" d="M131.32 77.7c26.91 0 48.93 21.05 48.93 46.79v15.87c0 25.73-22.02 46.79-48.93 46.79H61.38c-26.91 0-48.92-21.05-48.92-46.79v-15.87c0-25.73 22.01-46.79 48.92-46.79h69.94Z"/>
    <path fill="#0C6066" d="M136.51 77.97c.73.07 1.45.16 2.17.27l.34.06c.62.09 1.24.2 1.85.32.23.04.46.09.69.14.51.1 1.02.22 1.52.34.23.05.46.11.68.17.38.1.76.21 1.14.31.44.12.88.25 1.32.38.35.11.71.23 1.06.34.43.14.85.29 1.28.44.4.14.79.29 1.18.45.29.11.58.23.87.35.42.18.84.36 1.26.55.27.12.54.24.8.36.6.28 1.19.57 1.78.87.05.03.1.05.15.07.62.32 1.22.66 1.82 1 .91.52 1.8 1.08 2.67 1.66.21.14.41.28.61.42.73.5 1.45 1.02 2.16 1.56.13.1.26.19.38.29.79.62 1.55 1.26 2.29 1.92.18.16.36.33.54.49.63.58 1.24 1.17 1.84 1.77.13.13.27.26.4.4.7.73 1.38 1.49 2.03 2.26.3.35.59.71.88 1.07.11.14.23.28.34.42.43.55.84 1.1 1.24 1.67.11.15.2.3.31.45.3.44.6.87.89 1.32.14.22.27.44.41.65l.69 1.14.51.9c.19.35.39.71.57 1.06.16.31.31.62.47.93.16.33.32.66.47.99.22.48.44.97.64 1.47.12.29.24.57.36.86.22.56.42 1.12.62 1.68.08.24.18.48.26.73.05.16.1.32.15.49.16.51.32 1.02.46 1.54l.18.66c.13.5.25 1.01.37 1.51.04.19.09.37.13.56.15.69.28 1.38.39 2.07.02.12.03.23.05.35.09.59.17 1.18.24 1.77.03.22.05.45.07.67.05.51.09 1.03.12 1.55.01.22.03.43.04.65.03.72.06 1.44.06 2.17V99.14c0-.73-.02-1.45-.06-2.17-.01-.22-.03-.43-.04-.65a38.9 38.9 0 0 0-.12-1.55c-.02-.22-.04-.45-.07-.67-.07-.59-.15-1.18-.24-1.77-.02-.12-.03-.23-.05-.35-.11-.7-.24-1.39-.39-2.07-.04-.19-.09-.38-.13-.56-.11-.51-.24-1.01-.37-1.51l-.18-.66c-.14-.52-.3-1.03-.46-1.54l-.15-.49c-.02-.05-.03-.11-.05-.16-.06-.19-.14-.37-.21-.56-.2-.57-.4-1.13-.62-1.68-.11-.29-.24-.58-.36-.86-.21-.49-.42-.98-.64-1.47-.07-.14-.12-.29-.19-.43-.09-.19-.19-.37-.28-.56-.15-.31-.31-.62-.47-.93-.19-.36-.38-.71-.57-1.06-.17-.3-.33-.6-.51-.9-.08-.13-.15-.27-.22-.4-.15-.25-.31-.49-.46-.74-.14-.22-.27-.44-.41-.65-.29-.45-.58-.88-.89-1.32-.1-.15-.2-.3-.31-.45l-.06-.09c-.38-.53-.78-1.06-1.18-1.58-.11-.14-.22-.28-.34-.42-.23-.29-.46-.58-.7-.87-.06-.07-.13-.14-.19-.21-.65-.77-1.33-1.53-2.03-2.26-.04-.04-.07-.08-.11-.12-.09-.1-.2-.18-.29-.28-.6-.61-1.21-1.2-1.84-1.77-.11-.1-.21-.21-.32-.31-.07-.06-.15-.12-.22-.19-.74-.66-1.51-1.3-2.29-1.92-.03-.03-.06-.05-.09-.08-.09-.07-.19-.14-.29-.21-.7-.54-1.42-1.06-2.16-1.56-.12-.08-.23-.18-.36-.26-.08-.06-.17-.1-.26-.16-.87-.58-1.76-1.13-2.67-1.66-.04-.02-.08-.05-.12-.08-.56-.32-1.13-.63-1.7-.93-.05-.03-.1-.05-.15-.07-.51-.26-1.03-.52-1.55-.77-.08-.04-.15-.07-.23-.1-.27-.12-.54-.24-.8-.36-.42-.19-.84-.37-1.26-.55-.29-.12-.58-.23-.87-.35-.25-.1-.5-.21-.76-.3-.14-.05-.28-.1-.43-.15-.42-.15-.85-.3-1.28-.44-.35-.12-.7-.23-1.06-.34-.44-.13-.88-.26-1.32-.38-.25-.07-.5-.15-.76-.22-.13-.03-.26-.06-.38-.09-.23-.06-.45-.11-.68-.17-.5-.12-1.01-.23-1.52-.34-.23-.05-.46-.1-.69-.14-.61-.12-1.23-.22-1.85-.32l-.34-.06c-.65-.1-1.31-.18-1.98-.25-.06 0-.13 0-.2-.02-.57-.06-1.15-.1-1.72-.14-.29-.02-.57-.05-.86-.06-.87-.04-1.74-.07-2.62-.07h-69.9c-.83 0-1.66.02-2.48.06-.27.01-.54.04-.81.06-.55.04-1.09.07-1.63.12-.32.03-.64.08-.95.11-.49.06-.98.11-1.46.18-.34.05-.67.11-1.01.17-.42.07-.83.13-1.25.21-.05 0-.09.02-.13.03-.17.03-.33.07-.49.1-.56.12-1.12.24-1.67.37l-.71.18c-.5.13-.99.26-1.48.4-.22.07-.45.13-.67.2-.6.18-1.19.37-1.77.58-.1.03-.2.06-.29.1-.02 0-.04.01-.06.02-.19.07-.38.15-.57.22-.56.21-1.13.42-1.68.65-.29.12-.57.25-.85.37-.47.2-.94.4-1.4.62l-.21.09c-.36.17-.71.36-1.07.54-.24.12-.48.23-.72.36-.54.28-1.06.58-1.59.88-.12.07-.25.14-.38.21 0 0-.02.01-.03.02-.61.36-1.21.73-1.8 1.11-.18.12-.36.24-.53.36-.3.2-.6.39-.9.6-.07.05-.14.11-.22.16-.85.6-1.69 1.22-2.5 1.87-.05.04-.1.07-.15.11-.11.09-.21.19-.32.28-.67.55-1.31 1.11-1.95 1.69-.11.1-.23.19-.33.29-.06.06-.11.12-.17.17-.72.68-1.42 1.38-2.1 2.1l-.12.12c-.09.1-.18.21-.27.31-.57.62-1.12 1.26-1.66 1.91-.09.11-.2.22-.29.34-.06.07-.11.15-.17.22-.63.79-1.24 1.59-1.81 2.41l-.09.12c-.35.51-.69 1.02-1.02 1.54-.05.08-.09.15-.14.23-.26.42-.52.83-.77 1.26-.06.09-.1.19-.16.29-.13.22-.25.45-.38.67-.22.4-.44.81-.65 1.21l-.36.72c-.08.17-.17.34-.26.51-.1.21-.19.43-.29.65-.14.3-.28.61-.41.92-.16.38-.32.76-.47 1.14-.12.31-.25.61-.37.93-.04.11-.09.23-.14.34-.07.2-.13.4-.2.59-.18.5-.35 1.01-.51 1.52-.1.31-.19.63-.28.95-.15.51-.28 1.02-.41 1.54-.05.2-.11.39-.16.59-.03.12-.05.25-.08.38-.1.46-.19.92-.28 1.39-.07.34-.13.67-.19 1.01-.08.49-.15.98-.21 1.47-.04.32-.09.64-.13.97-.06.55-.1 1.1-.14 1.65-.02.28-.05.55-.07.83-.05.83-.07 1.67-.07 2.51v25.35c0-.84.03-1.68.07-2.51.02-.28.05-.55.07-.83.04-.55.08-1.1.14-1.65.04-.33.09-.65.13-.97.07-.49.13-.98.21-1.47.06-.34.13-.68.19-1.01.09-.46.18-.93.28-1.39.07-.32.15-.64.23-.96.13-.52.27-1.03.41-1.54a34.089 34.089 0 0 1 .79-2.47c.11-.31.22-.63.33-.94.12-.31.24-.62.37-.93.15-.38.31-.77.47-1.14.13-.31.27-.61.41-.92.18-.39.36-.77.55-1.15l.36-.72a46.442 46.442 0 0 1 1.96-3.42c.05-.08.09-.15.14-.23.36-.56.73-1.11 1.12-1.66.58-.82 1.18-1.63 1.81-2.41.15-.19.31-.37.46-.56.54-.65 1.09-1.29 1.66-1.91.13-.14.26-.29.39-.43.68-.72 1.38-1.42 2.1-2.1.17-.16.34-.31.51-.46.63-.58 1.28-1.14 1.95-1.69.16-.13.32-.27.48-.4.81-.65 1.65-1.27 2.5-1.87.37-.26.74-.51 1.11-.76.18-.12.35-.24.53-.36.6-.39 1.21-.76 1.83-1.12.12-.07.25-.14.38-.21.52-.3 1.05-.59 1.59-.88l.72-.36c.42-.21.85-.43 1.28-.63.46-.22.93-.42 1.4-.62.28-.12.57-.25.85-.37.55-.23 1.12-.44 1.68-.65l.63-.24c.1-.03.2-.06.29-.1.59-.2 1.18-.4 1.77-.58.22-.07.45-.13.67-.2.49-.14.98-.28 1.48-.4l.71-.18c.55-.13 1.11-.26 1.67-.37.16-.03.33-.07.49-.1.46-.09.92-.16 1.38-.24.34-.06.67-.12 1.01-.17.48-.07.97-.12 1.46-.18.32-.04.63-.08.95-.11.54-.05 1.09-.08 1.63-.12l.81-.06c.82-.04 1.65-.06 2.48-.06h69.93c.88 0 1.75.02 2.62.07.29.01.57.04.86.06.58.04 1.15.08 1.72.14Z"/>
    <path fill="#fff" d="m143.87 153.8-96.07.2c-7.81.02-15.8-8.72-15.82-15.66 0 0-.48-6.67-.5-13.11-.01-6.86.68-11.27.68-11.27.92-10.44 11.69-17.17 23.04-18.42 0 0 19.62-1.83 39.47-1.87 20.34-.04 40.92 1.7 40.92 1.7 13.67 1.57 23.43 6 24.4 19.36 0 0 .72 6.95.73 12.52.01 6.04-.44 13.15-.44 13.15-.45 8.14-7.72 13.38-16.41 13.39v.01Z"/>
    <path fill="#CC5200" d="M48.72 163.06h-7.48a4.27 4.27 0 0 0-4.27 4.27v1.93a4.27 4.27 0 0 0 4.27 4.27h7.48a4.27 4.27 0 0 0 4.27-4.27v-1.93a4.27 4.27 0 0 0-4.27-4.27Z"/>
    <path fill="#FF8419" d="M48.72 165.06h-7.48a4.27 4.27 0 0 0-4.27 4.27v1.93a4.27 4.27 0 0 0 4.27 4.27h7.48a4.27 4.27 0 0 0 4.27-4.27v-1.93a4.27 4.27 0 0 0-4.27-4.27Z"/>
    <path fill="#B77100" d="M68.42 163.06h-7.48a4.27 4.27 0 0 0-4.27 4.27v1.93a4.27 4.27 0 0 0 4.27 4.27h7.48a4.27 4.27 0 0 0 4.27-4.27v-1.93a4.27 4.27 0 0 0-4.27-4.27Z"/>
    <path fill="#FFBC31" d="M68.42 165.06h-7.48a4.27 4.27 0 0 0-4.27 4.27v1.93a4.27 4.27 0 0 0 4.27 4.27h7.48a4.27 4.27 0 0 0 4.27-4.27v-1.93a4.27 4.27 0 0 0-4.27-4.27Z"/>
    <path fill="#E3E3E3" d="M158.13 270.04c0 1.87-26.53 3.39-59.25 3.39s-59.25-1.52-59.25-3.39 26.53-3.39 59.25-3.39 59.25 1.52 59.25 3.39Zm-91.91-31.5v-.02c.15-1.17.17-2.35.05-3.5V235c1.55-1.24 2.2-3.37 1.42-5.3-.77-1.94-2.71-3.04-4.69-2.86v-.02c-.72-.92-1.54-1.76-2.46-2.5h-.02c.23-1.97-.82-3.94-2.74-4.76a4.588 4.588 0 0 0-5.34 1.3h-.02c-1.17-.15-2.35-.17-3.5-.05h-.02c-1.24-1.55-3.37-2.2-5.3-1.42-1.94.77-3.04 2.72-2.86 4.69h-.02c-.92.71-1.76 1.53-2.5 2.44v.02c-1.97-.23-3.95.82-4.77 2.74-.82 1.92-.23 4.07 1.3 5.35v.02c-.15 1.17-.16 2.34-.05 3.5v.02c-1.55 1.23-2.2 3.37-1.43 5.31.77 1.94 2.71 3.04 4.69 2.86v.02c.71.92 1.53 1.76 2.45 2.5h.02c-.23 1.97.83 3.94 2.74 4.76 1.92.82 4.07.23 5.34-1.3h.02c1.17.15 2.35.17 3.5.05h.02c1.24 1.55 3.37 2.2 5.3 1.42 1.94-.77 3.04-2.71 2.86-4.69h.02c.92-.71 1.76-1.53 2.5-2.45v-.02c1.98.23 3.95-.82 4.78-2.74.83-1.92.23-4.07-1.3-5.34h.01v-.01ZM48.4 241.4a5.262 5.262 0 0 1-2.76-6.9c1.14-2.67 4.24-3.9 6.9-2.76 2.67 1.14 3.9 4.23 2.76 6.9-1.14 2.67-4.23 3.9-6.9 2.76Zm98.87-16.7c.1-.8.11-1.59.03-2.37 1.05-.84 1.48-2.28.96-3.59a3.09 3.09 0 0 0-3.16-1.93 9.83 9.83 0 0 0-1.65-1.7c.15-1.33-.56-2.66-1.85-3.21a3.115 3.115 0 0 0-3.6.87h-.02c-.79-.1-1.58-.11-2.36-.03a3.098 3.098 0 0 0-3.58-.96c-1.31.52-2.05 1.83-1.93 3.17-.62.48-1.18 1.03-1.69 1.65-1.33-.14-2.66.57-3.22 1.86s-.15 2.75.88 3.6c-.1.8-.11 1.59-.03 2.37-1.05.84-1.49 2.28-.96 3.59.52 1.3 1.83 2.05 3.16 1.93.48.63 1.03 1.2 1.65 1.7-.15 1.33.56 2.66 1.85 3.21 1.29.55 2.74.15 3.6-.87.79.1 1.58.11 2.36.03h.02a3.098 3.098 0 0 0 3.58.96 3.09 3.09 0 0 0 1.93-3.16c.62-.48 1.19-1.03 1.69-1.65 1.33.14 2.66-.57 3.21-1.86.55-1.29.15-2.75-.87-3.6v-.01Zm-12.02 1.93a3.542 3.542 0 1 1 2.79-6.508 3.542 3.542 0 0 1-2.79 6.508Zm49.56-213.49c.1-.8.11-1.59.03-2.37 1.05-.84 1.48-2.28.96-3.59a3.09 3.09 0 0 0-3.16-1.93 9.83 9.83 0 0 0-1.65-1.7c.15-1.33-.56-2.66-1.85-3.21a3.115 3.115 0 0 0-3.6.87h-.02c-.79-.1-1.58-.11-2.36-.03a3.098 3.098 0 0 0-3.58-.96c-1.31.52-2.05 1.83-1.93 3.17-.62.48-1.18 1.03-1.69 1.65-1.33-.14-2.66.57-3.22 1.86s-.15 2.75.88 3.6c-.1.8-.11 1.59-.03 2.37-1.05.84-1.49 2.28-.96 3.59.52 1.3 1.83 2.05 3.16 1.93.48.63 1.03 1.2 1.65 1.7-.15 1.33.56 2.66 1.85 3.21 1.29.55 2.74.15 3.6-.87.79.1 1.58.11 2.36.03h.02a3.098 3.098 0 0 0 3.58.96 3.09 3.09 0 0 0 1.93-3.16c.62-.48 1.19-1.03 1.69-1.65 1.33.14 2.66-.57 3.21-1.86.55-1.29.15-2.75-.87-3.6v-.01Zm-12.02 1.93a3.542 3.542 0 1 1 2.79-6.508 3.542 3.542 0 0 1-2.79 6.508Z"/>
    <path fill="#5FBEAC" d="M39.93 35.51c.56 3.61-1.92 6.99-5.53 7.55-3.61.56-6.99-1.92-7.55-5.53-.56-3.61 1.92-6.99 5.53-7.55 3.61-.56 6.99 1.92 7.55 5.53Zm9.82-1.39c-.92.22-1.85-.34-2.09-1.26a14.82 14.82 0 0 0-5.55-8.21 1.74 1.74 0 0 1-.37-2.43 1.74 1.74 0 0 1 2.43-.37c3.37 2.48 5.81 6.09 6.85 10.14.24.93-.32 1.88-1.25 2.12h-.03.01v.01Zm-29.94-4.61a1.739 1.739 0 0 1-1.89-2.61c2.73-4.37 7.18-7.42 12.27-8.3.94-.17 1.85.46 2.02 1.4.17.95-.44 1.89-1.41 2.02-4.09.75-7.72 3.18-9.92 6.72-.25.4-.64.67-1.07.77Zm3.58 21.47c-.51.12-1.07 0-1.51-.34a18.236 18.236 0 0 1-6.48-11.25c-.15-.95.52-1.81 1.44-1.99.95-.15 1.84.5 1.99 1.44a14.73 14.73 0 0 0 5.24 9.1c.74.61.86 1.7.25 2.45-.25.3-.58.51-.94.59h.01Z"/>
    <path fill="#5FBEAC" d="M51.36 66.88a1.74 1.74 0 0 1-1.89-.78L31.91 37.43c-.5-.82-.24-1.89.57-2.39.82-.51 1.89-.25 2.39.57l17.56 28.67a1.745 1.745 0 0 1-1.07 2.6Z"/>
    <path fill="#FFBC31" d="M73.41 141.32c-1.14 0-2.01-.31-2.62-.92-.61-.61-.92-1.5-.92-2.67v-2.62H59.56c-1.14 0-2.04-.25-2.71-.76-.68-.51-1.01-1.28-1.01-2.32 0-.61.14-1.23.41-1.86.28-.63.77-1.43 1.47-2.42l11.92-17.35c.52-.8 1.1-1.39 1.73-1.77.63-.38 1.37-.58 2.23-.58 1.01 0 1.81.3 2.39.9.58.6.87 1.49.87 2.69v17.86h1.7c2.05 0 3.08.94 3.08 2.81s-1.03 2.81-3.08 2.81h-1.7v2.62c0 1.17-.3 2.05-.9 2.67-.6.61-1.45.92-2.55.92v-.01Zm-3.54-11.83v-10.72l-7.27 10.72h7.27Zm26.09 11.92c-3.93 0-6.93-1.46-9-4.37-2.07-2.91-3.11-7.07-3.11-12.47s1.04-9.52 3.11-12.36 5.07-4.26 9-4.26c3.93 0 6.93 1.42 9 4.26 2.07 2.84 3.11 6.96 3.11 12.36 0 5.4-1.04 9.56-3.11 12.47-2.07 2.92-5.07 4.37-9 4.37Zm0-5.8c1.78 0 3.1-.88 3.96-2.64.86-1.76 1.29-4.56 1.29-8.4 0-3.84-.43-6.59-1.29-8.28-.86-1.69-2.18-2.53-3.96-2.53-1.78 0-3.1.84-3.96 2.53-.86 1.69-1.29 4.45-1.29 8.28 0 3.83.43 6.64 1.29 8.4.86 1.76 2.18 2.64 3.96 2.64Zm32.68 5.71c-1.14 0-2.01-.31-2.62-.92-.61-.61-.92-1.5-.92-2.67v-2.62h-10.31c-1.14 0-2.04-.25-2.71-.76-.68-.51-1.01-1.28-1.01-2.32 0-.61.14-1.23.41-1.86.28-.63.77-1.43 1.47-2.42l11.92-17.35c.52-.8 1.1-1.39 1.73-1.77.63-.38 1.37-.58 2.23-.58 1.01 0 1.81.3 2.39.9.58.6.87 1.49.87 2.69v17.86h1.7c2.05 0 3.08.94 3.08 2.81s-1.03 2.81-3.08 2.81h-1.7v2.62c0 1.17-.3 2.05-.9 2.67-.6.61-1.45.92-2.55.92v-.01Zm-3.55-11.83v-10.72l-7.27 10.72h7.27Z"/>
  </g>
  <defs>
    <clipPath id="404-error-spruce__a">
      <path fill="#fff" d="M0 0h192.57v273.43H0z"/>
    </clipPath>
  </defs>
</svg>
