<svg xmlns="http://www.w3.org/2000/svg" width="273" height="340" fill="none" viewBox="0 0 273 340">
  <g clip-path="url(#angry__a)">
    <path fill="#F7D654" d="m0 150.4 29.1 8.57s-33.62-37.44-18.05-81.44l16.47 17.65s.59-44.38 34.35-68.91C64.63 38.5 77.32 51.7 77.32 51.7s10.91-27.32 34.2-38.39c0 0-4.61 30.1 4.03 45.02 0 0 23.27-19.19 31.63-58.33 0 0 42.33 28.91 45.81 64.05 0 0 20.4-8.09 31.4-25.75 0 0 15.4 27.46 3.79 53.04 0 0 16.7-3.54 27.26-15.06 0 0 12.6 40.4-11.21 73.04 0 0 14.28-.39 28.41-8.62 0 0 1.5 102.9-119.18 113.16C80.82 260.06 5.05 225.01 0 150.4Z"/>
    <path fill="#CC5239" d="M243.76 224.99c-1.23-12.6-9.18-23.21-21.26-28.37a4.34 4.34 0 0 0-1.1-.28c0 .11-.02.23-.04.34-.32 2.66-.78 5.28-1.31 7.86 8.83 4.08 14.62 11.95 15.52 21.25.81 8.31-2.52 15.86-8.9 20.21-10.07 6.86-26.08 5.3-45.09-4.4a4.105 4.105 0 0 0-5.53 1.79 4.113 4.113 0 0 0 1.79 5.53c17.43 8.89 30.39 10.36 39.59 9.04 6.34-.91 10.88-3.14 13.88-5.17 8.91-6.07 13.56-16.47 12.46-27.81h-.01v.01Z"/>
    <path fill="#BA3C32" d="M184.73 133c.13.05.27.11.39.15-.12-.05-.26-.11-.39-.15Zm-24.53-5.08h.76c-.3 0-.7 0-1 .01h.24v-.01Zm-81.62 1.91-.26.03.75-.08-.49.05Zm-12.98 3.38h-.02l.08-.03-.06.03Zm-12.94 8.71c-.32.32-.63.62-.93.93.66-.64 1.47-1.42 2.1-2.03-.35.33-.82.76-1.17 1.1Z"/>
    <path fill="#B72C25" d="M226.21 179.53v-.15c-.02-.95-.08-1.48-.2-2.7v.05c0-.07-.01-.13-.02-.2-.03-.32-.07-.64-.11-.95v-.01l-.09-.64c0-.06-.02-.13-.03-.19-.22-1.52-.6-3.36-1.05-4.95-.01-.05-.03-.1-.04-.15-.09-.32-.18-.63-.28-.92-2.76-9.24-8.26-16.15-14.13-21.23-5.02-4.53-10.63-7.89-15.86-10.18-.23-.11-.46-.22-.68-.33a.714.714 0 0 1-.15-.08c-.06-.03-.13-.06-.19-.09-.63-.3-1.18-.55-1.64-.76l-3.28-1.48c-.91-.41-1.79-.79-2.64-1.14-.03-.01-.05-.02-.08-.03-.37-.15-.73-.3-1.09-.44.01 0 .02 0 .03.01 0 0 .04.01.05.02a.689.689 0 0 1-.08-.03 44.808 44.808 0 0 0-1.41-.54.689.689 0 0 1-.08-.03c-.16-.06-.31-.11-.47-.17 0 0-.02 0-.03-.01h-.03c-.63-.24-1.25-.46-1.83-.66-.08-.03-.17-.05-.25-.08-.69-.23-1.35-.45-1.98-.64-.15-.05-.3-.09-.44-.14-.33-.1-.65-.19-.96-.28l-.25-.07c-.18-.05-.38-.11-.58-.16l-.45-.12c-.4-.11-.8-.21-1.15-.3l-.6-.14-.14-.03c-.44-.11-.83-.2-1.17-.28-.7-.16-1.55-.33-2.37-.48-.03 0-.07-.01-.1-.02l-.18-.03c-1.24-.22-2.4-.39-2.93-.45-.09 0-.19-.02-.27-.03-.61-.07-1.16-.13-1.68-.17l.52.04c-1.55-.13-2.2-.19-3.27-.21-.06 0-.13 0-.19-.01-.72-.04-1.68 0-2.39 0l-7.78.17-7.79.17-7.79.17-7.79.17-7.79.17-7.79.17-7.79.17-7.79.17-7.79.17-7.79.17c-.43.02-.92.04-1.41.07h-.14c-.84.05-1.71.12-2.5.2l.26-.03-.87.09c-1.06.12-2.46.34-3.49.58-.8.18-1.49.35-2.12.51l.42-.11-.49.13s-.03.01-.05.02c-1.77.45-3.05.87-4.87 1.62-.5.2-1 .41-1.5.64.08-.04.15-.07.22-.11l-.83.38c-.76.34-1.7.83-2.6 1.33-.03.02-.06.03-.09.05h-.01c.06-.03.13-.07.18-.1-.1.05-.23.13-.33.18-.24.13-.5.29-.76.44-.96.56-1.78 1.07-2.1 1.3-.31.23-.68.47-1.05.73.11-.08.22-.16.32-.23-.12.09-.28.2-.41.28-.05.03-.09.07-.13.1-.5.35-1 .7-1.4 1.04 0 0-.02.01-.02.02-.77.6-1.74 1.45-2.48 2.07l-1.2 1.16c-.33.31-.64.61-.93.9-.07.07-.15.14-.21.21l-.01.01c-.24.24-.49.51-.75.8-.99 1.06-2.06 2.36-3.14 3.84-.1.14-.21.28-.31.4-.49.64-1.03 1.5-1.51 2.25-.07.11-.14.21-.2.31-.04.06-.08.13-.12.19-.01.02-.99 1.53-2.08 3.74 0 0 0 .02-.01.02-.32.65-.65 1.37-.97 2.12-.16.38-.34.83-.52 1.28 0 .02-.02.04-.03.06-.24.61-.48 1.24-.67 1.78-.07.2-.14.41-.21.63-.29.87-.54 1.7-.75 2.49l-.03.1c-.17.55-.31 1.22-.45 1.87-.04.19-.08.38-.12.56-.06.31-.12.61-.18.88-.23 1.01-.39 2.39-.5 3.42-.11 1.04-.17 2.43-.24 3.47l-.08 2.68-.08 2.68-.08 2.68-.08 2.68-.08 2.68-.08 2.68-.08 2.68-.08 2.68-.08 2.68-.08 2.68c-.01.47 1.54 1.56 4.2 2.98-2.66-1.42-4.22-2.51-4.2-2.98-.02 1.36.02 3.17.1 4.52.06.99.23 2.29.36 3.27.26 1.93.84 4.47 1.44 6.33.04.12.08.25.12.38.43 1.39.93 2.73 1.48 4.01.04.1.08.2.13.3 6.36 14.53 19.58 22.34 27.41 26.21.08.04.16.08.23.12.53.26 1.04.5 1.51.73.14.07.28.13.42.2.46.22.9.42 1.29.6l3.28 1.48c.91.4 2.06.9 3.37 1.43.07.03.15.06.22.09l.21.08c1.12.45 2.33.91 3.63 1.35l1.84.61c.62.2 1.46.45 2.09.64l.37.1c.43.12.84.23 1.22.33l.28.08c.21.05.44.11.69.17.58.14 1.1.27 1.59.38.51.12 1.16.26 1.91.4h.05s.04.02.05.02c.66.12 1.39.25 2.16.36.16.03.32.05.47.08l.33.04a49.769 49.769 0 0 0 2.9.32c.84.07 1.46.11 2.14.13.16 0 .33.02.48.02.74.03 1.74 0 2.48.01l2.65-.06c.44 0 .86-.02 1.24-.03l3.89-.08 7.79-.17 7.79-.17 7.79-.17 7.79-.17 7.79-.17 7.79-.17 7.79-.17c.33 0 .68-.01 1.03-.02l1.75-.04c.43 0 .87-.02 1.31-.03l3.69-.08c.33 0 .67-.01 1.03-.02l1.77-.04c.36 0 .73-.02 1.09-.02l3.89-.08c.43-.02.91-.04 1.41-.07h.14c.41-.03.82-.05 1.23-.09.38-.02.75-.05 1.08-.08.12-.01.24-.03.36-.05h.09c.07 0 .15-.01.22-.02h.05s.05-.01.07-.01c1.06-.12 2.46-.34 3.49-.58 3.17-.73 4.66-1.15 7.12-2.16.47-.19.93-.38 1.4-.59.03-.01.06-.03.1-.04.2-.09.4-.17.61-.26.77-.34 1.7-.83 2.61-1.33a.3.3 0 0 1 .08-.04l.16-.08c.24-.13.49-.28.76-.44.97-.56 1.78-1.07 2.11-1.3.2-.14.41-.29.63-.44l.18-.12c.64-.44 1.33-.91 1.86-1.35 0 0 .02-.01.02-.02 0 0 .02-.01.03-.02 2.25-1.71 4.18-3.55 5.83-5.4.05-.06.11-.12.16-.18.24-.27.48-.55.71-.82.23-.27.47-.56.7-.85.07-.09.14-.18.22-.27.36-.46.72-.93 1.09-1.43.1-.14.21-.28.31-.4.49-.64 1.03-1.5 1.51-2.25.07-.11.14-.21.2-.31.04-.06.08-.13.12-.19.55-.83 1.18-2 1.64-2.88l.27-.53v-.03c.12-.22.23-.43.33-.65.3-.61.59-1.25.82-1.79.06-.14.12-.29.18-.44.02-.04.04-.09.06-.12l-.05.12c.11-.27.22-.55.34-.84 0-.02.02-.04.03-.06.24-.61.48-1.24.67-1.78.07-.2.14-.41.21-.63.22-.66.41-1.29.59-1.91l.06-.2.03-.11c.02-.09.05-.18.07-.27 0-.03.02-.07.03-.1.17-.55.31-1.21.45-1.87.04-.2.08-.39.12-.58v-.04l.08-.34c-.02.09-.05.18-.07.28.06-.27.11-.53.16-.77.08-.35.15-.74.21-1.15.1-.6.17-1.08.24-1.78.02-.17.04-.34.06-.49.11-1.03.17-2.42.24-3.46l.08-2.68.08-2.68.08-2.68.08-2.68.08-2.68.08-2.68.08-2.68.08-2.68.08-2.68.08-2.68v-.32.31c.04-1.42.05-2.12-.02-3.17l-.01-.12Zm-58.13-49.7s-.08-.03-.12-.05c.04.01.08.03.12.05Zm-2.07-.73c-.31-.1-.62-.19-.92-.28.3.09.6.18.92.28Zm-59.77 124.87v-.01.01Zm0-.03v-.02.02Zm119.71-71.01h-.02.02Zm-.25-.09v.11l-.8 26.8c-.02.67-.06 1.34-.11 2.01-.48 4.63-1.41 8.75-2.86 12.56-.15.39-.31.77-.47 1.15l-.21.51c-.23.53-.48 1.06-.73 1.59-.04.07-.07.15-.11.22-.21.43-.43.84-.65 1.26-.14.26-.27.51-.41.77-.09.16-.19.33-.28.49-1.86 3.2-4.19 6.25-7.06 9.31-3.12 3.15-6.68 5.82-10.57 7.85-.17.09-.34.17-.51.25-.37.19-.75.38-1.13.55l-.6.27a39.14 39.14 0 0 1-12.39 3.27c-.89-.06-2.04-.34-2.62.16h-.05l-77.85 1.69v.03-.03h-.9c-4.69-.17-8.72-.94-12.16-2.08-5.47-1.94-10.35-5.15-14.32-9.31-3.03-3.34-5.28-6.74-6.93-10.06-2.72-5.68-4.17-12.17-3.97-19.07l.8-26.8c.67-22.74 19.04-41.78 40.75-42.24h.63c.23-.01.51-.02.85-.02l.76-.02c.65-.01 1.44-.03 2.34-.05l.79-.02c1.55-.03 3.38-.07 5.44-.12h.01c1.69-.04 3.53-.08 5.49-.12h.29c4.02-.09 8.51-.19 13.2-.29h.23c2.12-.05 4.28-.1 6.44-.14l2.2-.05 2.7-.06 2.03-.04c4.41-.1 8.75-.19 12.78-.28l1.22-.03 1.48-.03 2.36-.05h.29l2.83-.06c1.77-.04 3.41-.07 4.9-.11h.49c1.31-.04 2.49-.06 3.52-.09h.56c.41-.02.79-.03 1.15-.04h.63c.27-.02.53-.03.76-.03h.23c.39-.01.69-.02.91-.02h.35c20.87-.47 37.61 16.38 38.27 37.88-.13.88-.44 1.96.01 2.53Zm-63.83-54.76h-.03.03Zm-70.2 4c.52.22 1.05.44 1.59.68-.54-.24-1.07-.47-1.59-.68Zm-8.61-2.43h-.02.02Zm-44.22 43.94c.06.09.15.18.26.29-.11-.11-.19-.2-.26-.29Z"/>
    <path fill="#FF462D" d="M187.41 142.42c21.72-.48 38.97 17.79 38.28 40.53-.27 8.93-.53 17.86-.8 26.8-.67 22.74-19.04 41.78-40.76 42.24-25.95.56-51.9 1.13-77.85 1.69-21.71.48-38.96-17.79-38.28-40.53.27-8.93.53-17.86.8-26.8.67-22.74 19.04-41.78 40.75-42.24 25.95-.56 51.9-1.13 77.85-1.69h.01Z"/>
    <path fill="#CC5200" d="m107.269 228.534-7.48.113a4.27 4.27 0 0 0-4.204 4.334l.03 1.93a4.27 4.27 0 0 0 4.334 4.205l7.479-.114a4.27 4.27 0 0 0 4.204-4.334l-.029-1.93a4.27 4.27 0 0 0-4.334-4.204Z"/>
    <path fill="#FF8419" d="m109.273 229.503-7.479.114a4.27 4.27 0 0 0-4.205 4.334l.03 1.93a4.27 4.27 0 0 0 4.334 4.204l7.479-.113a4.27 4.27 0 0 0 4.205-4.335l-.03-1.929a4.27 4.27 0 0 0-4.334-4.205Z"/>
    <path fill="#B77100" d="m126.972 228.234-7.479.114a4.27 4.27 0 0 0-4.205 4.334l.029 1.93a4.27 4.27 0 0 0 4.335 4.205l7.479-.114a4.27 4.27 0 0 0 4.204-4.334l-.029-1.93a4.27 4.27 0 0 0-4.334-4.205Z"/>
    <path fill="#FFBC31" d="m128.966 229.204-7.479.114a4.27 4.27 0 0 0-4.205 4.334l.03 1.93a4.27 4.27 0 0 0 4.334 4.205l7.479-.114a4.27 4.27 0 0 0 4.205-4.334l-.029-1.93a4.27 4.27 0 0 0-4.335-4.205Z"/>
    <path fill="#fff" d="M111.04 218.11c-6.37-.23-13.31-.76-17.94-4.81-5.48-4.79-5.74-12.67-5.63-19.67.09-6.12.2-12.24.29-18.36.05-2.89.14-5.96 1.83-8.4 2.95-4.27 9.29-5.09 14.74-4.97 34.11.79 60.02.78 95.87-1.8 6.13-.44 11.5 4.28 12.12 10.67.89 9.09 1.01 21.44-1.63 32.23-1.63 6.66-7.07 11.5-13.59 12.29-28.02 3.39-58.29 3.83-86.06 2.82Z"/>
    <path fill="#FF462D" fill-rule="evenodd" d="m201.26 179.55-14.96 8.14c-.81.44-.91 1.54-.22 2.15 1.89 1.65 5.77 3.91 11.02 1.18 5.18-2.7 6.06-7.51 6.1-10.3 0-1-1.05-1.65-1.94-1.17Zm-83.56 7.54c-3.86-1.82-14.56-6.79-18.21-8.48-.61-.28-1.29.17-1.29.85.03 2.52.69 7.73 5.33 10.03 6.31 3.12 11.8.68 14.23-.8.62-.38.59-1.29-.07-1.6h.01Z" clip-rule="evenodd"/>
    <path fill="#FF462D" d="M148.04 207.37a2.057 2.057 0 0 1-1.78-2.93c1.76-3.68 5.19-6.1 8.74-6.16 3.56-.08 6.99 2.29 8.62 5.98.46 1.03-.01 2.24-1.05 2.7-1.03.45-2.24-.01-2.7-1.05-.95-2.15-2.86-3.55-4.8-3.53-1.98.03-4.04 1.57-5.11 3.83-.36.76-1.13 1.18-1.91 1.16h-.01Z"/>
    <path fill="#E3E3E3" d="M192.72 336.1c0 1.87-26.53 3.39-59.25 3.39s-59.25-1.52-59.25-3.39 26.53-3.39 59.25-3.39 59.25 1.52 59.25 3.39Z"/>
    <path fill="#FFBC31" d="M83.06 103.58c.56 3.61-1.92 6.99-5.53 7.55-3.61.56-6.99-1.92-7.55-5.53-.56-3.61 1.92-6.99 5.53-7.55 3.61-.56 6.99 1.92 7.55 5.53Zm9.82-1.4c-.92.22-1.85-.34-2.09-1.26-.85-3.29-2.81-6.19-5.55-8.21a1.74 1.74 0 0 1-.37-2.43 1.74 1.74 0 0 1 2.43-.37c3.37 2.48 5.81 6.09 6.85 10.14.24.93-.32 1.88-1.25 2.12h-.03.01v.01Zm-29.93-4.61c-.93.23-1.87-.34-2.1-1.27-.11-.46-.03-.94.21-1.34 2.72-4.37 7.18-7.42 12.26-8.3.94-.17 1.85.46 2.02 1.4.17.95-.44 1.89-1.41 2.02-4.09.75-7.72 3.18-9.92 6.72-.25.4-.64.67-1.07.77h.01Zm3.58 21.47c-.51.12-1.07 0-1.51-.34a18.236 18.236 0 0 1-6.48-11.25c-.15-.95.52-1.81 1.44-1.99.95-.15 1.84.5 1.99 1.44a14.73 14.73 0 0 0 5.24 9.1c.74.61.86 1.7.25 2.45-.25.3-.58.51-.94.59h.01Z"/>
    <path fill="#FFBC31" d="M94.49 134.94c-.73.18-1.5-.14-1.89-.78l-17.56-28.67c-.5-.82-.24-1.89.57-2.39.82-.51 1.89-.25 2.39.57l17.56 28.67c.5.82.24 1.9-.58 2.4-.15.09-.31.16-.49.2Z"/>
    <path fill="#CC5239" fill-rule="evenodd" d="M193.7 239.5s-9.1-2.26-6.95-7.47c2.55-6.19 16.46 1.71 15.71 9.19-.27 2.69-1.49 6.34-3.46 9.7-5.78 9.88-11.34 9.59-17.39 7.19-4-1.59-6.99-5.19-6.73-7.43.45-3.99 5.3-2.76 5.3-2.76s-4.51-1.83-3.23-5.2c1.27-3.37 4.31-2.55 4.31-2.55s-4.47-2.1-2.86-5.69c1.61-3.59 6.46-1.58 6.46-1.58s-.36 6.65 8.84 6.6Z" clip-rule="evenodd"/>
    <path fill="#EE893A" d="M60.71 213.05c.48 5.91-2.48 10.97-6.62 11.31-4.14.34-7.89-4.18-8.37-10.08-.48-5.91 2.48-10.97 6.62-11.31 4.14-.34 7.89 4.18 8.37 10.08Z"/>
    <path fill="#CC5239" d="M113.98 241.11c-19.4 13.67-36.77 17.9-48.94 11.94-7.71-3.78-12.56-11.57-12.98-20.84-.24-5.31.98-10.41 3.45-14.91.64-1.18.71-2.57.21-3.82-.03-.08-.07-.17-.1-.26-1.38-3.48-6.23-3.75-8.05-.48-3.32 5.97-4.97 12.78-4.65 19.87.57 12.66 7.33 23.37 18.09 28.64 3.61 1.77 8.97 3.51 16.09 3.51 10.33 0 24.37-3.66 42.14-16.19a4.56 4.56 0 0 0 1.1-6.37 4.56 4.56 0 0 0-6.37-1.1h.01v.01Z"/>
    <path fill="#CC5239" fill-rule="evenodd" d="M114.35 234.74s10.11-2.51 7.72-8.3c-2.84-6.88-18.3 1.9-17.46 10.22.3 2.99 1.66 7.05 3.84 10.78 6.42 10.98 12.61 10.66 19.33 7.99 4.45-1.77 7.77-5.76 7.48-8.26-.5-4.43-5.89-3.07-5.89-3.07s5.01-2.04 3.59-5.78c-1.42-3.75-4.79-2.83-4.79-2.83s4.97-2.33 3.18-6.33c-1.79-3.99-7.19-1.76-7.19-1.76s.4 7.4-9.83 7.34h.02Z" clip-rule="evenodd"/>
  </g>
  <defs>
    <clipPath id="angry__a">
      <path fill="#fff" d="M0 0h272.64v339.49H0z"/>
    </clipPath>
  </defs>
</svg>
