<svg xmlns="http://www.w3.org/2000/svg" width="350" height="321" fill="none" viewBox="0 0 350 321">
  <g clip-path="url(#box__a)">
    <path fill="#FFBC31" d="M109.89 46.24c.56 3.61-1.92 6.99-5.53 7.55-3.61.56-6.99-1.92-7.55-5.53-.56-3.61 1.92-6.99 5.53-7.55 3.61-.56 6.99 1.92 7.55 5.53Zm9.82-1.4c-.92.22-1.85-.34-2.09-1.26a14.82 14.82 0 0 0-5.55-8.21 1.74 1.74 0 0 1-.37-2.43 1.74 1.74 0 0 1 2.43-.37c3.37 2.48 5.81 6.09 6.85 10.14.24.93-.32 1.88-1.25 2.12h-.03.01v.01Zm-29.93-4.61a1.739 1.739 0 0 1-1.89-2.61c2.72-4.37 7.18-7.42 12.26-8.3.94-.17 1.85.46 2.02 1.4.17.95-.44 1.89-1.41 2.02-4.09.75-7.72 3.18-9.92 6.72-.25.4-.64.67-1.07.77h.01Zm3.58 21.47c-.51.12-1.07 0-1.51-.34a18.236 18.236 0 0 1-6.48-11.25c-.15-.95.52-1.81 1.44-1.99.95-.15 1.84.5 1.99 1.44a14.73 14.73 0 0 0 5.24 9.1c.74.61.86 1.7.25 2.45-.25.3-.58.51-.94.59h.01Z"/>
    <path fill="#FFBC31" d="M121.32 77.6a1.74 1.74 0 0 1-1.89-.78l-17.56-28.67c-.5-.82-.24-1.89.57-2.39.82-.51 1.89-.25 2.39.57L122.39 75a1.745 1.745 0 0 1-1.07 2.6Z"/>
    <path fill="#F7D654" fill-rule="evenodd" d="m269.05 220.86-26.9-40.23 43.87-10.17 48.71 37.53-65.68 12.87ZM70.86 220l27.72-39-48.75-8.25-46.62 37.8L70.86 220Z" clip-rule="evenodd"/>
    <path fill="#CF8F31" fill-rule="evenodd" d="M98.58 181h143.48l26.99 39.86L70.86 220l27.72-39Z" clip-rule="evenodd"/>
    <path fill="#DEBB79" fill-rule="evenodd" d="m334.73 207.99.12 2.19-66.58 12.3.32-1.62 66.14-12.87ZM3.21 210.55l.22 1.68 67.78 9.06-.35-1.29-67.65-9.45Z" clip-rule="evenodd"/>
    <path fill="#F7D654" fill-rule="evenodd" d="M70.86 220h197.86l-2.99 100.54H79.47L70.86 220Z" clip-rule="evenodd"/>
    <path fill="#DEBB79" fill-rule="evenodd" d="m268.72 220-2.99 100.54h-1.25l2.42-99.46 1.82-1.08Zm-197.86 0 8.61 100.54h1.08l-8.19-99.46-1.5-1.08Z" clip-rule="evenodd"/>
    <path fill="#F5E195" fill-rule="evenodd" d="m268.72 220-2.02 2.16H72.56l-1.7-2.16h197.86Z" clip-rule="evenodd"/>
    <path fill="#DEBB79" fill-rule="evenodd" d="M265.73 320.54H79.47l-.18-.99 128.33-1.43 58.11 1.21v1.21Z" clip-rule="evenodd"/>
    <path fill="#CF8F31" fill-rule="evenodd" d="M184.75 320.54V290.8h-22.82l-2.54 5.43-1.81-5.43h-5.08l1.82 29.74h30.43Z" clip-rule="evenodd"/>
    <path fill="#64BCD3" d="M240.26 135.54c-.42 6.38 2.86 11.78 7.32 12.08 4.47.29 8.43-4.64 8.85-11.01.42-6.38-2.86-11.78-7.32-12.08-4.47-.29-8.43 4.64-8.85 11.01Z"/>
    <path fill="#CC5239" d="M275.15 143.9c23.82 0 42.31-9.74 53.33-28.54 1.14-1.94.49-4.44-1.45-5.58a4.078 4.078 0 0 0-5.58 1.45c-17.25 29.43-51.53 26-70.43 21.34-2.19-.54-4.39.79-4.93 2.98s.79 4.39 2.98 4.93c9.25 2.28 17.98 3.41 26.08 3.41v.01Z"/>
    <path fill="#CC5239" d="M320.13 115.74c-5.38-3.8-6.93-7.42-7.94-9.96-1.2-2.99-2.82-8.37.37-9.11 3.14-.73 3.88 1.62 5.38 4.09 1.89 3.12 4.06 3.48 5.03 3.57 1.08.11 2.58-1.92 3.33-3.56 1.48-3.22 6.11.42 9.75 3.34 3.64 2.92 6.71 6.7 4.04 9.63-2.67 2.93-6.29 5.03-10.22 5.24-3.93.21-6.73-1.13-9.73-3.25l-.01.01Z"/>
    <path fill="#CC5239" d="M326 106.64c-3.76-1.49 1.25-5.66 1.57-10.44.17-2.6-.43-7.76 3.21-8.15 3.64-.39 4.18 4.55 3.79 7.87-.39 3.32-3.48 12.75-8.57 10.73v-.01Z"/>
    <path fill="#CC5239" d="M332.86 108.31c-3.65-2.03 1.63-7.98 2.74-10.39 1.11-2.41 2.39-8.09 5.83-6.94 3.44 1.15 2.05 5.48.91 8.49-1.15 3.01-4.92 11.37-9.47 8.84h-.01Z"/>
    <path fill="#CC5239" d="M332.91 117.49c-2.02-1.75 3.1-7.51 4.24-8.98 1.14-1.47 2.76-3.01 3.81-4.49 1.04-1.48 1.97-3 3.13-4.23 1.16-1.23 2.61-2.19 4.12-1.22 1.51.98 1.15 2.56.57 4.09-.58 1.54-1.24 2.55-2.31 4.13s-2.66 3.66-4.24 5.16c-1.58 1.51-7.29 7.29-9.31 5.54h-.01Z"/>
    <path fill="#64BCD3" d="M109.02 135.54c.42 6.38-2.86 11.78-7.32 12.08-4.47.29-8.43-4.64-8.85-11.01-.42-6.38 2.86-11.78 7.32-12.08 4.47-.29 8.43 4.64 8.85 11.01Z"/>
    <path fill="#CC5239" d="M74.13 143.9c-23.82 0-42.31-9.74-53.33-28.54a4.078 4.078 0 0 1 1.45-5.58 4.078 4.078 0 0 1 5.58 1.45c17.25 29.43 51.53 26 70.43 21.34 2.19-.54 4.39.79 4.93 2.98s-.79 4.39-2.98 4.93c-9.25 2.28-17.98 3.41-26.08 3.41v.01Z"/>
    <path fill="#CC5239" d="M29.15 115.74c5.38-3.8 6.93-7.42 7.94-9.96 1.2-2.99 2.82-8.37-.37-9.11-3.14-.73-3.88 1.62-5.38 4.09-1.89 3.12-4.06 3.48-5.03 3.57-1.08.11-2.58-1.92-3.33-3.56-1.48-3.22-6.11.42-9.75 3.34-3.64 2.92-6.71 6.7-4.04 9.63 2.67 2.93 6.29 5.03 10.22 5.24 3.93.21 6.73-1.13 9.73-3.25h.01v.01Z"/>
    <path fill="#CC5239" d="M23.28 106.64c3.76-1.49-1.25-5.66-1.57-10.44-.17-2.6.43-7.76-3.21-8.15-3.64-.39-4.18 4.55-3.79 7.87.39 3.32 3.48 12.75 8.57 10.73v-.01Z"/>
    <path fill="#CC5239" d="M16.43 108.31c3.65-2.03-1.63-7.98-2.74-10.39-1.11-2.41-2.39-8.09-5.83-6.94-3.44 1.15-2.05 5.48-.91 8.49 1.15 3.01 4.92 11.37 9.47 8.84h.01Z"/>
    <path fill="#CC5239" d="M16.37 117.49c2.02-1.75-3.1-7.51-4.24-8.98-1.14-1.47-2.76-3.01-3.81-4.49-1.04-1.48-1.97-3-3.13-4.23-1.16-1.23-2.61-2.19-4.12-1.22-1.51.98-1.15 2.56-.57 4.09.58 1.54 1.24 2.55 2.31 4.13s2.66 3.66 4.24 5.16c1.58 1.51 7.29 7.29 9.31 5.54h.01Z"/>
    <path fill="#FF462D" d="M213.53 71.08c24.92 0 45.35 19.82 45.34 44v18.26c0 24.18-20.42 44-45.34 44H140c-24.92 0-45.36-19.81-45.35-44v-18.26c0-24.18 20.43-44.01 45.35-44h73.53Z"/>
    <path fill="#B72C25" d="M262.7 120.42c-.01-.23-.03-.46-.05-.69-.04-.6-.09-1.16-.15-1.71-.02-.25-.05-.5-.08-.76v-.06c-.03-.26-.06-.53-.09-.81 0-.04 0-.07-.01-.11 0-.09-.02-.17-.03-.26l-.04-.29-.03-.27-.08-.55c-.04-.25-.07-.5-.11-.75l-.03-.24v.09c0-.02 0-.04-.01-.06v-.02l-.06-.39-.03-.17c-.11-.65-.2-1.14-.29-1.58l-.15-.74c-.01-.06-.03-.12-.04-.18-.06-.29-.13-.59-.21-.93-.16-.7-.32-1.4-.5-2.07v-.03l-.03-.11c-.48-1.78-1.01-3.46-1.6-5.05-.14-.4-.28-.74-.44-1.13a51.67 51.67 0 0 0-2.88-6.1c-.05-.1-.11-.19-.16-.28a48.198 48.198 0 0 0-4.19-6.28c-.29-.38-.6-.76-.93-1.15-.07-.09-.15-.17-.22-.26-.35-.42-.71-.82-1.02-1.17-.4-.44-.83-.89-1.26-1.34l-.05-.05c-.29-.3-.6-.61-.91-.91l-.08-.08s-.06-.05-.08-.08c-.09-.09-.18-.17-.27-.26-.4-.38-.81-.76-1.24-1.14-.01-.01-.03-.02-.04-.04l-.04-.03-.04-.03-.03-.02c-.29-.26-.59-.52-.9-.77-.21-.18-.42-.35-.62-.52-.07-.05-.13-.11-.2-.16-1.35-1.09-2.7-2.06-4.05-2.94-.96-.63-2-1.25-3.11-1.85a8.46 8.46 0 0 0-.42-.22c-.27-.14-.53-.28-.81-.41-1.21-.61-2.41-1.14-3.59-1.61-.97-.41-2.21-.84-3.17-1.16h-.02c-1.05-.34-2.48-.7-3.54-1-1.07-.3-2.55-.51-3.64-.73-.38-.07-.81-.14-1.25-.19-.66-.1-1.18-.15-1.95-.21-.19-.02-.38-.03-.55-.05-1.14-.09-2.68-.11-3.82-.15H139.5c-1.2.01-2.31.07-3.28.15h-.05c-.21.02-.41.04-.6.05-2.55.16-5.22.62-7.94 1.38-1.67.42-3.36.97-5.02 1.66-.3.12-.59.25-.86.37-.84.39-1.93.85-2.84 1.29.05-.03.12-.06.17-.09-.18.09-.43.21-.61.3-.47.24-1 .53-1.53.83-.18.1-.36.19-.52.28l-.11.08c-.39.22-.78.44-1.12.63-.56.31-1.2.73-1.81 1.15-1.3.86-2.61 1.83-3.97 2.98l-.24.19-.32.29c-.46.4-.93.82-1.4 1.26-.15.13-.29.26-.43.39.17-.17.34-.33.49-.48-.27.26-.64.6-.91.86-.88.8-1.92 1.98-2.74 2.88l.21-.24-.32.36c-3.29 3.62-6.95 8.98-9.56 16.54-.05.15-.1.29-.16.44-.13.38-.25.75-.36 1.1a60.38 60.38 0 0 0-1.58 5.95c0 .02 0 .04-.01.06l-.02.09c-.17.81-.3 1.54-.42 2.2v.07l-.03.11a70.705 70.705 0 0 0-.5 3.59c-.1.86-.16 1.66-.22 2.43l-.06.69c-.05.59-.07 1.27-.09 1.95 0 .09 0 .17-.01.25 0 .29 0 .61-.02.95 0 .45-.01.89-.02 1.29v20.65c0 2.83.14 4.8.33 6.63.02.24.05.48.08.72.02.2.04.39.07.59.02.21.05.41.07.62.02.21.05.41.07.62l.09.56c.05.31.09.62.14.93v.06c.03.12.04.24.06.37l.03.17c.09.49.17.95.26 1.38.06.31.12.62.18.92l.12.51v.04c.05.21.09.41.14.61a57.6 57.6 0 0 0 2.12 7.19c.15.42.29.78.46 1.19.63 1.58 1.3 3.06 2.01 4.45l.06.12c.25.49.51.97.76 1.43.07.13.15.27.22.39 1.34 2.37 2.75 4.45 4.16 6.24a42.956 42.956 0 0 0 1.14 1.41c.36.42.71.83 1.03 1.18.54.59 1.08 1.16 1.62 1.7.16.16.31.32.47.47l.2.21c.07.07.16.15.24.23.35.33.69.65 1.04.97.11.1.21.2.31.29.66.59 1.32 1.14 1.98 1.67 0 0 .02.01.02.02 4.01 3.21 8.06 5.41 11.87 6.93.96.41 2.19.83 3.14 1.14h.02c1.05.34 2.48.7 3.54 1 1.07.3 2.55.51 3.64.73 1.11.22 2.62.36 3.75.45 1.14.09 2.68.11 3.82.15h73.54c1.4 0 2.69-.06 3.8-.15h.04c2.25-.18 3.73-.45 3.75-.45h.02c.41-.07.86-.15 1.33-.25 2.71-.47 5.64-1.21 8.45-2.39.3-.12.59-.25.86-.37.98-.45 2.31-1.01 3.28-1.5 1-.51 2.3-1.27 3.28-1.82.56-.31 1.2-.73 1.81-1.15a41.17 41.17 0 0 0 3.99-3c.07-.05.14-.11.21-.16l.32-.29c.46-.4.92-.82 1.4-1.26.3-.27.58-.53.85-.77.92-.84 2.01-2.09 2.85-3.01 3.29-3.62 6.95-8.98 9.56-16.54.05-.15.1-.29.16-.44.13-.38.25-.75.36-1.11.7-2.17 1.21-4.21 1.58-5.95 0-.02 0-.04.01-.06l.02-.09c.17-.81.31-1.55.42-2.21v-.06l.03-.1a70.705 70.705 0 0 0 .5-3.59c.09-.86.16-1.66.22-2.43.02-.23.04-.45.06-.7.05-.59.07-1.27.09-1.95 0-.09 0-.17.01-.26 0-.28 0-.61.01-.94 0-.46.01-.9.02-1.3v-20.65c0-1.65-.05-3.01-.13-4.23l.05.02ZM138.78 71.11h.34c.29 0 .58-.02.88-.02h73.53c24.92 0 45.35 19.82 45.34 44v18.26c0 23.65-19.53 43.11-43.7 43.96-.23-.01-.44 0-.65.02-.33 0-.66.02-.99.02H140c-19.35 0-35.99-11.94-42.46-28.6-.03-.07-.05-.14-.08-.21-.97-2.64-1.75-5.48-2.29-8.54-.23-1.44-.38-2.89-.46-4.37.05-.59.09-1.21-.04-1.68 0-.2-.02-.39-.02-.59V115.1c0-23.79 19.77-43.35 44.13-43.97v-.02Z"/>
    <path fill="#fff" d="m224.53 142.12-96.07.2c-7.81.02-15.8-8.72-15.82-15.66 0 0-.48-6.67-.5-13.11-.01-6.86.68-11.27.68-11.27.92-10.44 11.69-17.17 23.04-18.42 0 0 19.62-1.83 39.47-1.87 20.34-.04 40.92 1.7 40.92 1.7 13.67 1.57 23.43 6 24.4 19.36 0 0 .72 6.95.73 12.52.01 6.04-.44 13.15-.44 13.15-.45 8.14-7.72 13.38-16.41 13.39v.01Z"/>
    <path fill="#CC5200" d="M128.81 153.93h-7.48a4.27 4.27 0 0 0-4.27 4.27v1.93a4.27 4.27 0 0 0 4.27 4.27h7.48a4.27 4.27 0 0 0 4.27-4.27v-1.93a4.27 4.27 0 0 0-4.27-4.27Z"/>
    <path fill="#FF8419" d="M128.81 151.93h-7.48a4.27 4.27 0 0 0-4.27 4.27v1.93a4.27 4.27 0 0 0 4.27 4.27h7.48a4.27 4.27 0 0 0 4.27-4.27v-1.93a4.27 4.27 0 0 0-4.27-4.27Z"/>
    <path fill="#B77100" d="M148.51 153.93h-7.48a4.27 4.27 0 0 0-4.27 4.27v1.93a4.27 4.27 0 0 0 4.27 4.27h7.48a4.27 4.27 0 0 0 4.27-4.27v-1.93a4.27 4.27 0 0 0-4.27-4.27Z"/>
    <path fill="#FFBC31" d="M148.51 151.93h-7.48a4.27 4.27 0 0 0-4.27 4.27v1.93a4.27 4.27 0 0 0 4.27 4.27h7.48a4.27 4.27 0 0 0 4.27-4.27v-1.93a4.27 4.27 0 0 0-4.27-4.27Z"/>
    <path fill="#E3E3E3" d="m42.51 27.8 3.13 9.64h10.14l-8.2 5.96 3.13 9.65-8.2-5.96-8.21 5.96 3.14-9.65-8.21-5.96h10.14l3.14-9.64ZM17.06 146.03l3.14 9.64h10.14l-8.21 5.96 3.14 9.64-8.21-5.96-8.2 5.96 3.13-9.64-8.2-5.96h10.14l3.13-9.64ZM283.21 32.11l3.13 9.65h10.14l-8.2 5.96 3.13 9.64-8.2-5.96-8.21 5.96 3.14-9.64-8.21-5.96h10.14l3.14-9.65Zm30.51 122.06 3.13 9.64h10.14l-8.2 5.96 3.13 9.64-8.2-5.96-8.2 5.96 3.13-9.64-8.2-5.96h10.14l3.13-9.64ZM176.17 0l3.13 9.64h10.14l-8.2 5.96 3.13 9.65-8.2-5.96-8.21 5.96 3.14-9.65-8.2-5.96h10.13L176.17 0Z"/>
    <path fill="#FF462D" d="M216.26 102.11c0 4.09-2.88 7.4-6.44 7.4-3.56 0-6.43-3.31-6.43-7.4s2.88-7.4 6.43-7.4 6.44 3.31 6.44 7.4Zm-68.33 0c0 4.09-2.88 7.4-6.44 7.4-3.56 0-6.43-3.31-6.43-7.4s2.88-7.4 6.43-7.4 6.44 3.31 6.44 7.4Zm37.99 16.45a1.932 1.932 0 0 1 1.5 3.15c-.14.17-3.48 4.19-9.6 4.19-6.12 0-9.33-3.81-9.47-3.97-.7-.81-.6-2.03.21-2.73.81-.7 2.02-.6 2.72.2.12.14 2.41 2.63 6.54 2.63s6.51-2.66 6.61-2.77c.38-.46.94-.69 1.49-.69v-.01Z"/>
  </g>
  <defs>
    <clipPath id="box__a">
      <path fill="#fff" d="M0 0h349.28v320.54H0z"/>
    </clipPath>
  </defs>
</svg>
