<svg xmlns="http://www.w3.org/2000/svg" width="442" height="254" fill="none" viewBox="0 0 442 254">
  <g clip-path="url(#cleaning-purple__a)">
    <path fill="#86118C" d="M350.58 142.98c-10.94 0-22.16-4.02-31.64-11.48-10.86-8.55-17.63-20.13-18.57-31.78a3.822 3.822 0 1 1 7.62-.62c.76 9.39 6.62 19.26 15.68 26.39 9.78 7.7 21.61 11.13 32.47 9.41a3.822 3.822 0 0 1 1.19 7.55c-2.23.35-4.49.52-6.76.52h.01v.01Z"/>
    <path fill="#F7D654" d="m348.87 210.82 36.07-184.78c.53-2.74 3.19-4.52 5.92-3.99 2.74.53 4.52 3.19 3.99 5.92 0 .02-.01.06-.02.08l-38.96 184.19a3.564 3.564 0 0 1-4.23 2.75 3.578 3.578 0 0 1-2.77-4.18v.01Z"/>
    <path fill="#F4C050" d="m360.23 173.21 22.71 60.07h-71.69l48.98-60.07Z"/>
    <path fill="#F7D754" d="m327.54 233.28 15.14-22.91-6.88 22.91h-8.26Zm17.26 0 8.72-33.92-.46 33.92h-8.26Z"/>
    <path fill="#F4C050" d="m361.97 202.09-16.44-3.7 5.63-25.03c1.02-4.54 5.53-7.39 10.07-6.37 4.54 1.02 7.39 5.53 6.37 10.07l-5.63 25.03Z"/>
    <path fill="#E3E3E3" d="M441.88 233.27h-91.85c-1.11-3.57-.08-7.61 2.81-10.15 1.74-1.53 3.9-2.31 6.1-2.39 2.2-.06 4.42.63 6.23 2.07-.04-.34-.13-1.09-.1-2.05 0-.32.04-.65.08-1.01.1-.69.25-1.43.55-2.18.29-.73.73-1.43 1.32-2.06 1.13-1.19 2.77-1.93 4.67-2.14.63-.08 1.28-.1 1.95-.04 2.01.13 4.19.8 6.23 2.1.69.44 1.36.94 2.01 1.53-1.28-2.31-2.08-4.72-2.43-7.07-.23-1.57-.25-3.12-.06-4.55.19-1.45.61-2.83 1.22-4.05.32-.61.69-1.19 1.11-1.72.33-.4.69-.78 1.05-1.13.13-.11.29-.21.42-.33.25-.21.5-.44.76-.63.19-.11.38-.23.57-.34.25-.13.5-.29.75-.42.23-.11.46-.21.69-.31.23-.11.48-.21.73-.31.27-.1.52-.17.78-.25.23-.08.48-.13.73-.21.29-.06.57-.11.86-.17.23-.04.46-.08.71-.11.31-.04.61-.06.94-.08.21-.02.44-.04.67-.04.33-.02.65-.02.99-.02.11.02.23 0 .33 0 0 .02-.02.02-.02.02 4.91.19 10.08 2.33 13.38 6.16 5.03 5.81 5.41 15.05.55 22.35 3.75-5.97 10.65-7.28 14.28-4.61 2.41 1.76 3.42 5.26 2.94 8.79 3.38-3.12 8.28-3.86 12.27-1.91 2.91 1.43 4.99 4.11 5.75 7.27h.03v-.01Zm-122.79 0h-73.88c-.8-3.46.46-7.15 3.27-9.33 2.94-2.29 7.07-2.52 10.32-.57.94-3.04 3.69-5.07 6.65-4.99 2.41.06 4.65 1.49 5.81 3.73-1.43-2.39-.84-5.49 1.36-7.15 1.91-1.45 4.55-1.43 6.46-.08-4.97-4.88-5.53-11.72-2.47-15.41 2.45-2.98 7.04-3.63 10.38-2.52 5.28 1.72 8.91 8.18 7.65 15.56 3.31-4.45 9.41-5.07 12.92-2.1 2.81 2.37 3.71 6.81 1.87 10.65 3.25-1.11 6.79-.27 8.95 2.1 2.39 2.64 2.71 6.83.69 10.11h.02Z"/>
    <path fill="#86118C" d="m366.89 141.39 7.14 1.16c1.73.28 3.44-1.39 3.82-3.74.38-2.35-.71-4.48-2.44-4.76l-7.14-1.16c-1.73-.28-3.44 1.39-3.82 3.74-.38 2.35.71 4.48 2.44 4.76Z"/>
    <path fill="#86118C" d="m366.98 147.83 5.76.94c1.81.29 3.58-1.37 3.96-3.72.38-2.35-.77-4.49-2.58-4.78l-5.76-.94c-1.81-.29-3.58 1.37-3.96 3.72-.38 2.35.77 4.49 2.58 4.78Z"/>
    <path fill="#86118C" d="m366.82 155.16 4.59.75c1.44.23 2.92-1.48 3.3-3.83.38-2.35-.48-4.44-1.92-4.67l-4.59-.75c-1.44-.23-3.85.46-4.23 2.81l-.27 2c-.38 2.35 1.68 3.46 3.12 3.69Z"/>
    <path fill="#86118C" d="m367.26 121.08 11.01 1.79c2.22.36 3.99 2.29 3.85 4.54a4.302 4.302 0 0 1-4.99 4l-9.22.62a4.678 4.678 0 0 0-4.28 3.77l-3.52 17.91s-14.29-5.9-8.53-22.17c3.99-11.28 15.68-10.46 15.68-10.46Z"/>
    <path fill="#B72C25" d="M252.19 37.1c-.3 0-.7 0-1 .01h1v-.01Zm-82.38 1.91c-.09 0-.17.02-.26.03l.75-.08-.49.05Zm-12.99 3.39h-.02l.08-.03-.06.03Zm-12.94 8.71c-.32.32-.63.62-.93.93.66-.64 1.47-1.42 2.1-2.03-.35.33-.82.76-1.17 1.1Z"/>
    <path fill="#A914AD" d="M317.44 88.72v-.15c-.02-.95-.08-1.48-.2-2.7v.05c0-.07-.01-.13-.02-.2-.03-.32-.07-.64-.11-.95v-.01l-.09-.64c0-.07-.02-.13-.03-.2-.22-1.52-.6-3.36-1.05-4.95-.01-.05-.03-.1-.04-.15-.09-.32-.18-.63-.28-.92-2.76-9.25-8.26-16.15-14.13-21.24-5.02-4.53-10.63-7.89-15.86-10.18-.24-.11-.46-.22-.68-.33-.05-.02-.1-.05-.15-.08l-.18-.09c-.63-.3-1.18-.55-1.64-.76l-3.28-1.48c-.91-.41-1.79-.79-2.64-1.14a.201.201 0 0 1-.08-.04c-.37-.15-.73-.3-1.09-.44.01 0 .02 0 .03.01.01 0 .03.01.04.02-.02 0-.05-.02-.07-.03a58.735 58.735 0 0 0-1.49-.57c-.16-.06-.31-.11-.47-.17 0 0-.02 0-.03-.01h-.03c-.63-.24-1.25-.46-1.83-.66-.08-.03-.17-.05-.25-.08-.69-.23-1.35-.45-1.98-.64-.15-.05-.3-.09-.44-.13-.33-.1-.66-.2-.97-.29l-.24-.07c-.18-.05-.38-.11-.58-.16l-.45-.12c-.4-.11-.8-.21-1.15-.3l-.6-.14-.14-.03c-.44-.11-.83-.2-1.17-.28-.7-.16-1.55-.33-2.37-.48-.03 0-.07-.01-.1-.02l-.18-.03c-1.24-.22-2.4-.39-2.93-.45-.08 0-.18-.02-.27-.03-.61-.07-1.16-.13-1.68-.17l.52.04c-1.55-.14-2.2-.19-3.27-.21-.06 0-.13 0-.19-.01-.72-.04-1.68 0-2.39 0l-7.78.17-7.79.17-7.79.17-7.79.17-7.79.17-7.79.17-7.79.17-7.79.17-7.79.17-7.79.17c-.43.02-.92.04-1.41.07h-.14c-.84.05-1.71.12-2.49.2l.26-.03-.87.09c-1.05.12-2.46.34-3.49.58-.8.18-1.49.35-2.12.51l.42-.11-.49.13s-.03.01-.05.02c-1.77.45-3.05.87-4.87 1.62-.5.2-1 .41-1.5.64.08-.04.15-.07.23-.11l-.84.38c-.76.34-1.7.82-2.6 1.32-.03.02-.06.03-.09.05h-.01c.06-.03.13-.07.18-.1-.1.05-.23.13-.33.18-.24.13-.5.29-.76.44-.96.56-1.78 1.07-2.1 1.3-.31.22-.68.47-1.05.73.11-.08.22-.16.32-.23-.12.09-.28.2-.41.28-.05.03-.09.07-.13.1-.5.35-1 .7-1.4 1.04 0 0-.02.01-.02.02-.77.6-1.74 1.45-2.48 2.07l-1.2 1.16c-.33.31-.64.61-.93.9-.07.07-.15.14-.21.21l-.01.01c-.24.24-.49.51-.75.79-.99 1.06-2.06 2.36-3.14 3.84-.1.14-.21.28-.31.4-.49.64-1.03 1.5-1.51 2.25-.07.1-.13.2-.2.31-.04.06-.08.13-.12.19-.01.02-.99 1.53-2.08 3.74 0 0 0 .01-.01.02-.32.66-.66 1.37-.98 2.12-.16.39-.34.83-.52 1.28 0 .02-.02.04-.03.06-.24.61-.48 1.24-.67 1.78-.07.19-.14.41-.21.63-.29.87-.54 1.7-.75 2.5 0 .03-.02.07-.03.1-.17.55-.31 1.22-.45 1.87-.04.19-.08.37-.11.56-.06.31-.13.61-.19.89-.23 1.01-.39 2.39-.5 3.42-.11 1.04-.17 2.43-.24 3.47l-.08 2.68-.08 2.68-.08 2.68-.08 2.68-.08 2.68-.08 2.68-.08 2.68-.08 2.68-.08 2.68-.08 2.68c-.02 1.36.02 3.17.1 4.52.06.99.23 2.29.36 3.27.26 1.93.84 4.47 1.44 6.33.04.12.08.25.12.37.43 1.39.93 2.73 1.48 4.01.04.1.09.2.13.3 6.36 14.53 19.58 22.34 27.41 26.21l.24.12c.53.26 1.03.5 1.5.72.14.07.28.13.42.2.46.22.9.42 1.29.6l3.28 1.48c.91.4 2.06.9 3.37 1.43.07.03.15.06.22.09l.22.08c1.12.45 2.33.91 3.62 1.35l1.84.61c.62.2 1.46.45 2.09.64l.37.1c.43.12.84.23 1.22.33l.28.08c.21.05.44.11.68.17.58.14 1.1.27 1.59.38.5.12 1.16.25 1.9.4h.05s.04.02.06.02c.66.12 1.39.25 2.15.36.16.03.32.05.47.08l.34.04a49.203 49.203 0 0 0 2.9.32c.84.07 1.45.11 2.14.13.16 0 .33.02.48.02.74.03 1.74 0 2.48.01 1.17-.03 2.73-.06 3.89-.08h.02l3.87-.08 7.79-.17 7.79-.17 7.79-.17 7.79-.17 7.79-.17 7.79-.17 7.79-.17c1.23-.03 2.67-.06 4.1-.09l.9-.02c.6-.01 1.19-.03 1.75-.04l1.03-.02c1.17-.03 2.53-.05 3.89-.08l1.14-.02c.59-.01 1.17-.03 1.72-.04l1.03-.02c.43-.02.92-.04 1.41-.07h.14c.41-.03.82-.05 1.23-.09.38-.02.75-.05 1.08-.08.12-.01.24-.03.36-.05h.09c.07 0 .15-.01.22-.02h.05s.05-.01.07-.01c1.06-.12 2.46-.34 3.49-.58 3.17-.73 4.66-1.15 7.12-2.16.47-.19.94-.39 1.41-.6.03-.01.06-.03.1-.04.2-.08.39-.17.6-.26.77-.34 1.7-.83 2.61-1.33a.3.3 0 0 1 .08-.04l.16-.08c.24-.13.49-.28.76-.44.97-.56 1.78-1.07 2.11-1.3.19-.14.41-.29.63-.44.08-.05.15-.1.22-.15.63-.43 1.31-.9 1.82-1.33 0 0 .02-.01.02-.02 0 0 .02-.01.02-.02 2.25-1.71 4.18-3.55 5.83-5.4.05-.06.11-.12.16-.18.24-.28.48-.55.71-.82.23-.27.47-.56.7-.85.07-.09.15-.18.22-.28.36-.46.72-.93 1.09-1.43.1-.14.21-.28.31-.4.49-.64 1.03-1.5 1.51-2.25.07-.1.13-.2.2-.31.04-.06.08-.13.12-.19.55-.83 1.18-2 1.64-2.88l.28-.54v-.03c.12-.22.23-.44.34-.66.3-.61.59-1.25.82-1.79.06-.14.12-.29.18-.44.02-.04.04-.09.06-.12l-.05.12c.11-.27.22-.55.34-.83 0-.02.02-.05.03-.07.24-.61.48-1.24.67-1.78.07-.19.14-.41.21-.63.22-.66.41-1.3.59-1.92l.06-.2.03-.11c.02-.09.05-.18.07-.27l.03-.1c.17-.55.31-1.22.45-1.87.04-.19.08-.37.11-.56 0-.02 0-.04.01-.05l.08-.34c-.02.09-.05.18-.07.28.05-.27.11-.53.16-.77.08-.35.15-.74.21-1.15.1-.6.17-1.08.24-1.78l.06-.5c.11-1.03.17-2.42.24-3.46l.05-1.57.04-1.39.07-2.4.08-2.68.08-2.68.08-2.68.05-1.57.04-1.39.07-2.4.08-2.68.08-2.68.08-2.68v-.32.31c.04-1.42.05-2.12-.02-3.17l-.02-.02Zm-60.21-50.43Zm-4.14-1.03h-.03.03Zm-73.58 2.76c-.03 0-.05-.02-.08-.03.03 0 .05.02.08.02v.01Zm17.95 123.14v-.01.01Zm.01-.03v-.02.02Zm119.7-71.01h-.02.02Zm-.02 0h-.01.01Zm-.06.01h.04-.04Zm-.17-.1v.11h.07-.07l-.8 26.8c-.02.67-.06 1.34-.11 2.01-.48 4.63-1.41 8.75-2.86 12.56-.15.39-.31.77-.47 1.15l-.21.51c-.23.54-.48 1.06-.73 1.59-.04.07-.07.15-.1.22-.21.43-.43.84-.65 1.26-.14.26-.27.51-.41.77-.09.16-.19.33-.28.49-1.86 3.2-4.19 6.25-7.06 9.31-3.12 3.15-6.68 5.82-10.57 7.85-.17.09-.34.17-.52.26-.37.19-.75.37-1.12.55l-.6.27a39.14 39.14 0 0 1-12.39 3.27c-.89-.06-2.04-.34-2.62.16h-.05l-77.85 1.69v.03-.03h-.9c-4.69-.17-8.72-.94-12.15-2.08-5.47-1.94-10.35-5.15-14.32-9.31-3.03-3.34-5.28-6.74-6.93-10.06-2.72-5.68-4.18-12.17-3.97-19.07l.8-26.8c.67-22.74 19.04-41.78 40.75-42.24l77.85-1.69c20.87-.46 37.61 16.39 38.27 37.89-.13.88-.44 1.96.01 2.53h-.01ZM181.66 40.79c.24.09.48.19.73.28-.25-.1-.49-.19-.73-.28Zm1.23.48c.52.22 1.05.44 1.59.68-.54-.24-1.07-.47-1.59-.68Zm-8.61-2.44h-.02.02ZM134.9 85.87c-1.58-.82-2.82-1.54-3.68-2.12.85.58 2.1 1.3 3.68 2.12Zm-4.32-2.59c-.31-.25-.52-.47-.6-.63.08.17.29.38.6.63Zm2.75 28.98c-1.71-.91-2.95-1.69-3.62-2.25.67.56 1.92 1.34 3.62 2.25Zm-4.02-2.62c-.1-.12-.16-.23-.17-.31.01.09.06.19.17.31Z"/>
    <path fill="#CF4CCF" d="M278.63 51.61c21.72-.48 38.97 17.79 38.28 40.53-.27 8.93-.53 17.86-.8 26.8-.67 22.74-19.04 41.78-40.76 42.24-25.95.56-51.9 1.13-77.85 1.69-21.71.48-38.96-17.79-38.28-40.53.27-8.93.53-17.86.8-26.8.67-22.74 19.04-41.78 40.75-42.24 25.95-.56 51.9-1.13 77.85-1.69h.01Z"/>
    <path fill="#CC5200" d="m198.489 137.729-7.479.114a4.268 4.268 0 0 0-4.204 4.334l.029 1.93a4.27 4.27 0 0 0 4.334 4.204l7.479-.113a4.27 4.27 0 0 0 4.205-4.334l-.029-1.93a4.27 4.27 0 0 0-4.335-4.205Z"/>
    <path fill="#FF8419" d="m200.494 138.699-7.479.113a4.27 4.27 0 0 0-4.205 4.334l.029 1.93a4.27 4.27 0 0 0 4.335 4.205l7.479-.114a4.268 4.268 0 0 0 4.204-4.334l-.029-1.93a4.27 4.27 0 0 0-4.334-4.204Z"/>
    <path fill="#B77100" d="m218.192 137.42-7.479.114a4.268 4.268 0 0 0-4.204 4.334l.029 1.93a4.27 4.27 0 0 0 4.334 4.204l7.479-.113a4.27 4.27 0 0 0 4.205-4.335l-.029-1.929a4.27 4.27 0 0 0-4.335-4.205Z"/>
    <path fill="#FFBC31" d="m220.187 138.39-7.479.113a4.271 4.271 0 0 0-4.205 4.335l.03 1.929a4.27 4.27 0 0 0 4.334 4.205l7.479-.113a4.27 4.27 0 0 0 4.205-4.335l-.03-1.93a4.268 4.268 0 0 0-4.334-4.204Z"/>
    <path fill="#fff" d="M201.96 125.58c-6.37-.23-13.31-.76-17.94-4.81-5.48-4.79-5.74-12.67-5.63-19.67.09-6.12.2-12.24.29-18.36.05-2.89.14-5.96 1.83-8.4 2.95-4.27 9.29-5.09 14.74-4.97 34.11.79 60.02.78 95.87-1.8 6.13-.44 11.5 4.28 12.12 10.67.89 9.09 1.01 21.44-1.63 32.23-1.63 6.66-7.07 11.5-13.59 12.29-28.02 3.39-58.29 3.83-86.06 2.82Z"/>
    <path fill="#E3E3E3" d="M293.36 250.57c0 1.87-26.53 3.39-59.25 3.39s-59.25-1.52-59.25-3.39 26.53-3.39 59.25-3.39 59.25 1.52 59.25 3.39Z"/>
    <path fill="#CF4CCF" d="M158.43 16.94c.56 3.61-1.92 6.99-5.53 7.55-3.61.56-6.99-1.92-7.55-5.53-.56-3.61 1.92-6.99 5.53-7.55 3.61-.56 6.99 1.92 7.55 5.53Zm9.82-1.39c-.92.22-1.85-.34-2.09-1.26a14.82 14.82 0 0 0-5.55-8.21 1.74 1.74 0 0 1-.37-2.43 1.74 1.74 0 0 1 2.43-.37c3.37 2.48 5.81 6.09 6.85 10.14.24.93-.32 1.88-1.25 2.12h-.03l.01.01Zm-29.93-4.61a1.739 1.739 0 0 1-1.89-2.61c2.72-4.37 7.18-7.42 12.26-8.3.94-.17 1.85.46 2.02 1.4.17.95-.44 1.89-1.41 2.02-4.09.75-7.72 3.18-9.92 6.72-.25.4-.64.67-1.07.77h.01Zm3.58 21.47c-.51.12-1.07 0-1.51-.34a18.236 18.236 0 0 1-6.48-11.25c-.15-.95.52-1.81 1.44-1.99.95-.15 1.84.5 1.99 1.44a14.73 14.73 0 0 0 5.24 9.1c.74.61.86 1.7.25 2.45-.25.3-.58.51-.94.59h.01Z"/>
    <path fill="#CF4CCF" d="M169.86 48.31a1.74 1.74 0 0 1-1.89-.78l-17.56-28.67c-.5-.82-.24-1.89.57-2.39.82-.51 1.89-.25 2.39.57l17.56 28.67a1.745 1.745 0 0 1-1.07 2.6Zm-33.79 65.12c1.09 5.41 5.05 9.18 8.84 8.42 3.79-.76 5.98-5.77 4.89-11.19-1.09-5.41-5.05-9.18-8.84-8.42-3.79.76-5.98 5.77-4.89 11.19Z"/>
    <path fill="#86118C" d="M96.46 149c-5.37 0-10.94-.75-16.64-2.28a3.827 3.827 0 0 1 1.99-7.39c25.31 6.81 46.95-3.66 56.47-27.35a3.817 3.817 0 0 1 4.97-2.12c1.96.79 2.91 3.01 2.12 4.97-8.76 21.8-27.08 34.16-48.91 34.16v.01Z"/>
    <path fill="#F7D754" d="m74.87 123.71 16.52 38.6c1.23 2.88-.16 6.22-3.08 7.36a5.562 5.562 0 0 1-7.22-3.17l-15.91-41.18 9.7-1.61h-.01Z"/>
    <path fill="#F4C050" d="M81.83 164.73a5.554 5.554 0 0 0 7.22 3.17 5.552 5.552 0 0 0 2.66-2.19 5.531 5.531 0 0 1-3.39 3.96 5.562 5.562 0 0 1-7.22-3.17l-15.91-41.18 1.33-.22 15.32 39.63h-.01Z"/>
    <path fill="#F7D654" d="M93.23 44.4s29.88 56.57-17.49 79.24C28.37 146.31 0 84.67 0 84.67l93.23-40.28v.01Z"/>
    <path fill="#F4C050" d="M66.85 110.19c31.84-15.24 23.66-48.04 18.23-62.28l8.14-3.52s29.88 56.57-17.49 79.24C28.37 146.31 0 84.67 0 84.67l4.38-1.89c8.24 13.69 30.35 42.79 62.47 27.41Z"/>
    <path fill="#F7D754" d="M2.14 83.75c4.14 7.97 31.67 56.92 74.58 37.09 13.87-6.41 20.97-15.76 24.1-25.74-2.96 10.99-10.22 21.43-25.07 28.54C28.37 146.31 0 84.67 0 84.67l2.14-.92Z"/>
    <path fill="#86118C" d="m77.2 148.17-6.94 2.23c-1.68.54-3.64-.86-4.36-3.12-.73-2.26.05-4.54 1.73-5.08l6.94-2.23c1.68-.54 3.64.86 4.36 3.12.73 2.26-.05 4.54-1.73 5.08Z"/>
    <path fill="#86118C" d="m79.86 153.98-6.74 2.16c-2.11.68-4.41-.61-5.14-2.87-.73-2.26.4-4.65 2.51-5.33l6.74-2.16c2.11-.68 4.41.61 5.14 2.87.73 2.26-.4 4.65-2.51 5.33Z"/>
    <path fill="#86118C" d="m80.91 161.27-5.37 1.72c-1.68.54-3.64-.86-4.36-3.12-.73-2.26.05-4.54 1.73-5.08l5.37-1.72c1.68-.54 4.63-.36 5.36 1.9l.55 1.95c.73 2.26-1.59 3.81-3.28 4.35Zm-6.07-33.46-10.62 3.41c-2.14.69-3.6 2.86-3.13 5.06.54 2.53 3.13 3.99 5.53 3.21l9.2-1.17c2.85-.36 5.61 1.2 6.76 3.83l6.62 15.05s10.82-6.15 2.7-21.38c-5.63-10.56-17.06-8.01-17.06-8.01Z"/>
    <path fill="#CF4CCF" d="M246.37 119.56c-8.28-.29-10.97-7.87-11.26-11.83a2.32 2.32 0 0 1 2.16-2.48c1.27-.12 2.38.87 2.48 2.15.05.74.75 7.3 6.77 7.51 6.02.21 6.86-7.57 6.89-7.9.12-1.28 1.27-2.22 2.52-2.09a2.31 2.31 0 0 1 2.1 2.51c-.38 4.32-3.32 12.41-11.68 12.12l.02.01Zm-31.38-31.97c0 3.85-2.88 6.97-6.44 6.97-3.56 0-6.43-3.12-6.43-6.97 0-3.85 2.88-6.97 6.43-6.97s6.44 3.12 6.44 6.97Zm73.79 0c0 3.85-2.88 6.97-6.44 6.97-3.56 0-6.43-3.12-6.43-6.97 0-3.85 2.88-6.97 6.43-6.97s6.44 3.12 6.44 6.97Z"/>
  </g>
  <defs>
    <clipPath id="cleaning-purple__a">
      <path fill="#fff" d="M0 0h441.88v253.96H0z"/>
    </clipPath>
  </defs>
</svg>
