<svg xmlns="http://www.w3.org/2000/svg" width="48" height="48" fill="none" viewBox="0 0 48 48">
  <path fill="#FFD52C" fill-rule="evenodd" d="M12.284 12.116 9 7.095 10.674 6l3.284 5.022-1.674 1.094Z" clip-rule="evenodd"/>
  <path fill="#CF4CCF" fill-rule="evenodd" d="M14 10C8.477 10 4 14.477 4 20v12c0 5.523 4.477 10 10 10h13.429l2.714 3.8a1 1 0 0 0 1.655-.04l2.418-3.762C39.639 41.883 44 37.45 44 32V20c0-5.523-4.477-10-10-10H14Z" clip-rule="evenodd"/>
  <path fill="#fff" fill-rule="evenodd" d="M16 15a6 6 0 0 0-6 6v8a6 6 0 0 0 6 6h16a6 6 0 0 0 6-6v-8a6 6 0 0 0-6-6H16Zm1 10c1.657 0 3-1.567 3-3.5S18.657 18 17 18s-3 1.567-3 3.5 1.343 3.5 3 3.5Zm17-3.5c0 1.933-1.343 3.5-3 3.5s-3-1.567-3-3.5 1.343-3.5 3-3.5 3 1.567 3 3.5Zm-13.113 6.038a1 1 0 1 0-1.773.925c.71 1.36 2.165 2.957 4.015 3.412a4.107 4.107 0 0 0 3.041-.414c1.003-.558 1.91-1.54 2.705-2.976a1 1 0 1 0-1.75-.97c-.678 1.227-1.35 1.878-1.926 2.198a2.11 2.11 0 0 1-1.591.22c-1.098-.27-2.168-1.334-2.721-2.395Z" clip-rule="evenodd"/>
  <circle cx="9" cy="5" r="3" fill="#FFD52C"/>
  <rect width="3" height="3" x="13" y="37" fill="#FFD52C" rx="1"/>
  <rect width="3" height="3" x="17" y="37" fill="#FF8419" rx="1"/>
</svg>
