<svg xmlns="http://www.w3.org/2000/svg" width="24" height="24" fill="none" viewBox="0 0 24 24">
  <path fill="#3FADBD" fill-rule="evenodd" d="M7.552 3a6 6 0 0 0-6 6v4.74a6 6 0 0 0 6 6h6.252l1.562 2.081a.447.447 0 0 0 .757-.068l1.026-2.051a6 6 0 0 0 5.327-5.963V9a6 6 0 0 0-6-6H7.552Z" clip-rule="evenodd"/>
  <path fill="#fff" fill-rule="evenodd" d="M8 6a3 3 0 0 0-3 3v3a3 3 0 0 0 3 3h8a3 3 0 0 0 3-3V9a3 3 0 0 0-3-3H8Zm2.133 3.93c0 .81-.626 1.465-1.4 1.465-.773 0-1.4-.656-1.4-1.465 0-.81.627-1.465 1.4-1.465.774 0 1.4.656 1.4 1.465Zm6.534 0c0 .81-.627 1.465-1.4 1.465-.774 0-1.4-.656-1.4-1.465 0-.81.626-1.465 1.4-1.465.773 0 1.4.656 1.4 1.465Z" clip-rule="evenodd"/>
</svg>
