<svg xmlns="http://www.w3.org/2000/svg" width="98" height="98" fill="none" viewBox="0 0 98 98">
  <path fill="#FFD52C" fill-rule="evenodd" d="m25.08 24.737-6.705-10.252 3.418-2.235 6.704 10.252-3.418 2.235Z" clip-rule="evenodd"/>
  <path fill="#29707A" fill-rule="evenodd" d="M28 20C16.954 20 8 28.954 8 40v25.345c0 11.045 8.954 20 20 20h28.028l5.61 7.822a2 2 0 0 0 3.305-.08l4.996-7.742H70c11.046 0 20-8.955 20-20V40c0-11.046-8.954-20-20-20H28Z" clip-rule="evenodd"/>
  <circle cx="18.375" cy="10.208" r="6.125" fill="#FFD52C"/>
  <rect width="6" height="6" x="25" y="76" fill="#FFD52C" rx="2"/>
  <rect width="6" height="6" x="33" y="76" fill="#FF8419" rx="2"/>
  <path fill="#fff" fill-rule="evenodd" d="M29 29c-5.523 0-10 4.477-10 10v20c0 5.523 4.477 10 10 10h40c5.523 0 10-4.477 10-10V39c0-5.523-4.477-10-10-10H29Zm5.5 20c3.038 0 5.5-2.91 5.5-6.5S37.538 36 34.5 36 29 38.91 29 42.5s2.462 6.5 5.5 6.5ZM69 42.5c0 3.59-2.462 6.5-5.5 6.5S58 46.09 58 42.5s2.462-6.5 5.5-6.5 5.5 2.91 5.5 6.5ZM42.773 55.075a2 2 0 1 0-3.546 1.85c1.42 2.719 4.332 5.914 8.032 6.825 1.93.476 4.032.31 6.08-.829 2.007-1.114 3.82-3.08 5.41-5.952a2 2 0 1 0-3.499-1.937c-1.357 2.452-2.702 3.753-3.853 4.393-1.109.616-2.166.692-3.182.442-2.194-.541-4.334-2.67-5.442-4.792Z" clip-rule="evenodd"/>
</svg>
