<svg xmlns="http://www.w3.org/2000/svg" width="320" height="351" fill="none" viewBox="0 0 320 351">
  <g clip-path="url(#mobile-annoyed__a)">
    <path fill="#F1F0ED" d="M317.86 100.74c-5.28-22.93-15.93-44.27-30.45-60.04-18.47-20.06-41.73-29.7-65.16-29.68-26.86.03-47.45 19.28-75.46 12.55-8.82-2.12-26.16-9.28-32.33-13.02C95.93-.67 73.29-5.19 45.42 8.36 16.12 22.61 6.41 50.87 11.84 78c.76 2.93 1.56 5.83 2.33 8.76 2.09 7.99 3.91 16.14 3.9 25.5-.01 16.86-6.25 31.69-12.17 46.68v.01c-1.56 3.96-3.11 7.95-4.51 11.98-7.03 30.18 11.98 72.43 74.63 83.13 79.08 13.51 160.99 7.14 218.36-63.77 8.28-10.24 13.78-21.38 17.63-31.51 7.24-17.69 10.45-38.04 5.85-58.05v.01Z"/>
    <path fill="#DBD9D7" d="M241.67 54.97c5.52 1.89 13.75-1.54 13.75-1.54l-2.33-6.03s-7.22 2.39-8.67 1.71c-1.45-.68-1.74-7.31-1.74-7.31l-6.46.23s-.07 11.06 5.44 12.96l.01-.02Zm-1.98 4.86c-4.78 2.55-6.76 10.39-6.76 10.39l6.33 1.31s1.26-5.03 3.73-6.17c2.47-1.14 7.25 1.39 7.25 1.39l3.51-5.43s-6.81-5.37-14.05-1.5l-.01.01Zm-9.82-15.71-4.31 4.81s3.72 3.62 3.46 6.32c-.26 2.71-4.85 5.57-4.85 5.57l2.93 5.76s8.06-3.18 8.37-11.39c.2-5.41-5.58-11.07-5.58-11.07h-.02Zm-91.07 45.5c3.26 1.12 8.13-.91 8.13-.91l-1.38-3.57s-4.27 1.41-5.13 1.01c-.86-.4-1.03-4.32-1.03-4.32l-3.82.13s-.04 6.54 3.22 7.67l.01-.01Zm-1.17 2.87c-2.83 1.51-4 6.15-4 6.15l3.75.77s.74-2.98 2.2-3.65c1.46-.67 4.29.83 4.29.83l2.07-3.21s-4.03-3.18-8.31-.89Zm-5.81-9.29-2.55 2.85s2.2 2.14 2.04 3.74c-.15 1.6-2.87 3.29-2.87 3.29l1.73 3.41s4.77-1.88 4.95-6.74c.12-3.2-3.3-6.55-3.3-6.55Zm141.28 53.19c2.44.84 6.09-.68 6.09-.68l-1.03-2.67s-3.2 1.06-3.84.75c-.64-.3-.77-3.24-.77-3.24l-2.86.1s-.03 4.9 2.41 5.74Zm-.87 2.15c-2.12 1.13-3 4.61-3 4.61l2.8.58s.55-2.23 1.65-2.73c1.09-.5 3.21.62 3.21.62l1.55-2.4s-3.02-2.38-6.23-.67l.02-.01Zm-4.35-6.96-1.91 2.13s1.65 1.6 1.53 2.8c-.12 1.2-2.15 2.46-2.15 2.46l1.3 2.56s3.57-1.41 3.7-5.05c.09-2.4-2.47-4.91-2.47-4.91v.01ZM32.52 195.57c1.94.67 4.84-.54 4.84-.54l-.82-2.12s-2.54.84-3.05.6c-.51-.24-.61-2.58-.61-2.58l-2.27.08s-.02 3.89 1.91 4.56Zm-.69 1.71c-1.68.9-2.38 3.66-2.38 3.66l2.23.46s.44-1.77 1.31-2.17c.87-.4 2.55.49 2.55.49l1.23-1.91s-2.39-1.89-4.94-.53Zm-3.46-5.53-1.52 1.69s1.31 1.27 1.22 2.23c-.09.95-1.71 1.96-1.71 1.96l1.03 2.03s2.84-1.12 2.94-4.01c.07-1.9-1.97-3.9-1.97-3.9h.01ZM54.88 38c5.43 1.87 13.53-1.52 13.53-1.52l-2.29-5.94s-7.11 2.35-8.53 1.68c-1.42-.67-1.71-7.2-1.71-7.2l-6.36.22S49.45 36.13 54.88 38Zm-1.94 4.78c-4.7 2.51-6.66 10.24-6.66 10.24l6.23 1.29s1.24-4.95 3.67-6.07c2.43-1.12 7.14 1.37 7.14 1.37l3.45-5.35s-6.7-5.29-13.83-1.48Zm-9.67-15.46-4.25 4.74s3.66 3.56 3.4 6.23c-.26 2.66-4.78 5.48-4.78 5.48l2.88 5.67s7.94-3.13 8.24-11.21c.2-5.32-5.5-10.9-5.5-10.9l.01-.01Z"/>
    <path fill="#B72C25" d="M196.91 137.84c.13.05.28.11.39.16l-.39-.16Zm-106.14-3.17-.26.03.75-.08-.49.05Zm-12.98 3.38h-.02l.08-.03-.06.02v.01Zm-12.95 8.72c-.32.32-.63.62-.93.93.66-.64 1.47-1.42 2.1-2.03-.35.33-.82.76-1.17 1.1Z"/>
    <path fill="#B72C25" d="M238.4 184.37v-.15c-.02-.95-.08-1.48-.2-2.7v.05c0-.07-.01-.13-.02-.2-.03-.32-.07-.64-.11-.95v-.01l-.09-.64c0-.06-.02-.13-.03-.19-.22-1.52-.6-3.36-1.05-4.95-.01-.05-.03-.1-.04-.16-.09-.32-.18-.63-.28-.92-2.76-9.25-8.26-16.15-14.13-21.24-5.02-4.53-10.63-7.89-15.86-10.18-.23-.11-.46-.22-.68-.33a.714.714 0 0 1-.15-.08c-.06-.03-.13-.06-.19-.09-.63-.3-1.18-.55-1.64-.76l-3.28-1.48c-.91-.41-1.79-.79-2.64-1.14-.03-.01-.05-.02-.08-.03-.37-.15-.73-.3-1.09-.44.01 0 .02 0 .03.01.01 0 .03.01.05.02-.02 0-.05-.02-.07-.03a58.735 58.735 0 0 0-1.41-.54.689.689 0 0 1-.08-.03c-.16-.06-.31-.11-.47-.17 0 0-.02 0-.03-.01h-.03c-.63-.24-1.25-.46-1.83-.67-.08-.03-.16-.05-.24-.08-.7-.24-1.36-.45-1.98-.64-.15-.05-.3-.09-.45-.14-.33-.1-.65-.19-.96-.28l-.25-.07c-.18-.05-.38-.11-.58-.16l-.45-.12c-.4-.11-.8-.21-1.15-.3l-.6-.14-.14-.03c-.44-.11-.83-.2-1.17-.28-.71-.16-1.55-.33-2.37-.48-.03 0-.07-.01-.1-.02l-.18-.03c-1.24-.22-2.4-.39-2.93-.45-.09 0-.19-.02-.27-.03-.61-.07-1.15-.13-1.67-.17l.52.04c-1.55-.14-2.2-.19-3.27-.21-.06 0-.13 0-.19-.01-.67-.04-1.55-.01-2.25 0h-.08.94c-.3 0-.69 0-.99.01l-7.79.17-7.79.17-7.79.17-7.79.17-7.79.17-7.79.17-7.79.17-7.79.17-7.79.17-7.79.17c-.43.02-.92.04-1.41.07h-.14c-.84.05-1.71.12-2.49.2l.26-.03-.87.09c-1.06.12-2.46.34-3.49.58-.8.18-1.49.35-2.12.51l.42-.11-.49.13s-.03.01-.05.02c-1.77.45-3.05.87-4.87 1.62-.49.2-.99.41-1.49.63.08-.04.15-.07.22-.11l-.83.38c-.76.34-1.7.83-2.6 1.33-.03.02-.06.03-.09.05h-.01c.06-.03.13-.07.18-.1-.1.05-.23.13-.33.18-.24.13-.5.28-.76.44-.96.56-1.78 1.07-2.11 1.3-.31.22-.68.47-1.05.73.11-.08.22-.16.32-.23-.12.09-.28.2-.41.28l-.13.1c-.5.35-1 .7-1.4 1.04 0 0-.02.01-.02.02-.77.6-1.74 1.45-2.48 2.07l-1.2 1.16c-.33.31-.64.61-.93.9-.07.07-.15.14-.21.21l-.01.01c-.24.24-.49.51-.75.79-.99 1.06-2.06 2.36-3.15 3.84-.1.14-.21.27-.3.4-.49.64-1.03 1.5-1.51 2.25-.07.11-.14.21-.2.31-.04.06-.08.13-.12.19-.01.02-.99 1.53-2.08 3.74 0 0 0 .01-.01.02-.32.66-.66 1.37-.98 2.12-.16.38-.34.83-.52 1.28 0 .02-.02.04-.03.07-.24.61-.48 1.24-.67 1.78-.07.2-.14.41-.21.63-.29.87-.54 1.7-.75 2.5l-.03.1c-.17.55-.31 1.22-.45 1.87-.04.19-.08.38-.12.56-.06.31-.12.61-.18.88-.23 1.01-.39 2.39-.5 3.42-.11 1.04-.17 2.43-.24 3.47l-.08 2.68-.08 2.68-.08 2.68-.08 2.68-.08 2.68-.08 2.68-.08 2.68-.08 2.68-.08 2.68-.08 2.68c-.02 1.36.02 3.17.1 4.52.06.99.23 2.29.36 3.27.26 1.93.84 4.47 1.44 6.33.04.12.08.25.12.37.43 1.39.93 2.72 1.48 4.01.04.1.09.21.13.31 6.36 14.53 19.58 22.34 27.41 26.21l.24.12c.53.26 1.04.5 1.51.73.14.07.27.13.41.19.47.22.91.43 1.31.61l3.28 1.48c.91.4 2.06.9 3.37 1.44.07.03.15.06.21.09l.21.08c1.12.45 2.33.91 3.63 1.35l1.84.61c.62.2 1.46.45 2.09.64l.37.1c.43.12.83.23 1.21.33l.29.08c.21.05.44.11.69.17.58.14 1.1.27 1.59.38.5.12 1.16.25 1.9.4h.05s.04.02.06.02c.66.12 1.39.25 2.16.36.16.03.32.05.47.08l.33.04a49.769 49.769 0 0 0 2.91.32c.84.07 1.46.11 2.14.13.16 0 .33.02.48.02.74.03 1.73 0 2.47.01l2.65-.06c.44 0 .86-.02 1.24-.03l3.89-.08 7.79-.17 7.79-.17 7.79-.17 7.79-.17 7.79-.17 7.79-.17 7.79-.17c1.17-.03 2.53-.05 3.89-.08l3.89-.08c.33 0 .67-.01 1.03-.02l1.77-.04c.36 0 .73-.02 1.09-.02l3.89-.08c.43-.02.91-.04 1.41-.07h.14c.41-.03.82-.05 1.24-.09.38-.02.75-.05 1.08-.08.12-.01.24-.03.36-.05h.09c.07 0 .15-.01.22-.02h.05s.05-.01.07-.01c1.06-.12 2.46-.34 3.49-.58 3.17-.73 4.66-1.15 7.12-2.16.47-.19.93-.38 1.4-.59.03-.01.06-.03.1-.04.2-.08.39-.17.6-.26.77-.34 1.7-.83 2.61-1.33a.3.3 0 0 1 .08-.04l.16-.08c.24-.13.5-.29.76-.45.96-.56 1.78-1.07 2.1-1.3.19-.14.41-.28.62-.44.09-.06.17-.12.26-.18.62-.43 1.28-.88 1.79-1.3 0 0 .02-.01.02-.02 0 0 .02-.01.02-.02 2.25-1.71 4.18-3.55 5.83-5.4.05-.06.11-.12.16-.18.24-.27.48-.55.71-.82.23-.27.47-.56.7-.85.07-.09.14-.18.22-.27.36-.46.72-.93 1.09-1.43.1-.14.21-.28.31-.4.49-.64 1.03-1.5 1.51-2.25.07-.1.13-.2.2-.31.04-.06.08-.13.12-.19.55-.83 1.18-2 1.64-2.88l.28-.54v-.03c.12-.22.23-.43.33-.65.3-.61.59-1.25.82-1.79.06-.14.12-.29.18-.44.02-.04.04-.09.06-.12l-.05.12c.11-.27.22-.55.34-.84 0-.02.02-.04.02-.06.24-.61.48-1.24.67-1.78.07-.19.14-.41.21-.63.22-.66.41-1.3.59-1.92l.06-.2.03-.11c.02-.09.05-.18.07-.27 0-.03.02-.07.03-.1.17-.55.31-1.22.45-1.87l.12-.57v-.04l.08-.34c-.02.09-.05.18-.07.28.06-.27.11-.53.16-.77.08-.35.14-.74.21-1.15.1-.6.17-1.08.24-1.78.02-.17.04-.34.06-.49.11-1.03.17-2.42.24-3.46l.08-2.68.08-2.68.08-2.68.08-2.68.08-2.68.08-2.68.08-2.68.08-2.68.08-2.68.08-2.68v-.32.31c.04-1.42.05-2.12-.02-3.17l-.02-.09Zm-58.76-49.93c-.34-.12-.67-.24-.99-.35.33.11.66.22.99.35Zm-1.45-.5c-.31-.1-.62-.19-.92-.28.3.09.6.18.92.28Zm-77.71 1.73c-.03 0-.05-.02-.08-.03.03 0 .05.02.08.02v.01Zm-4.99-1.15h-.04.04Zm22.93 124.29v-.01.01Zm.01-.03v-.02.02Zm119.69-71h.02-.02Zm0 0h-.01.01Zm-.06 0h.04-.04Zm-.17-.09v.11h.07-.07l-.8 26.8c-.02.67-.06 1.34-.11 2.01-.48 4.63-1.41 8.75-2.86 12.56-.15.38-.3.77-.46 1.14-.07.17-.14.35-.21.52-.23.53-.48 1.06-.73 1.58-.04.07-.07.15-.11.23-.21.43-.43.84-.65 1.26-.14.25-.27.51-.41.76-.09.17-.19.33-.28.49-1.86 3.2-4.19 6.25-7.06 9.31-3.12 3.15-6.68 5.82-10.57 7.85-.17.09-.34.17-.51.26-.37.19-.75.38-1.13.55-.2.09-.4.18-.61.27a39.14 39.14 0 0 1-12.39 3.27c-.89-.06-2.04-.34-2.62.16h-.05l-77.85 1.69v.03-.03h-.9c-4.69-.17-8.72-.94-12.16-2.08-5.47-1.94-10.35-5.15-14.32-9.31-3.03-3.34-5.28-6.74-6.93-10.06-2.72-5.68-4.18-12.17-3.97-19.07v-.19l.02-.8c.02-.56.04-1.33.07-2.27l.11-3.54.06-2.02.08-2.57.06-2 .06-1.93c.03-.93.05-1.84.08-2.72l.06-1.92c.04-1.49.08-2.83.12-3.92l.06-1.91c.01-.37.02-.64.02-.8v-.19c.68-22.74 19.04-41.78 40.76-42.24h.35l.91-.02h.23l.76-.02c.2 0 .41 0 .63-.01l1.15-.02c.18 0 .37 0 .56-.01l.79-.02c.41 0 .84-.02 1.29-.03l1.45-.03c.16 0 .32 0 .48-.01l5.14-.11c.77-.02 1.56-.03 2.38-.05h.6c.73-.03 1.47-.04 2.22-.06l1.56-.03c1.12-.02 2.27-.05 3.45-.07l1.3-.03c.82-.02 1.64-.04 2.48-.05l2.33-.05 2.91-.06 1.58-.03c.62-.01 1.25-.03 1.88-.04l2.77-.06c.73-.02 1.47-.03 2.2-.05l2.1-.05c.46 0 .92-.02 1.37-.03l3.06-.07c.73-.02 1.45-.03 2.17-.05l2.61-.06c.4 0 .8-.02 1.2-.03l3.53-.08 1.48-.03 2.36-.05h.29l2.83-.06c.87-.02 1.7-.04 2.5-.05h.23c.76-.02 1.48-.04 2.17-.05h.49c.49-.02.97-.03 1.43-.04l1.31-.03c.27 0 .54-.01.79-.02h.56c.41-.02.79-.03 1.15-.04h.63c.27-.02.53-.03.76-.03h.23c.39-.01.69-.02.91-.02h.35c20.87-.47 37.61 16.38 38.27 37.88-.13.88-.44 1.96.01 2.53l-.06-.04Zm-63.84-54.77h-.03.03Zm.54.09h.03-.03Zm1.26.27c.02 0 .04 0 .05.01-.02 0-.04 0-.05-.01Zm-80.6 1.21h-.02.02Zm8.6 2.44c.52.22 1.05.44 1.59.68-.54-.24-1.07-.47-1.59-.68Z"/>
    <path fill="#FF462D" d="M199.6 147.27c21.72-.48 38.97 17.79 38.28 40.53-.27 8.93-.53 17.86-.8 26.8-.67 22.74-19.04 41.78-40.76 42.24-25.95.56-51.9 1.13-77.85 1.69-21.71.48-38.96-17.79-38.28-40.53.27-8.93.53-17.86.8-26.8.67-22.74 19.04-41.78 40.75-42.24 25.95-.56 51.9-1.13 77.85-1.69h.01Z"/>
    <path fill="#CC5200" d="m119.461 233.378-7.479.114a4.27 4.27 0 0 0-4.205 4.334l.029 1.93a4.27 4.27 0 0 0 4.335 4.204l7.479-.113a4.27 4.27 0 0 0 4.204-4.335l-.029-1.929a4.27 4.27 0 0 0-4.334-4.205Z"/>
    <path fill="#FF8419" d="m121.455 234.347-7.479.114a4.27 4.27 0 0 0-4.205 4.334l.03 1.93a4.27 4.27 0 0 0 4.334 4.205l7.479-.114a4.27 4.27 0 0 0 4.205-4.334l-.029-1.93a4.271 4.271 0 0 0-4.335-4.205Z"/>
    <path fill="#B77100" d="m139.164 233.079-7.479.113a4.27 4.27 0 0 0-4.205 4.335l.029 1.93a4.27 4.27 0 0 0 4.335 4.204l7.479-.113a4.27 4.27 0 0 0 4.204-4.335l-.029-1.929a4.27 4.27 0 0 0-4.334-4.205Z"/>
    <path fill="#FFBC31" d="m141.158 234.048-7.479.114a4.27 4.27 0 0 0-4.204 4.334l.029 1.93a4.27 4.27 0 0 0 4.334 4.205l7.479-.114a4.27 4.27 0 0 0 4.205-4.334l-.029-1.93a4.271 4.271 0 0 0-4.335-4.205Z"/>
    <path fill="#fff" d="M122.93 221.24c-6.37-.23-13.31-.76-17.94-4.81-5.48-4.79-5.74-12.67-5.63-19.67.09-6.12.2-12.24.29-18.36.05-2.89.14-5.96 1.83-8.4 2.95-4.27 9.29-5.09 14.74-4.97 34.11.79 60.02.78 95.87-1.8 6.13-.44 11.5 4.28 12.12 10.67.89 9.09 1.01 21.44-1.63 32.23-1.63 6.66-7.07 11.5-13.59 12.29-28.02 3.39-58.29 3.83-86.06 2.82Z"/>
    <path fill="#E3E3E3" d="M203.51 346.89c0 1.87-26.53 3.39-59.25 3.39s-59.25-1.52-59.25-3.39 26.53-3.39 59.25-3.39 59.25 1.52 59.25 3.39Z"/>
    <path fill="#FFBC31" d="M81.91 114.22c.56 3.61-1.92 6.99-5.53 7.55-3.61.56-6.99-1.92-7.55-5.53-.56-3.61 1.92-6.99 5.53-7.55 3.61-.56 6.99 1.92 7.55 5.53Zm9.82-1.39c-.92.22-1.85-.34-2.09-1.26a14.82 14.82 0 0 0-5.55-8.21 1.74 1.74 0 0 1-.37-2.43 1.74 1.74 0 0 1 2.43-.37c3.37 2.48 5.81 6.09 6.85 10.14.24.93-.32 1.88-1.25 2.12h-.03l.01.01Zm-29.94-4.61a1.739 1.739 0 0 1-1.89-2.61c2.73-4.37 7.19-7.42 12.27-8.3.94-.17 1.85.46 2.02 1.4.17.95-.44 1.89-1.41 2.02-4.09.75-7.72 3.18-9.92 6.72-.25.4-.64.67-1.07.77Zm3.58 21.47c-.51.12-1.07 0-1.51-.34a18.236 18.236 0 0 1-6.48-11.25c-.15-.95.52-1.81 1.44-1.99.95-.15 1.84.5 1.99 1.44a14.73 14.73 0 0 0 5.24 9.1c.74.61.86 1.7.25 2.45-.25.3-.58.51-.94.59h.01Z"/>
    <path fill="#FFBC31" d="M93.34 145.59a1.74 1.74 0 0 1-1.89-.78l-17.56-28.67c-.5-.82-.24-1.89.57-2.39.82-.51 1.89-.25 2.39.57l17.56 28.67a1.745 1.745 0 0 1-1.07 2.6Z"/>
    <path fill="#FF8419" d="M58.55 206.71c1.09 5.41 5.05 9.18 8.84 8.42 3.79-.76 5.98-5.77 4.89-11.19-1.09-5.41-5.05-9.18-8.84-8.42-3.79.76-5.98 5.77-4.89 11.19Z"/>
    <path fill="#CC5239" d="M131.29 242.3c-4.79-.55-9.66-1.37-14.56-2.48-25.2-5.71-46.83-18.26-55.11-31.98a3.986 3.986 0 0 1 1.35-5.47 3.986 3.986 0 0 1 5.47 1.35c7.22 11.95 26.87 23.07 50.06 28.33 27.23 6.16 53 3.04 70.7-8.6a3.97 3.97 0 0 1 5.51 1.14 3.97 3.97 0 0 1-1.14 5.51c-16.24 10.68-38.38 14.92-62.27 12.2h-.01Z"/>
    <path fill="#F7D654" d="M262.13 174.31H223.2a7.04 7.04 0 0 0-6.05 3.43l-45.1 75.56c-.51.85-.48 1.91.06 2.73l.62.94a5.124 5.124 0 0 0 4.58 2.28l36.53-2.3a7.928 7.928 0 0 0 6.22-3.69l45.39-71.98c.85-1.35.83-3.07-.05-4.4l-.82-1.24a2.962 2.962 0 0 0-2.45-1.32v-.01Z"/>
    <path fill="#FCA203" d="m265.04 176.33-.46-.7a2.962 2.962 0 0 0-2.45-1.32H223.2a7.04 7.04 0 0 0-6.05 3.43l-45.1 75.56c-.51.85-.48 1.91.06 2.73 1.04 1.57 3.37 1.52 4.34-.1l43.98-73.68a6.566 6.566 0 0 1 5.64-3.2h37.51c1.4 0 2.23-1.56 1.46-2.72Z"/>
    <path fill="#fff" d="M241.02 193.76c-1.63 2.72-4.59 3.94-6.59 2.73-2.01-1.21-2.31-4.39-.68-7.11 1.63-2.72 4.59-3.94 6.59-2.73 2.01 1.21 2.31 4.39.68 7.11Zm-7.95 11.13c-1.22 2.03-3.42 2.94-4.92 2.04-1.5-.9-1.72-3.28-.5-5.3 1.22-2.03 3.42-2.94 4.92-2.04 1.5.9 1.72 3.28.5 5.3Zm-6.67 9.5c-.91 1.51-2.54 2.18-3.65 1.51-1.11-.67-1.28-2.43-.37-3.94.91-1.51 2.54-2.18 3.65-1.51 1.11.67 1.28 2.43.37 3.94Z"/>
    <path fill="#CC5239" d="M212.14 222.39c-.35-3.15-8.2-.79-11.31-.84-3.11-.05-5.68-.91-5.93-3.94-.2-2.51 3.27-8.07 3.27-8.07-2.39-.24-5.39-.45-8.65-.25-8.05.49-10.27 6.63-11.28 13.43-.72 4.83 2.18 11.28 8.55 13.78 6.36 2.5 11.27 2.58 14.71 1.67 3.4-.9 4.65-3.31 3.9-5.27.95-.31 1.82-.7 2.46-1.23 2.91-2.37 1.79-4.26.81-4.99h-.02c2.23-1.19 3.67-2.75 3.5-4.31h-.01v.02Zm33.48-1.4c-.43-1.62-1.55-3.3-2.58-4.21l-4.71 7.61c-.95 1.4-3.39 1.1-5.14-.53-1.75-1.63-3.88-6.54-6.71-5.39-2.55 1.03-1.61 4.32-1.05 6.48 0 0-2.88-.73-3.23 2.74-.26 2.54 1.55 3.31 1.91 4.06-2.07.19-2.48 3.12-.72 4.65 2.21 1.93 4.73 3.12 9.82 2.87 10.28-.5 14-12.26 12.4-18.28h.01Z"/>
    <path fill="#FF462D" d="M193.14 186.05a6.98 6.98 0 0 0 6.98 6.98c3.85 0 6.99-3.13 6.99-6.98h-13.97Zm-78.36 0a6.98 6.98 0 0 0 6.98 6.98c3.85 0 6.99-3.13 6.99-6.98h-13.97Zm51.06 29.13c-.57 0-1.05-.45-1.08-1.03-.04-.6.42-1.12 1.02-1.15.29-.02 2.87-.26 2.87-2.47 0-1.72-3.01-2.49-3.04-2.5-.53-.12-.89-.61-.84-1.15.05-.54.48-.96 1.02-1 .57-.04 2.86-.41 2.86-1.46a.54.54 0 0 0-.18-.44c-.54-.51-1.99-.63-2.56-.59a1.085 1.085 0 1 1-.11-2.17c.28-.02 2.82-.1 4.18 1.19.56.53.86 1.23.86 2.02 0 1.35-.81 2.24-1.84 2.8.99.72 1.84 1.78 1.84 3.3 0 3.45-3.21 4.55-4.91 4.65h-.09Z"/>
    <path fill="#F7D754" d="M204.5 157.37c-3.76 2.34-10.42 1.19-10.42 1.19l.69-4.85s5.74.54 6.7-.21c.95-.75.05-5.7.05-5.7l4.81-.93s1.93 8.17-1.83 10.5Zm2.28 3.25c3.96 1.07 6.76 6.54 6.76 6.54l-4.46 2.04s-1.78-3.51-3.8-3.93c-2.02-.42-5.13 2.26-5.13 2.26l-3.51-3.42s4.12-5.12 10.13-3.49h.01Zm4.6-13.27 4.01 2.82s-2.14 3.3-1.49 5.26c.65 1.96 4.53 3.29 4.53 3.29l-1.19 4.76s-6.5-.99-8.12-7c-1.06-3.97 2.25-9.13 2.25-9.13h.01Z"/>
  </g>
  <defs>
    <clipPath id="mobile-annoyed__a">
      <path fill="#fff" d="M0 0h320v350.28H0z"/>
    </clipPath>
  </defs>
</svg>
