<svg xmlns="http://www.w3.org/2000/svg" width="320" height="351" fill="none" viewBox="0 0 320 351">
  <g clip-path="url(#mobile-angry-purple__a)">
    <path fill="#F1F0ED" d="M317.86 100.74c-5.28-22.93-15.93-44.27-30.45-60.04-18.47-20.06-41.73-29.7-65.16-29.68-26.86.03-47.45 19.28-75.46 12.55-8.82-2.12-26.16-9.28-32.33-13.02C95.93-.67 73.29-5.19 45.42 8.36 16.12 22.61 6.41 50.87 11.84 78c.76 2.93 1.56 5.83 2.33 8.76 2.09 7.99 3.91 16.14 3.9 25.5-.01 16.86-6.25 31.69-12.17 46.68v.01c-1.56 3.96-3.11 7.95-4.51 11.98-7.03 30.18 11.98 72.43 74.63 83.13 79.08 13.51 160.99 7.14 218.36-63.77 8.28-10.24 13.78-21.38 17.63-31.51 7.24-17.69 10.45-38.04 5.85-58.05v.01Z"/>
    <path fill="#86118C" d="M260.56 209.6c-7.47 3.12-15.94 5.43-25.34 6.9a4.09 4.09 0 0 1-4.67-3.41c-.35-2.23 1.19-4.32 3.41-4.67 19.3-3.01 52.36-13.12 56.93-47.05a4.091 4.091 0 1 1 8.11 1.09c-2.92 21.71-16.31 37.91-38.43 47.13l-.01.01Z"/>
    <path fill="#86118C" d="M300.26 166.12c1.55-1.43 2.28-3.56 3.38-5.35 3.4-5.58 4.94-12.54 2.83-18.7 0-.02-.01-.04-.02-.07-2.13-6.13-8.39-11-14.95-10.42-2.47.22-5.1 1.39-6.04 3.66-.57 1.37-.43 2.9-.54 4.38-.44 6.19-4.92 13.27-.7 17.87 1.46 1.59 3.71 2.4 4.87 4.21.57.89.8 1.91.86 2.97 0 0 3.6 7.61 10.29 1.45h.02Z"/>
    <path fill="#F7D754" d="M242.47 87.62c.03-.16.06-.33.08-.49.11-1.26-.41-2.39-1.21-3.27-.8-.89-1.87-1.55-2.98-1.93-.15-.05-.3-.1-.45-.14-.24-1.09-.56-2.15-1-3.16-.89-2.08-2.24-3.92-4.2-5.16a9.46 9.46 0 0 0-3.03-1.22c-3.33-.7-7 .29-9.62 2.5-2.21 1.87-3.67 4.44-4.43 7.21-.43.62-.69 1.3-.84 2-.14.64-.18 1.3-.19 1.94-.67.17-1.32.49-1.86.93-.64.52-1.13 1.23-1.31 2.06-.04.17-.06.36-.07.54-.02.63.14 1.22.41 1.74-.58.66-1.05 1.42-1.32 2.31-.04.15-.08.29-.11.44-.36 1.7.14 3.38 1.07 4.8s2.31 2.61 3.81 3.37c1.07.54 2.21.93 3.37 1.18.85.18 1.72.28 2.59.32.07 2.1.62 4.04 1.04 5.83.43 1.81.72 3.47.4 4.98-.18.85-.55 1.67-1.22 2.49-.93 1.14-2.28 2.13-3.54 3.32-1.25 1.18-2.41 2.61-2.84 4.64-.28 1.32-.25 2.87.23 4.75l1-.25c-.44-1.76-.46-3.14-.22-4.28.37-1.75 1.35-2.97 2.55-4.11 1.19-1.13 2.57-2.13 3.63-3.41.77-.94 1.22-1.93 1.43-2.93.38-1.79.02-3.6-.41-5.43-.43-1.81-.94-3.67-1.01-5.59 3.36-.09 6.75-1.17 9.62-2.94 2.59-1.59 4.91-3.77 6.29-6.52 1.32-1.3 2.47-2.78 3.41-4.36.38-.64.76-1.35.93-2.16Zm-10.7 7.9c-.14.68-.51 1.35-1 1.91-.38.11-.76.22-1.15.29-.5.1-1.01.16-1.52.2.63-.37 1.2-.83 1.69-1.36.33-.15.66-.31.97-.49.37-.21.71-.46 1.04-.72 0 .05 0 .11-.02.16l-.01.01Zm-.16-1.8c.05.1.07.2.1.3-.2.21-.42.41-.66.6.06-.13.12-.26.16-.4.1-.27.17-.54.23-.8.07.1.13.2.17.29v.01Zm-1.14-.64c-.05.25-.13.52-.23.8-.24.69-.61 1.3-1.07 1.83-.81.34-1.68.56-2.55.68.99-.94 1.63-2.26 1.92-3.58.11-.51.16-1.03.15-1.53.39.22.77.44 1.11.66.28.18.53.37.76.55-.02.18-.04.37-.08.57l-.01.02Zm-3.53-2.68c.23.11.45.22.67.33.08.57.05 1.22-.09 1.88-.28 1.34-1.01 2.66-2.02 3.38-.3.22-.63.38-.98.5-.53-.02-1.05-.06-1.57-.13.65-2.38 1.67-4.02 2.74-5.04.42-.4.84-.7 1.25-.92Zm-9.43.89c-.09.41-.13.83-.13 1.25-.55-1.05-.91-2.2-1.12-3.39.95-.52 1.91-1.02 2.88-1.51-.73 1.11-1.36 2.35-1.63 3.65Zm3.64 6.25c.14.08.29.14.44.21-.01.07-.02.14-.04.22-.17-.04-.33-.09-.5-.14-.32-.19-.6-.41-.85-.66.3.15.62.27.95.37Zm4.53 1.37c.72.08 1.44.1 2.16.06-.86.15-1.76.16-2.67.05.17-.03.34-.08.51-.12v.01Zm-.04-1.05c-.33-.04-.66-.09-.99-.16-.1-.02-.19-.05-.29-.08.11-.03.22-.06.32-.09h.98c.4-.02.81-.05 1.21-.12-.02 0-.03.02-.06.03-.38.17-.77.31-1.18.42h.01Zm4.73-6.77c-.56-.37-1.19-.73-1.85-1.08 0-.02-.01-.05-.02-.08.2 0 .39 0 .56.04.55.12.97.42 1.24.92.03.06.05.13.08.2h-.01Zm-3.43-1.83c-.4-.18-.8-.36-1.2-.52.15 0 .29.01.42.04.32.07.57.21.79.42.01.01.02.03.04.04-.02 0-.03.01-.05.02Zm-1.13.63c-.28.2-.56.42-.84.68-1.24 1.19-2.35 3.05-3.04 5.63-.1-.02-.21-.03-.31-.05-.46-.1-.9-.22-1.35-.35-.34-.25-.67-.51-.98-.8 0-.32 0-.63.07-.96.23-1.09.89-2.18 1.76-2.91 1.14-.97 2.12-1.59 2.93-1.96.58.23 1.17.47 1.75.73l.01-.01Zm-5.35.44c-.93.79-1.64 1.88-1.99 3.05-.1-.61-.08-1.24.06-1.88.27-1.27.96-2.57 1.77-3.73.69.24 1.54.54 2.47.88-.7.41-1.47.96-2.31 1.67v.01Zm-4.34-2.28-.03-.35c.07-.31.16-.62.26-.92.39.02.78.08 1.17.16.15.03.31.08.46.12-.63.32-1.25.65-1.87.99h.01Zm7.18 11.7.29.06c2.08.44 4.38.56 6.39-.47.5-.26.96-.61 1.37-1.01 1-.32 1.96-.74 2.87-1.25-1.52 1.82-3.57 3.17-5.84 3.54-1.06.17-2.14.13-3.19-.09-.94-.2-1.87-.55-2.73-1.02.28.08.57.16.85.23l-.01.01Zm9.13-6.7c-.21-.36-.49-.69-.84-1.01-.01-.61-.14-1.16-.38-1.63-.4-.76-1.11-1.27-1.93-1.44-.38-.08-.79-.08-1.2-.03a2.625 2.625 0 0 0-1.69-1.19c-.68-.14-1.45-.04-2.32.29-1.15-.45-2.23-.83-3.1-1.13.07-.08.13-.16.2-.25 1.94-.91 3.9-1.75 5.9-2.51.51-.2 1.03-.38 1.55-.56 1.56 1.26 2.84 2.86 3.66 4.68.46 1.02.76 2.09.68 3.11-.01.17-.04.34-.08.51-.09.41-.24.79-.44 1.15l-.01.01Zm-5.74-9.86h-.01c-.11-.03-.22-.07-.33-.09-1.32-.28-2.62.16-3.74.88-.77.5-1.47 1.14-2.08 1.83-.39.18-.77.37-1.16.56-.53-.17-1.07-.33-1.62-.45-.33-.07-.66-.12-1-.15a9.439 9.439 0 0 1 1.9-2.76c.97-.96 2.12-1.7 3.36-2.23.37.04.73.1 1.09.17 1.59.34 3.12 1 4.48 1.9l-.9.33.01.01Zm-2.64-3.06c1.93-.45 3.99-.46 5.96-.04.88.19 1.75.46 2.57.81.36.15.71.33 1.05.51-1.64.13-3.26.53-4.83 1.04a14.103 14.103 0 0 0-4.75-2.32Zm-6.13 2.15c-.7.7-1.28 1.49-1.75 2.35.06-.5.13-1.01.24-1.5.05-.25.12-.49.18-.73.54-.7 1.31-1.15 2.22-1.41.32-.09.65-.15.99-.2-.67.43-1.29.92-1.87 1.49h-.01Zm-3.14 7.74c0 1.13.15 2.25.5 3.31-.36-.26-.71-.53-1.05-.82-.42-.36-.82-.76-1.13-1.19.07-.06.13-.13.2-.2.45-.4.96-.76 1.49-1.1h-.01Zm10.2 11.54c.62.13 1.25.2 1.89.21-1.52.47-3.09.73-4.64.78 0-.68.01-1.33.05-1.95.86.43 1.76.76 2.7.96Zm12.66-8.85c.13-.44.25-.88.34-1.33.18-.83.28-1.66.35-2.51.01.75-.05 1.5-.21 2.24-.12.55-.28 1.08-.48 1.6Zm-.3-7.41c.12 1.97.03 3.97-.37 5.87-.27 1.29-.69 2.55-1.29 3.72-1.02.78-2.11 1.43-3.26 1.94.17-.35.29-.72.38-1.1.1-.47.11-.95.05-1.43.5-.64.87-1.36 1.04-2.19.04-.21.08-.42.09-.63.11-1.29-.27-2.52-.76-3.63-.8-1.77-1.99-3.35-3.44-4.63 1.8-.53 3.63-.89 5.39-.83a8.39 8.39 0 0 1 1.63 1.63c.18.25.35.51.51.78.01.16.04.33.04.49l-.01.01Zm-.33-2.67s0 .05.01.07c-.03-.03-.05-.06-.08-.09h.04s.02 0 .03.01v.01Zm-16.29-7.09c2.37-2.01 5.76-2.92 8.74-2.28.95.2 1.87.56 2.7 1.08 1.74 1.1 2.97 2.75 3.8 4.69.34.79.6 1.64.81 2.5-.41-.07-.81-.11-1.22-.14-.8-.58-1.67-1.05-2.56-1.44-.89-.38-1.82-.67-2.77-.88-2.78-.59-5.74-.39-8.35.65h-.01c-1.09-.1-2.25-.05-3.33.26-.46.13-.9.33-1.32.56.78-1.93 1.95-3.68 3.52-5.01l-.01.01Zm-8.31 13.92c0-.12.02-.24.04-.36.12-.55.46-1.07.96-1.47.36-.29.78-.52 1.23-.66.03.61.09 1.22.16 1.83-.76.46-1.52.96-2.19 1.55-.01.01-.03.02-.04.03-.11-.3-.17-.6-.16-.91v-.01Zm3.29 11.71c-1.34-.68-2.6-1.76-3.41-3.02-.82-1.26-1.21-2.65-.92-4.02.02-.12.05-.24.09-.36.18-.62.51-1.17.91-1.68.35.45.76.85 1.17 1.2.78.67 1.61 1.26 2.49 1.77.4.7.89 1.34 1.48 1.92.37.36.77.66 1.19.93.75.82 1.61 1.54 2.56 2.13-.07.78-.09 1.63-.09 2.5-.8-.03-1.6-.13-2.37-.29-1.08-.23-2.12-.59-3.11-1.09l.01.01Zm24.95-11.93c-.47.79-.99 1.55-1.56 2.27.01-.06.03-.12.05-.18.48-2.27.26-4.71-.81-6.77-.05-.54-.11-1.08-.2-1.62.91.33 1.82.89 2.45 1.6.66.74 1.02 1.59.94 2.49 0 .12-.03.24-.05.37-.13.61-.45 1.23-.81 1.84h-.01Z"/>
    <path fill="#DBD9D7" d="M60.97 59.84c3.36-.09 6.75-1.17 9.62-2.94 2.59-1.59 4.91-3.77 6.29-6.52 1.32-1.3 2.47-2.78 3.41-4.36.38-.64.76-1.35.93-2.16.03-.16.06-.33.08-.49.11-1.26-.41-2.39-1.21-3.27-.8-.89-1.87-1.55-2.98-1.93-.15-.05-.3-.1-.45-.14-.24-1.09-.56-2.15-1-3.16-.89-2.08-2.24-3.92-4.2-5.16a9.46 9.46 0 0 0-3.03-1.22c-3.33-.7-7 .29-9.63 2.5-2.21 1.87-3.67 4.44-4.42 7.21-.43.62-.69 1.3-.84 2-.14.64-.18 1.3-.19 1.95-.67.17-1.31.49-1.86.93-.64.52-1.13 1.23-1.31 2.06-.04.17-.06.36-.07.54-.02.63.14 1.22.41 1.74-.58.66-1.05 1.42-1.31 2.31-.04.15-.08.29-.11.44-.36 1.7.14 3.38 1.07 4.8s2.31 2.61 3.81 3.37c1.08.54 2.21.93 3.37 1.18.81.17 1.64.27 2.47.31m10.7-8.06c-.14.68-.51 1.35-1 1.91-.38.11-.76.22-1.15.29-.5.1-1.01.16-1.52.2.63-.37 1.2-.83 1.69-1.36.33-.15.66-.31.97-.49.37-.21.71-.46 1.04-.72-.01.05-.01.11-.02.16l-.01.01Zm-.16-1.79c.04.1.07.2.1.3-.2.21-.42.41-.66.6.05-.13.12-.26.16-.4.1-.27.16-.54.23-.8.07.1.13.2.17.29v.01Zm-1.15-.64c-.05.25-.13.52-.23.8-.24.69-.61 1.3-1.08 1.83-.81.34-1.68.56-2.55.68.99-.94 1.63-2.26 1.91-3.58.11-.51.16-1.03.15-1.53.39.22.77.44 1.11.66.28.18.53.37.76.55-.02.18-.04.37-.08.57l.01.02Zm-3.53-2.69c.23.11.45.22.67.33.08.57.05 1.22-.09 1.88-.28 1.34-1.01 2.66-2.02 3.38-.3.22-.63.38-.98.5-.53-.02-1.05-.06-1.57-.13.65-2.38 1.67-4.02 2.74-5.04.42-.4.84-.7 1.25-.92Zm-9.42.89c-.09.41-.13.83-.13 1.25-.55-1.05-.91-2.2-1.12-3.39.95-.52 1.91-1.02 2.88-1.51-.73 1.11-1.36 2.35-1.63 3.65Zm3.63 6.25c.14.08.29.14.44.21-.01.07-.02.14-.04.22-.17-.04-.33-.09-.5-.14-.32-.19-.6-.41-.85-.66.3.15.62.27.95.37Zm4.54 1.37c.72.08 1.44.1 2.16.06-.86.15-1.76.16-2.67.05.17-.03.34-.08.51-.12v.01Zm-.04-1.05c-.33-.04-.66-.09-.99-.16-.1-.02-.19-.05-.29-.08.11-.03.22-.06.32-.09h.98c.4-.02.81-.05 1.22-.12-.02 0-.03.02-.05.03-.38.17-.77.31-1.18.42h-.01Zm4.72-6.76c-.56-.37-1.18-.73-1.85-1.08a.31.31 0 0 0-.02-.08c.2 0 .39 0 .56.04.55.12.97.42 1.24.92.03.06.05.13.08.2h-.01Zm-3.43-1.84c-.4-.18-.8-.36-1.2-.52.15 0 .29.01.42.04.33.07.58.21.79.42.01.01.02.03.04.04-.02 0-.03.01-.05.02Zm-1.13.63c-.28.2-.56.42-.84.68-1.24 1.19-2.35 3.05-3.04 5.63-.1-.02-.21-.03-.31-.05-.46-.1-.9-.22-1.35-.35-.34-.25-.67-.51-.98-.8 0-.32 0-.63.08-.96.23-1.09.89-2.18 1.76-2.91 1.14-.97 2.12-1.59 2.93-1.96.58.23 1.17.47 1.75.73v-.01Zm-5.35.44c-.93.79-1.64 1.88-1.99 3.05-.1-.61-.08-1.24.06-1.88.27-1.27.96-2.57 1.77-3.73.69.24 1.54.54 2.47.88-.71.41-1.47.96-2.31 1.67v.01Zm-4.33-2.28-.03-.35c.07-.31.16-.62.26-.92.39.02.78.08 1.17.16.15.03.31.08.46.12-.63.32-1.25.65-1.87.99h.01Zm7.18 11.71.29.06c2.08.44 4.38.56 6.39-.47.5-.26.97-.61 1.37-1.01 1-.32 1.96-.74 2.87-1.25-1.52 1.82-3.57 3.17-5.84 3.54-1.06.17-2.14.13-3.19-.09-.95-.2-1.87-.55-2.73-1.02.28.08.57.16.85.23l-.01.01Zm9.12-6.71c-.21-.36-.49-.69-.84-1.01-.01-.61-.14-1.16-.38-1.63-.4-.76-1.11-1.27-1.93-1.44-.38-.08-.79-.08-1.2-.03A2.625 2.625 0 0 0 65.13 44c-.67-.14-1.45-.04-2.32.29-1.15-.45-2.23-.83-3.1-1.13.07-.08.13-.16.2-.25 1.94-.91 3.9-1.75 5.9-2.51.51-.2 1.03-.38 1.55-.56 1.56 1.26 2.84 2.86 3.66 4.68.46 1.02.76 2.09.67 3.11-.01.17-.04.34-.08.51-.09.41-.24.79-.44 1.15v.01Zm-5.74-9.86h-.01c-.11-.03-.22-.07-.33-.09-1.33-.28-2.62.16-3.74.88-.77.5-1.47 1.14-2.08 1.83-.39.18-.77.37-1.16.56-.53-.17-1.06-.33-1.62-.45-.33-.07-.66-.12-1-.15a9.439 9.439 0 0 1 1.9-2.76c.97-.96 2.12-1.7 3.36-2.23.37.04.73.1 1.09.17 1.59.34 3.12 1 4.48 1.9l-.9.33.01.01Zm-2.64-3.06c1.93-.45 3.99-.46 5.96-.04.88.19 1.75.46 2.57.81.36.15.71.33 1.05.51-1.64.13-3.26.53-4.83 1.04a14.103 14.103 0 0 0-4.75-2.32Zm-6.12 2.15c-.7.7-1.28 1.49-1.75 2.35.06-.5.13-1.01.24-1.5.05-.25.12-.49.18-.73.54-.7 1.31-1.15 2.22-1.41.31-.09.65-.15.99-.2-.67.43-1.29.92-1.87 1.49h-.01Zm-3.15 7.74c0 1.13.15 2.25.5 3.31-.36-.26-.71-.53-1.05-.82-.42-.36-.82-.76-1.13-1.19.07-.06.13-.13.2-.2.45-.4.96-.76 1.49-1.1h-.01Zm10.2 11.54c.62.13 1.25.2 1.89.21-1.52.47-3.09.73-4.64.78 0-.68.01-1.33.05-1.95.86.43 1.76.76 2.7.96Zm12.66-8.84c.13-.44.25-.88.34-1.33.17-.83.28-1.66.35-2.51.01.75-.05 1.5-.21 2.24-.12.55-.28 1.08-.48 1.6Zm-.29-7.42c.12 1.97.03 3.97-.37 5.87-.27 1.29-.69 2.55-1.29 3.72-1.02.78-2.11 1.43-3.26 1.94.17-.35.29-.72.38-1.1.1-.47.11-.95.04-1.43.5-.64.87-1.36 1.04-2.19.04-.21.08-.42.09-.63.11-1.29-.27-2.52-.76-3.63-.8-1.77-1.99-3.35-3.44-4.63 1.8-.53 3.63-.89 5.39-.83a8.39 8.39 0 0 1 1.63 1.63c.18.25.35.51.51.78.01.16.04.33.04.49v.01Zm-.34-2.68s0 .05.01.07c-.03-.03-.05-.06-.08-.09h.04c.01 0 .02 0 .03.01v.01Zm-16.28-7.08c2.37-2.01 5.76-2.92 8.74-2.28.96.2 1.87.56 2.7 1.08 1.74 1.1 2.97 2.75 3.8 4.69.34.79.6 1.64.81 2.5-.41-.07-.81-.11-1.22-.14-.8-.58-1.67-1.05-2.56-1.44-.89-.38-1.82-.67-2.77-.88-2.78-.59-5.74-.39-8.35.65h-.01c-1.09-.1-2.25-.05-3.34.26-.46.13-.9.33-1.32.56.78-1.93 1.95-3.68 3.52-5.01v.01Zm-8.32 13.93c0-.12.02-.24.04-.36.12-.55.46-1.07.96-1.47.36-.29.78-.52 1.23-.66.03.61.09 1.22.16 1.83-.76.46-1.52.96-2.19 1.55-.01.01-.03.02-.04.03-.11-.3-.17-.6-.16-.91v-.01Zm3.3 11.7c-1.34-.68-2.6-1.76-3.41-3.02-.82-1.26-1.21-2.65-.92-4.02.02-.12.05-.24.09-.36.18-.62.51-1.17.91-1.68.35.45.76.85 1.17 1.2.78.67 1.61 1.26 2.49 1.77.4.7.89 1.34 1.48 1.92.37.36.77.66 1.19.93.75.82 1.61 1.54 2.55 2.13-.06.78-.09 1.63-.09 2.5-.8-.03-1.6-.13-2.37-.29-1.08-.23-2.12-.59-3.11-1.09l.02.01Zm24.94-11.93c-.47.79-.99 1.55-1.56 2.27.01-.06.03-.12.05-.18.48-2.27.26-4.71-.81-6.77-.05-.54-.11-1.08-.2-1.62.91.33 1.81.89 2.44 1.6.66.74 1.02 1.59.95 2.49-.01.12-.03.24-.05.37-.13.61-.45 1.23-.81 1.84h-.01Zm77.22 56.15c2.12-.05 4.25-.74 6.05-1.85 1.63-1 3.09-2.37 3.96-4.1.83-.82 1.55-1.75 2.14-2.74.24-.4.48-.85.59-1.36.02-.1.04-.2.05-.31.07-.79-.26-1.51-.76-2.06-.5-.56-1.18-.98-1.88-1.21l-.29-.09c-.15-.68-.35-1.36-.63-1.99-.56-1.31-1.41-2.47-2.64-3.25-.59-.37-1.24-.63-1.91-.77-2.1-.44-4.4.18-6.05 1.58-1.39 1.17-2.31 2.79-2.78 4.54-.27.39-.43.82-.53 1.26-.09.4-.12.82-.12 1.22-.43.11-.83.3-1.17.58-.4.33-.71.77-.82 1.29-.02.11-.04.22-.04.34-.01.4.09.76.26 1.1-.37.42-.66.9-.83 1.45-.03.09-.05.18-.07.28-.23 1.07.09 2.13.67 3.02.59.89 1.45 1.64 2.4 2.12.68.34 1.39.59 2.12.74.51.11 1.03.17 1.55.2m6.74-5.06c-.09.43-.32.85-.63 1.2-.24.07-.48.14-.72.18-.32.06-.64.1-.96.12.39-.23.75-.52 1.07-.86.21-.09.41-.19.61-.31.23-.13.45-.28.65-.45 0 .03 0 .07-.01.1l-.01.02Zm-.11-1.13c.03.06.04.12.07.19-.13.13-.26.26-.41.38.03-.08.07-.16.1-.25.06-.17.1-.34.14-.5.04.07.08.13.11.19l-.01-.01Zm-.72-.4c-.03.16-.08.33-.14.5-.15.43-.39.82-.68 1.15-.51.21-1.06.35-1.6.43.63-.59 1.03-1.42 1.21-2.25.07-.32.1-.65.1-.96.25.14.49.28.69.42.18.12.34.23.48.35 0 .12-.02.23-.05.36h-.01Zm-2.22-1.69.42.21c.05.36.03.77-.05 1.18-.18.84-.63 1.67-1.27 2.13-.19.14-.4.24-.62.32-.33-.01-.66-.04-.99-.08.41-1.5 1.05-2.53 1.72-3.17.26-.25.53-.44.79-.58v-.01Zm-5.93.56c-.05.26-.08.52-.08.78-.35-.66-.58-1.38-.7-2.13.6-.33 1.2-.64 1.81-.95-.46.7-.85 1.48-1.03 2.3Zm2.29 3.93c.09.05.18.09.27.13 0 .04-.02.09-.02.13-.11-.02-.21-.05-.32-.09-.2-.12-.38-.26-.53-.41.19.1.39.17.6.23v.01Zm2.85.86c.45.05.91.06 1.36.04-.54.1-1.11.1-1.68.03.11-.02.22-.05.32-.07Zm-.02-.66c-.21-.03-.42-.05-.62-.1-.06-.01-.12-.03-.18-.05.07-.02.14-.04.2-.06h.62c.25-.01.51-.03.76-.07 0 0-.02.01-.03.02-.24.11-.49.2-.74.27l-.01-.01Zm2.97-4.25c-.35-.23-.75-.46-1.16-.68 0-.01 0-.03-.01-.05.13 0 .25 0 .35.03.35.08.61.26.78.58.02.04.03.08.05.12h-.01Zm-2.15-1.16-.75-.33c.1 0 .18 0 .27.02.2.04.36.13.5.26 0 0 .01.02.02.03 0 0-.02.01-.03.01l-.01.01Zm-.72.4c-.18.13-.36.27-.53.43-.78.75-1.48 1.92-1.92 3.54l-.2-.03c-.29-.06-.57-.14-.85-.22a4.92 4.92 0 0 1-.61-.5c0-.2 0-.4.05-.6.14-.69.56-1.37 1.11-1.83.72-.61 1.33-1 1.84-1.23.37.14.74.3 1.1.46l.01-.02Zm-3.37.28c-.58.5-1.03 1.18-1.25 1.92-.07-.39-.05-.78.04-1.18.17-.8.61-1.62 1.11-2.35.43.15.97.34 1.55.55-.44.26-.92.6-1.45 1.05v.01Zm-2.72-1.44c0-.07-.01-.14-.02-.22.05-.2.1-.39.16-.58.24.01.49.05.74.1.1.02.2.05.29.08-.4.2-.79.41-1.18.62h.01Zm4.52 7.36c.06.01.12.03.18.04 1.31.27 2.76.35 4.02-.29.32-.16.61-.38.86-.64.63-.2 1.23-.47 1.81-.78-.96 1.15-2.24 2-3.68 2.23-.67.11-1.35.09-2.01-.05-.6-.13-1.17-.35-1.72-.64.18.05.36.1.53.14l.01-.01Zm5.74-4.21c-.13-.23-.31-.43-.52-.63-.01-.38-.09-.73-.24-1.02-.25-.48-.7-.8-1.22-.91-.24-.05-.5-.05-.76-.02-.07-.11-.15-.22-.25-.31-.22-.22-.5-.37-.82-.44-.42-.09-.91-.03-1.46.18-.72-.28-1.4-.52-1.95-.71.04-.05.08-.1.13-.15 1.22-.57 2.46-1.1 3.71-1.58.32-.12.65-.24.98-.35.98.79 1.79 1.8 2.3 2.95.29.64.48 1.31.43 1.96-.01.11-.02.22-.05.32-.06.26-.15.5-.28.72v-.01Zm-3.61-6.21c-.07-.02-.14-.04-.21-.05-.84-.17-1.65.1-2.35.55-.49.32-.92.72-1.31 1.15-.24.12-.49.23-.73.35a8.51 8.51 0 0 0-1.02-.28c-.21-.04-.41-.07-.63-.1.29-.65.7-1.24 1.2-1.74.61-.61 1.33-1.07 2.12-1.4.23.03.46.06.68.11 1 .21 1.96.63 2.82 1.2l-.57.21Zm-1.67-1.92c1.21-.28 2.51-.29 3.75-.02.56.12 1.1.29 1.62.51.23.1.44.21.66.32-1.03.08-2.05.33-3.04.65-.9-.66-1.91-1.17-2.99-1.46Zm-3.85 1.35c-.44.43-.81.94-1.1 1.48.04-.32.09-.63.15-.95.03-.15.07-.31.11-.46.34-.44.82-.73 1.39-.89.2-.06.41-.09.62-.12-.42.27-.82.58-1.18.94h.01Zm-1.98 4.87c0 .71.1 1.41.31 2.08-.23-.16-.45-.34-.66-.52-.26-.23-.51-.48-.71-.75.04-.04.08-.08.13-.12.28-.25.6-.48.93-.69Zm6.42 7.26c.39.08.79.13 1.19.13-.95.29-1.94.46-2.92.49 0-.43 0-.84.03-1.23.54.27 1.11.48 1.7.6v.01Zm7.97-5.56c.08-.28.16-.55.22-.84.11-.52.17-1.05.22-1.58 0 .47-.03.95-.13 1.41-.07.35-.18.68-.31 1.01Zm-.19-4.67c.07 1.24.02 2.5-.24 3.69-.17.81-.43 1.6-.81 2.34-.64.49-1.33.9-2.06 1.22a2.714 2.714 0 0 0 .27-1.59 3.279 3.279 0 0 0 .72-1.78c.07-.81-.17-1.59-.48-2.28a8.517 8.517 0 0 0-2.16-2.91c1.13-.34 2.28-.56 3.39-.52.39.3.74.64 1.02 1.02.12.16.22.32.32.49 0 .1.02.21.03.31v.01Zm-.21-1.68v.04c-.02-.02-.03-.04-.05-.05h.04l.01.01ZM155.66 84c1.49-1.27 3.63-1.84 5.5-1.43.6.13 1.17.35 1.7.68 1.09.69 1.87 1.73 2.39 2.95.22.5.38 1.03.51 1.57-.26-.04-.51-.07-.77-.09-.5-.37-1.05-.66-1.61-.91-.56-.24-1.14-.42-1.74-.55-1.75-.37-3.61-.25-5.26.41h-.01c-.68-.07-1.42-.03-2.1.16-.29.08-.57.21-.83.35.49-1.22 1.23-2.31 2.22-3.15V84Zm-5.23 8.76c0-.08 0-.15.03-.23.07-.35.29-.67.6-.93.22-.18.49-.33.77-.42.02.38.05.77.1 1.15-.48.29-.96.6-1.38.98 0 0-.02.01-.02.02-.07-.19-.11-.38-.1-.58v.01Zm2.07 7.36a5.71 5.71 0 0 1-2.15-1.9c-.52-.79-.76-1.67-.58-2.53.02-.08.03-.15.06-.22.12-.39.32-.74.58-1.06.22.28.48.53.74.76.49.42 1.02.79 1.57 1.12.25.44.56.85.93 1.21.23.22.48.41.75.58.47.51 1.01.97 1.61 1.34-.04.49-.05 1.02-.05 1.58-.5-.02-1-.08-1.49-.18-.68-.14-1.34-.37-1.96-.68l-.01-.02Zm15.7-7.5c-.29.5-.62.98-.98 1.43 0-.04.02-.08.03-.12.3-1.43.16-2.96-.51-4.26-.03-.34-.07-.68-.13-1.02.57.21 1.14.56 1.54 1.01.41.46.64 1 .6 1.57 0 .08-.02.15-.03.23-.08.38-.28.77-.51 1.16h-.01ZM27.49 208.54c2.12-.06 4.25-.74 6.05-1.85 1.63-1 3.09-2.37 3.96-4.1.83-.82 1.55-1.75 2.14-2.74.24-.4.48-.85.59-1.36.02-.1.04-.2.05-.31.07-.79-.26-1.51-.76-2.06-.5-.56-1.18-.98-1.88-1.21-.1-.03-.19-.06-.28-.08-.15-.68-.35-1.36-.63-1.99-.56-1.31-1.41-2.47-2.64-3.25-.59-.37-1.24-.63-1.91-.77-2.1-.44-4.4.18-6.05 1.58-1.39 1.17-2.31 2.79-2.78 4.54-.27.39-.43.82-.53 1.26-.09.4-.12.82-.12 1.22-.42.11-.83.3-1.17.58-.4.33-.71.77-.83 1.29-.02.11-.04.22-.04.34-.01.4.09.76.26 1.1-.37.42-.66.9-.83 1.45-.03.09-.05.18-.07.28-.23 1.07.09 2.13.67 3.02.59.89 1.46 1.64 2.4 2.12.68.34 1.39.59 2.12.74.51.11 1.03.17 1.55.2m6.73-5.07c-.09.43-.32.85-.63 1.2-.24.07-.48.14-.72.18-.32.07-.64.1-.96.12.39-.23.75-.52 1.06-.86.21-.09.41-.19.61-.31.23-.13.45-.28.65-.45 0 .03 0 .07-.01.1v.02Zm-.1-1.13c.03.06.04.12.07.19-.13.13-.26.26-.41.38.03-.08.08-.16.1-.25.06-.17.1-.34.14-.5.04.07.08.13.11.18h-.01Zm-.72-.4c-.03.16-.08.33-.14.5-.15.43-.39.82-.68 1.15-.51.21-1.06.35-1.6.43.63-.59 1.03-1.42 1.21-2.25.07-.32.1-.65.1-.96.25.14.49.28.7.42.17.12.34.23.48.35-.01.12-.02.23-.05.36h-.02Zm-2.22-1.69.42.21c.05.36.03.77-.05 1.18-.17.84-.63 1.67-1.27 2.13-.19.14-.4.24-.62.32-.33-.01-.66-.04-.99-.08.41-1.5 1.05-2.53 1.72-3.17.26-.25.53-.44.79-.58v-.01Zm-5.93.56c-.05.26-.08.52-.08.78-.35-.66-.58-1.38-.7-2.13.6-.33 1.2-.64 1.81-.95-.46.7-.85 1.48-1.03 2.3Zm2.29 3.93c.09.05.18.09.27.13 0 .04-.02.09-.02.13-.11-.02-.21-.06-.32-.09-.2-.12-.38-.26-.53-.41.19.1.39.17.6.23v.01Zm2.85.86c.45.05.91.06 1.36.04-.54.1-1.11.1-1.68.03.11-.02.22-.05.32-.07Zm-.02-.66c-.21-.03-.42-.06-.62-.1-.06-.01-.12-.04-.18-.05.07-.02.14-.04.2-.06h.62c.25-.01.51-.03.76-.07-.01 0-.02 0-.03.02-.24.11-.49.2-.74.27l-.01-.01Zm2.97-4.26c-.35-.23-.75-.46-1.16-.68 0-.01 0-.03-.01-.05.13 0 .25 0 .35.03.35.08.61.26.78.58.02.04.03.08.05.12h-.01Zm-2.16-1.15-.75-.33c.1 0 .18 0 .27.02.21.04.36.13.5.26 0 0 .01.02.02.03-.01 0-.02.01-.03.01l-.01.01Zm-.71.39c-.18.13-.36.27-.53.43-.78.75-1.48 1.92-1.92 3.54l-.2-.03c-.29-.06-.57-.14-.85-.22a4.92 4.92 0 0 1-.61-.5c0-.2 0-.4.05-.6.14-.69.56-1.37 1.11-1.83.72-.61 1.33-1 1.84-1.23.37.14.74.3 1.1.46l.01-.02Zm-3.37.29a4.05 4.05 0 0 0-1.25 1.92c-.07-.39-.05-.78.03-1.18.17-.8.61-1.62 1.11-2.34.43.15.97.34 1.55.55-.45.26-.92.6-1.45 1.05h.01Zm-2.72-1.44c0-.07-.01-.14-.02-.21.05-.2.1-.39.16-.58.24.01.49.05.74.1.1.02.2.05.29.08-.4.2-.79.41-1.18.62l.01-.01Zm4.52 7.36c.06.01.12.03.18.04 1.31.27 2.76.35 4.02-.29.32-.16.61-.38.86-.64.63-.2 1.23-.47 1.81-.78-.96 1.15-2.24 2-3.68 2.23-.67.11-1.35.09-2.01-.05-.6-.13-1.17-.35-1.72-.64.18.05.36.1.53.14l.01-.01Zm5.74-4.21c-.13-.23-.31-.43-.52-.63-.01-.38-.09-.73-.24-1.02-.25-.48-.7-.8-1.22-.91-.24-.05-.5-.05-.76-.02-.07-.11-.15-.22-.25-.31-.22-.22-.5-.37-.82-.44-.42-.09-.91-.03-1.46.18-.72-.28-1.4-.52-1.95-.71l.13-.16c1.22-.57 2.46-1.1 3.72-1.58.32-.12.65-.24.98-.35.98.79 1.79 1.8 2.3 2.95.29.64.48 1.31.42 1.96-.01.11-.02.22-.05.32-.05.26-.15.5-.28.72Zm-3.61-6.21c-.07-.02-.14-.04-.21-.05-.84-.17-1.65.1-2.35.55-.49.32-.92.72-1.31 1.15-.24.12-.49.23-.73.35a8.51 8.51 0 0 0-1.02-.28c-.21-.04-.41-.07-.63-.1.29-.65.7-1.24 1.2-1.74.61-.61 1.33-1.07 2.12-1.4.23.03.46.06.68.11 1 .21 1.96.63 2.82 1.19l-.57.21v.01Zm-1.66-1.93c1.21-.28 2.51-.29 3.75-.02.56.12 1.1.29 1.62.51.23.1.45.21.66.32-1.03.08-2.05.33-3.04.65-.9-.66-1.91-1.17-2.99-1.46Zm-3.86 1.36c-.44.43-.81.94-1.1 1.48.04-.32.09-.63.15-.95.03-.15.08-.31.11-.46.34-.44.83-.73 1.39-.89.2-.06.41-.09.62-.12-.42.27-.82.58-1.18.94h.01Zm-1.98 4.87c0 .71.1 1.42.31 2.08-.23-.16-.45-.33-.66-.52-.26-.23-.51-.48-.71-.75.04-.04.08-.08.13-.12.28-.25.6-.48.93-.69Zm6.42 7.26c.39.08.79.13 1.19.13-.96.29-1.94.46-2.92.49 0-.43.01-.84.03-1.23.54.27 1.11.48 1.7.6v.01Zm7.97-5.57c.08-.28.16-.55.22-.84.11-.52.17-1.05.22-1.58 0 .47-.03.95-.13 1.41-.07.35-.18.68-.3 1.01h-.01Zm-.19-4.66c.07 1.24.02 2.5-.24 3.7-.17.82-.43 1.6-.81 2.34-.64.49-1.33.9-2.05 1.22.11-.22.18-.45.24-.69.06-.29.07-.6.03-.9a3.279 3.279 0 0 0 .72-1.78c.07-.81-.17-1.59-.48-2.28-.5-1.12-1.25-2.1-2.16-2.91 1.13-.34 2.28-.56 3.39-.52.39.3.74.64 1.02 1.02.12.16.22.32.32.49 0 .1.02.21.03.31H37Zm-.21-1.69v.04c-.02-.02-.03-.04-.05-.05h.04l.01.01Zm-10.25-4.46c1.49-1.27 3.63-1.84 5.5-1.44.6.13 1.17.35 1.7.68 1.09.69 1.87 1.73 2.39 2.95.22.5.38 1.03.51 1.57-.26-.04-.51-.07-.77-.09-.5-.37-1.05-.66-1.61-.91a8.8 8.8 0 0 0-1.74-.55c-1.75-.37-3.61-.25-5.26.41h-.01c-.68-.07-1.42-.03-2.1.16-.29.08-.57.21-.83.35.49-1.22 1.23-2.31 2.22-3.15v.02Zm-5.23 8.77c0-.08.01-.15.03-.23.07-.35.29-.67.6-.93.22-.18.49-.33.77-.42.02.38.05.77.1 1.15-.48.29-.96.6-1.38.98 0 0-.02.01-.02.02-.07-.19-.11-.38-.1-.57Zm2.07 7.36a5.712 5.712 0 0 1-2.15-1.9c-.52-.79-.76-1.67-.58-2.53.02-.07.03-.15.06-.22.12-.39.32-.74.58-1.06.22.28.48.53.74.76.49.42 1.02.79 1.57 1.12.25.44.56.85.93 1.21.23.22.48.41.75.58.47.51 1.01.97 1.61 1.34-.04.49-.05 1.02-.05 1.58-.5-.02-1-.08-1.49-.19-.68-.14-1.34-.37-1.96-.68l-.01-.01Zm15.7-7.5c-.29.5-.62.98-.98 1.43l.03-.12c.3-1.43.16-2.96-.51-4.26-.03-.34-.07-.68-.13-1.02.58.2 1.14.56 1.54 1.01.41.46.64 1 .6 1.57 0 .07-.02.15-.03.23-.08.38-.28.77-.51 1.16h-.01ZM224.71 34.13c1.52-.04 3.05-.53 4.35-1.33 1.17-.72 2.22-1.71 2.84-2.95.6-.59 1.12-1.26 1.54-1.97.17-.29.35-.61.42-.98.01-.07.03-.15.03-.22.05-.57-.19-1.08-.54-1.48-.36-.4-.85-.7-1.35-.87l-.21-.06c-.11-.49-.25-.97-.45-1.43-.4-.94-1.01-1.77-1.9-2.33-.42-.27-.89-.45-1.37-.55-1.5-.31-3.16.13-4.35 1.13-1 .85-1.66 2.01-2 3.26-.19.28-.31.59-.38.91-.06.29-.08.59-.09.88-.3.08-.6.22-.84.42-.29.24-.51.55-.59.93-.02.08-.03.16-.03.24 0 .28.07.55.18.79-.26.3-.48.64-.6 1.04-.02.07-.04.13-.05.2-.16.77.06 1.53.48 2.17.42.64 1.04 1.18 1.72 1.52.49.25 1 .42 1.52.53.37.08.74.12 1.12.14m4.87-3.63c-.07.31-.23.61-.45.87a5.431 5.431 0 0 1-1.21.22c.29-.17.54-.37.76-.61.15-.07.3-.14.44-.22.17-.1.32-.21.47-.33 0 .02 0 .05-.01.07Zm-.08-.82s.03.09.05.13c-.09.1-.19.19-.3.27.02-.06.06-.12.07-.18.05-.12.08-.24.1-.36.03.04.06.09.07.13l.01.01Zm-.51-.28a2.567 2.567 0 0 1-.59 1.19c-.37.15-.76.25-1.15.31.45-.42.74-1.02.87-1.62.05-.23.07-.47.07-.69.18.1.35.2.5.3.13.08.24.17.34.25 0 .08-.02.17-.04.26Zm-1.6-1.22c.1.05.21.1.3.15.04.26.02.55-.04.85-.13.6-.46 1.2-.91 1.53-.13.1-.28.17-.44.23-.24 0-.48-.03-.71-.06.3-1.08.76-1.82 1.24-2.28.19-.18.38-.32.57-.41l-.01-.01Zm-4.26.4c-.04.18-.06.37-.06.56a5 5 0 0 1-.5-1.53c.43-.24.86-.46 1.3-.68-.33.5-.61 1.06-.74 1.65Zm1.64 2.83c.07.03.13.06.2.09 0 .03 0 .06-.02.1-.07-.02-.15-.04-.23-.06-.14-.09-.27-.18-.38-.3.14.07.28.12.43.17Zm2.05.62c.32.04.65.04.98.03-.39.07-.79.07-1.21.02.08-.01.15-.03.23-.05Zm-.02-.48c-.15-.02-.3-.04-.45-.07l-.13-.03c.05-.01.1-.03.15-.04h.44c.18 0 .37-.02.55-.05 0 0-.02 0-.02.01-.17.08-.35.14-.53.19l-.01-.01Zm2.14-3.05c-.25-.17-.53-.33-.84-.49v-.03c.09 0 .18 0 .25.02.25.05.44.19.56.41l.03.09Zm-1.55-.84-.54-.24c.07 0 .13 0 .19.02a.737.737 0 0 1 .38.21s-.01 0-.02.01h-.01Zm-.51.29c-.13.09-.26.19-.38.31-.56.54-1.06 1.38-1.38 2.54-.05-.01-.09-.01-.14-.02-.2-.04-.41-.1-.61-.16-.15-.11-.3-.23-.44-.36 0-.14 0-.29.03-.43.1-.49.4-.99.79-1.31.51-.43.96-.72 1.33-.89.26.1.53.21.79.33l.01-.01Zm-2.42.2c-.42.36-.74.85-.9 1.38-.05-.28-.03-.56.02-.85.12-.58.43-1.16.8-1.68.31.11.7.24 1.12.4-.32.18-.66.43-1.04.75Zm-1.96-1.03c0-.05 0-.1-.01-.16.03-.14.07-.28.12-.42.18.01.35.03.53.08.07.01.14.04.21.05-.28.15-.57.29-.85.45Zm3.25 5.29.13.03c.94.2 1.98.25 2.89-.21.23-.12.43-.27.62-.46.45-.14.89-.33 1.3-.57-.68.82-1.61 1.43-2.64 1.6-.48.08-.96.06-1.44-.04-.43-.09-.84-.25-1.24-.46.13.04.26.07.38.1v.01Zm4.12-3.03c-.09-.16-.22-.31-.38-.46 0-.28-.06-.53-.18-.74-.18-.35-.5-.58-.87-.65-.18-.04-.36-.04-.54-.01a1.239 1.239 0 0 0-.77-.54c-.3-.07-.66-.02-1.05.13a34.6 34.6 0 0 0-1.4-.51c.03-.04.06-.08.09-.11.88-.41 1.77-.79 2.67-1.13.23-.09.47-.17.7-.25.71.57 1.29 1.29 1.65 2.12.21.46.35.95.3 1.41 0 .08-.02.15-.03.23-.04.18-.11.36-.2.52l.01-.01Zm-2.59-4.46c-.05-.01-.1-.03-.15-.04-.6-.13-1.19.07-1.69.4-.35.23-.66.52-.94.83-.18.08-.35.17-.52.25-.24-.08-.48-.15-.73-.21-.15-.03-.3-.05-.45-.07.21-.47.5-.89.86-1.25.44-.43.96-.77 1.52-1.01.16.02.33.04.49.08.72.15 1.41.45 2.03.86-.14.05-.27.1-.41.15l-.01.01Zm-1.2-1.38c.87-.2 1.8-.21 2.69-.02.4.09.79.21 1.16.37.16.07.32.15.48.23-.74.06-1.48.24-2.18.47-.64-.48-1.37-.84-2.15-1.05Zm-2.77.97c-.32.32-.58.67-.79 1.06.03-.23.06-.46.11-.68.02-.11.05-.22.08-.33.24-.32.59-.52 1-.64.14-.04.29-.07.45-.09-.3.2-.59.42-.85.67v.01Zm-1.42 3.5c0 .51.07 1.02.23 1.5-.16-.12-.32-.24-.48-.37a3.24 3.24 0 0 1-.51-.54l.09-.09c.2-.18.43-.34.67-.5Zm4.61 5.22c.28.06.56.09.85.1-.68.21-1.39.33-2.1.35 0-.31 0-.6.02-.88.39.2.8.34 1.22.43h.01Zm5.73-4a8.538 8.538 0 0 0 .31-1.73c0 .34-.02.68-.1 1.01-.05.25-.13.49-.22.72h.01Zm-.14-3.35c.05.89.01 1.79-.17 2.65-.12.59-.31 1.15-.58 1.68-.46.35-.95.65-1.48.88.07-.16.13-.33.17-.5.05-.21.05-.43.02-.65.23-.29.39-.62.47-.99.02-.09.03-.19.04-.28.05-.58-.12-1.14-.34-1.64-.36-.8-.9-1.51-1.55-2.1.81-.24 1.64-.4 2.44-.37.28.22.53.46.74.74.09.11.16.23.23.35 0 .07.02.15.02.22l-.01.01Zm-.15-1.21v.03c-.01-.01-.02-.03-.04-.04h.03l.01.01Zm-7.36-3.21c1.07-.91 2.61-1.32 3.95-1.03.43.09.84.25 1.22.49.79.5 1.34 1.25 1.72 2.12.15.36.27.74.37 1.13-.18-.03-.37-.05-.55-.06-.36-.26-.75-.48-1.16-.65-.4-.17-.82-.3-1.25-.4-1.26-.26-2.6-.17-3.78.29-.49-.05-1.02-.02-1.51.12-.21.06-.41.15-.6.25.35-.87.88-1.66 1.59-2.27v.01Zm-3.76 6.3c0-.05 0-.11.02-.16.05-.25.21-.48.43-.67.16-.13.35-.24.55-.3.01.27.04.55.07.83-.34.21-.68.43-.99.7 0 0 0 .01-.02.02a.986.986 0 0 1-.07-.41l.01-.01Zm1.49 5.29c-.61-.31-1.17-.8-1.54-1.36-.37-.57-.55-1.2-.42-1.81.01-.05.02-.11.04-.16.09-.28.23-.53.42-.76.16.2.35.38.53.54.35.3.73.57 1.13.8.18.32.4.61.67.87.17.16.35.3.54.42.34.37.73.7 1.15.96-.03.36-.04.74-.04 1.13-.36-.01-.72-.06-1.07-.13-.49-.1-.96-.26-1.41-.49v-.01Zm11.28-5.39c-.21.36-.45.7-.71 1.03 0-.03.02-.05.02-.08.22-1.03.12-2.13-.37-3.06-.02-.24-.05-.49-.09-.73.41.15.82.4 1.11.72.3.33.46.72.43 1.13 0 .05-.01.11-.02.16-.06.28-.2.55-.37.83Z"/>
    <path fill="#F7D754" d="M204.5 157.37c-3.76 2.34-10.42 1.19-10.42 1.19l.69-4.85s5.74.54 6.7-.21c.95-.75.05-5.7.05-5.7l4.81-.93s1.93 8.17-1.83 10.5Zm2.28 3.25c3.96 1.07 6.76 6.54 6.76 6.54l-4.46 2.04s-1.78-3.51-3.8-3.93c-2.02-.42-5.13 2.26-5.13 2.26l-3.51-3.42s4.12-5.12 10.13-3.49h.01Zm4.6-13.27 4.01 2.82s-2.14 3.3-1.49 5.26c.65 1.96 4.53 3.29 4.53 3.29l-1.19 4.76s-6.5-.99-8.12-7c-1.06-3.97 2.25-9.13 2.25-9.13h.01Z"/>
    <path fill="#B72C25" d="M196.91 137.84c.13.05.27.11.39.15-.12-.05-.26-.11-.39-.15Zm-106.14-3.17-.26.03.75-.08-.49.05Zm-12.98 3.38h-.02l.08-.03-.06.02v.01Zm-12.95 8.72c-.32.32-.63.62-.93.93.66-.64 1.47-1.42 2.1-2.03-.35.33-.82.76-1.17 1.1Z"/>
    <path fill="#A914AD" d="M238.4 184.37v-.15c-.02-.95-.08-1.48-.2-2.7v.05c0-.07-.01-.13-.02-.2-.03-.32-.07-.64-.11-.95v-.01l-.09-.64c0-.06-.02-.13-.03-.19-.22-1.52-.6-3.36-1.05-4.95-.01-.05-.03-.1-.04-.15-.09-.32-.18-.63-.28-.93-2.76-9.24-8.26-16.14-14.13-21.23-5.02-4.53-10.63-7.89-15.86-10.18-.23-.11-.46-.22-.68-.33a.714.714 0 0 1-.15-.08c-.06-.03-.13-.06-.19-.09-.63-.3-1.18-.55-1.64-.76l-3.28-1.48c-.91-.41-1.79-.79-2.64-1.14-.03-.01-.05-.02-.08-.03-.37-.15-.73-.3-1.09-.44.01 0 .02 0 .03.01.02 0 .04.01.05.02a.689.689 0 0 1-.08-.03 44.808 44.808 0 0 0-1.49-.57c-.16-.06-.31-.11-.47-.17 0 0-.02 0-.03-.01h-.03c-.63-.24-1.25-.46-1.83-.66-.08-.03-.16-.05-.24-.08-.7-.24-1.36-.45-1.98-.64-.15-.05-.3-.09-.45-.14-.33-.1-.65-.19-.96-.28l-.25-.07c-.18-.05-.38-.11-.58-.16l-.45-.12c-.4-.11-.8-.21-1.15-.3l-.6-.14-.14-.03c-.44-.11-.83-.2-1.17-.28-.7-.16-1.55-.33-2.37-.48-.03 0-.07-.01-.1-.02l-.18-.03c-1.24-.22-2.4-.39-2.93-.45-.09 0-.19-.02-.27-.03-.61-.07-1.15-.13-1.67-.17l.52.04c-1.55-.14-2.2-.19-3.27-.21-.06 0-.13 0-.19-.01-.67-.04-1.55-.01-2.25 0h-.08.94c-.3 0-.69 0-.99.01l-7.79.17-7.79.17-7.79.17-7.79.17-7.79.17-7.79.17-7.79.17-7.79.17-7.79.17-7.79.17c-.43.02-.92.04-1.41.07h-.14c-.84.05-1.71.12-2.49.2l.26-.03-.87.09c-1.06.12-2.46.34-3.49.58-.8.18-1.49.35-2.12.51l.42-.11-.49.13s-.03.01-.05.02c-1.77.45-3.05.87-4.87 1.62-.49.2-.99.41-1.49.63.08-.04.15-.07.22-.11l-.83.38c-.76.34-1.7.83-2.6 1.33-.03.02-.06.03-.09.05h-.01c.06-.03.13-.07.18-.1-.1.05-.23.13-.33.18-.24.13-.5.29-.76.44-.96.56-1.78 1.07-2.1 1.3-.31.22-.68.47-1.05.73.11-.08.22-.16.32-.23-.12.09-.28.2-.41.28-.05.03-.09.07-.13.1-.5.35-1 .7-1.4 1.04 0 0-.02.01-.02.02-.77.6-1.73 1.45-2.48 2.07l-1.2 1.16c-.33.31-.64.61-.93.9-.07.07-.15.14-.21.21l-.01.01c-.24.24-.49.51-.75.79-.99 1.06-2.06 2.36-3.14 3.84-.1.14-.21.27-.31.4-.49.64-1.03 1.5-1.51 2.25-.07.11-.14.21-.2.31-.04.06-.08.13-.12.19-.01.02-.99 1.53-2.08 3.74 0 0 0 .02-.01.02-.32.65-.65 1.37-.97 2.12-.16.38-.34.83-.52 1.28 0 .02-.02.04-.03.07-.24.61-.48 1.24-.67 1.78-.07.2-.14.41-.21.63-.29.87-.54 1.7-.75 2.49l-.03.1c-.17.55-.31 1.22-.45 1.87-.04.19-.08.38-.12.56-.06.31-.12.61-.18.88-.23 1.01-.39 2.39-.5 3.42-.11 1.04-.17 2.43-.24 3.47l-.08 2.68-.08 2.68-.08 2.68-.08 2.68-.08 2.68-.08 2.68-.08 2.68-.08 2.68-.08 2.68-.08 2.68c-.01.47 1.54 1.56 4.2 2.98-2.66-1.42-4.22-2.51-4.2-2.98-.02 1.36.02 3.17.1 4.52.06.99.23 2.29.36 3.27.26 1.93.84 4.47 1.44 6.33.04.12.08.25.12.38.43 1.39.93 2.72 1.48 4.01.04.1.09.2.13.3 6.36 14.53 19.59 22.34 27.41 26.21.08.04.15.08.23.11.53.26 1.04.51 1.51.73.14.06.26.12.4.19.47.22.92.43 1.31.61l3.28 1.48c.91.4 2.06.9 3.37 1.43.07.03.15.06.22.09l.21.08c1.12.45 2.33.91 3.63 1.35l1.84.61c.62.2 1.46.45 2.09.64l.37.1c.43.12.84.23 1.21.33l.29.08c.21.05.44.11.69.17.58.14 1.1.27 1.59.38.5.12 1.16.25 1.9.4h.05s.04.02.06.02c.66.12 1.39.25 2.16.36.16.03.32.05.47.08l.33.04a49.769 49.769 0 0 0 2.91.32c.84.07 1.46.11 2.14.13.16 0 .33.02.48.02.74.03 1.73 0 2.47.01l2.67-.06c.4 0 .78-.02 1.13-.02h.09l3.89-.09 7.79-.17 7.79-.17 7.79-.17 7.79-.17 7.79-.17 7.79-.17 7.79-.17c1.23-.03 2.67-.06 4.1-.09l3.69-.08c.33 0 .67-.01 1.03-.02l1.77-.04c.36 0 .73-.02 1.09-.02l3.89-.08c.43-.02.91-.04 1.41-.07h.14c.41-.03.82-.05 1.24-.09.38-.02.75-.05 1.08-.08.12-.01.24-.03.36-.05h.09c.07 0 .15-.01.22-.02h.05s.05-.01.07-.01c1.06-.12 2.46-.34 3.49-.58 3.17-.73 4.66-1.15 7.12-2.16.47-.19.93-.38 1.4-.59.03-.01.06-.03.1-.04.2-.09.4-.17.61-.26.77-.34 1.7-.83 2.61-1.33.03-.01.05-.03.08-.04l.16-.08c.24-.13.5-.28.76-.44.96-.56 1.78-1.07 2.11-1.3.19-.14.4-.28.62-.44.08-.06.16-.11.24-.17.63-.43 1.29-.89 1.8-1.31 0 0 .02-.01.02-.02 0 0 .02-.01.02-.02 2.25-1.71 4.18-3.55 5.83-5.4.05-.06.11-.12.16-.18.24-.27.48-.55.71-.82.23-.27.47-.56.7-.85.07-.09.14-.18.22-.27.36-.46.72-.93 1.09-1.43.1-.14.21-.28.31-.4.49-.64 1.03-1.5 1.51-2.25.07-.1.13-.2.2-.31.04-.06.08-.13.12-.19.55-.83 1.18-2 1.64-2.88v-.01l.27-.52v-.03c.12-.22.23-.43.33-.65.3-.61.59-1.25.82-1.79.06-.14.12-.29.18-.44.02-.04.04-.09.06-.12l-.05.12c.11-.27.22-.55.34-.84 0-.02.02-.04.02-.06.24-.61.48-1.24.67-1.78.07-.2.14-.41.21-.63.22-.66.41-1.29.59-1.91l.06-.2.03-.11c.02-.09.05-.18.07-.27 0-.03.02-.07.03-.1.17-.55.31-1.22.45-1.87.04-.19.08-.38.11-.56 0-.02 0-.03.01-.05l.08-.34c-.02.09-.05.18-.07.28.05-.27.11-.53.16-.77.08-.35.15-.74.21-1.15.1-.6.17-1.08.24-1.78l.06-.5c.11-1.03.17-2.42.24-3.46l.05-1.57.04-1.39.07-2.4.08-2.68.08-2.68.08-2.68.05-1.57.04-1.39.07-2.4.08-2.68.08-2.68.08-2.68v-.32.31c.04-1.42.05-2.12-.02-3.17l-.03-.09Zm-58.76-49.93c-.34-.12-.67-.24-1-.35.33.11.66.22.99.35h.01Zm-5.59-1.52h-.03.03Zm.55.09h.02-.02Zm1.25.27s.04 0 .05.01c0 0-.04 0-.05-.01Zm-75.37 2.39c-.03 0-.05-.02-.08-.03.03 0 .05.02.08.02v.01Zm17.94 123.14v-.01.01Zm.01-.03v-.02.02Zm119.69-71h.02-.02Zm0 0h-.01.01Zm-.06 0h.04-.04Zm-.17-.09v.11h.07-.07l-.8 26.8c-.02.67-.06 1.34-.11 2.01-.48 4.63-1.41 8.75-2.86 12.56-.15.39-.31.77-.47 1.15l-.21.51c-.23.53-.48 1.06-.73 1.59-.04.07-.07.15-.11.22-.21.43-.43.84-.65 1.26-.14.26-.27.51-.41.77-.09.17-.19.33-.28.49-1.85 3.2-4.19 6.25-7.06 9.31-3.12 3.15-6.68 5.82-10.57 7.85-.17.09-.34.17-.51.26-.37.19-.75.37-1.12.55-.2.09-.4.18-.61.27a39.14 39.14 0 0 1-12.39 3.27c-.89-.06-2.04-.34-2.62.16h-.05l-77.85 1.69v.03-.03h-.9c-4.69-.17-8.72-.94-12.16-2.08-5.47-1.94-10.35-5.15-14.32-9.31-3.03-3.34-5.28-6.74-6.93-10.06-2.72-5.68-4.18-12.17-3.97-19.07v-.19l.02-.8c.02-.56.04-1.33.07-2.27l.55-18.24c.03-.88.05-1.68.07-2.38l.06-1.91c.01-.37.02-.64.02-.8v-.19c.68-22.74 19.04-41.78 40.76-42.24l77.85-1.69c20.87-.46 37.61 16.39 38.27 37.89-.13.88-.44 1.96.01 2.53l.01-.02Zm-134.04-50.76c.52.22 1.05.44 1.59.68-.54-.24-1.07-.47-1.59-.68Zm74.34-2.99c-.31-.1-.62-.19-.92-.28.3.09.6.18.92.28Zm-82.94.55h-.02.02Zm-44.22 43.94c.06.09.15.18.26.29-.11-.11-.19-.2-.26-.29Z"/>
    <path fill="#CF4CCF" d="M199.6 147.27c21.72-.48 38.97 17.79 38.28 40.53-.27 8.93-.53 17.86-.8 26.8-.67 22.74-19.04 41.78-40.76 42.24-25.95.56-51.9 1.13-77.85 1.69-21.71.48-38.96-17.79-38.28-40.53.27-8.93.53-17.86.8-26.8.67-22.74 19.04-41.78 40.75-42.24 25.95-.56 51.9-1.13 77.85-1.69h.01Z"/>
    <path fill="#CC5200" d="m119.461 233.378-7.48.114a4.268 4.268 0 0 0-4.204 4.334l.029 1.93a4.27 4.27 0 0 0 4.334 4.204l7.48-.113a4.27 4.27 0 0 0 4.204-4.335l-.029-1.929a4.27 4.27 0 0 0-4.334-4.205Z"/>
    <path fill="#FF8419" d="m121.455 234.347-7.479.114a4.27 4.27 0 0 0-4.205 4.334l.03 1.93a4.27 4.27 0 0 0 4.334 4.205l7.479-.114a4.27 4.27 0 0 0 4.205-4.334l-.029-1.93a4.271 4.271 0 0 0-4.335-4.205Z"/>
    <path fill="#B77100" d="m139.164 233.079-7.479.113a4.27 4.27 0 0 0-4.205 4.335l.029 1.93a4.27 4.27 0 0 0 4.335 4.204l7.479-.113a4.27 4.27 0 0 0 4.204-4.335l-.029-1.929a4.27 4.27 0 0 0-4.334-4.205Z"/>
    <path fill="#FFBC31" d="m141.158 234.048-7.479.114a4.27 4.27 0 0 0-4.204 4.334l.029 1.93a4.27 4.27 0 0 0 4.334 4.205l7.479-.114a4.27 4.27 0 0 0 4.205-4.334l-.029-1.93a4.271 4.271 0 0 0-4.335-4.205Z"/>
    <path fill="#fff" d="M122.93 221.24c-6.37-.23-13.31-.76-17.94-4.81-5.48-4.79-5.74-12.67-5.63-19.67.09-6.12.2-12.24.29-18.36.05-2.89.14-5.96 1.83-8.4 2.95-4.27 9.29-5.09 14.74-4.97 34.11.79 60.02.78 95.87-1.8 6.13-.44 11.5 4.28 12.12 10.67.89 9.09 1.01 21.44-1.63 32.23-1.63 6.66-7.07 11.5-13.59 12.29-28.02 3.39-58.29 3.83-86.06 2.82Z"/>
    <path fill="#E3E3E3" d="M203.51 346.89c0 1.87-26.53 3.39-59.25 3.39s-59.25-1.52-59.25-3.39 26.53-3.39 59.25-3.39 59.25 1.52 59.25 3.39Z"/>
    <path fill="#CF4CCF" d="M81.91 114.22c.56 3.61-1.92 6.99-5.53 7.55-3.61.56-6.99-1.92-7.55-5.53-.56-3.61 1.92-6.99 5.53-7.55 3.61-.56 6.99 1.92 7.55 5.53Zm9.82-1.39c-.92.22-1.85-.34-2.09-1.26a14.82 14.82 0 0 0-5.55-8.21 1.74 1.74 0 0 1-.37-2.43 1.74 1.74 0 0 1 2.43-.37c3.37 2.48 5.81 6.09 6.85 10.14.24.93-.32 1.88-1.25 2.12h-.03l.01.01Zm-29.94-4.61a1.739 1.739 0 0 1-1.89-2.61c2.73-4.37 7.19-7.42 12.27-8.3.94-.17 1.85.46 2.02 1.4.17.95-.44 1.89-1.41 2.02-4.09.75-7.72 3.18-9.92 6.72-.25.4-.64.67-1.07.77Zm3.58 21.47c-.51.12-1.07 0-1.51-.34a18.236 18.236 0 0 1-6.48-11.25c-.15-.95.52-1.81 1.44-1.99.95-.15 1.84.5 1.99 1.44a14.73 14.73 0 0 0 5.24 9.1c.74.61.86 1.7.25 2.45-.25.3-.58.51-.94.59h.01Z"/>
    <path fill="#CF4CCF" d="M93.34 145.59a1.74 1.74 0 0 1-1.89-.78l-17.56-28.67c-.5-.82-.24-1.89.57-2.39.82-.51 1.89-.25 2.39.57l17.56 28.67a1.745 1.745 0 0 1-1.07 2.6Z"/>
    <path fill="#CF4CCF" fill-rule="evenodd" d="m212.27 182.17-14.96 8.14c-.81.44-.91 1.54-.22 2.15 1.89 1.65 5.77 3.91 11.02 1.18 5.18-2.7 6.06-7.51 6.1-10.3 0-1-1.05-1.65-1.94-1.17Zm-83.56 7.54c-3.86-1.82-14.56-6.79-18.21-8.48-.61-.28-1.29.17-1.29.85.03 2.52.69 7.73 5.33 10.03 6.31 3.12 11.8.68 14.23-.8.62-.38.59-1.29-.07-1.6h.01Z" clip-rule="evenodd"/>
    <path fill="#CF4CCF" d="M159.05 209.99a2.057 2.057 0 0 1-1.78-2.93c1.76-3.68 5.19-6.1 8.74-6.16 3.56-.08 6.99 2.29 8.62 5.98.46 1.03-.01 2.24-1.05 2.7-1.03.45-2.24-.01-2.7-1.05-.95-2.15-2.86-3.55-4.8-3.53-1.98.03-4.04 1.57-5.11 3.83-.36.76-1.13 1.18-1.91 1.16h-.01Zm-100.5-3.28c1.09 5.41 5.05 9.18 8.84 8.42 3.79-.76 5.98-5.77 4.89-11.19-1.09-5.41-5.05-9.18-8.84-8.42-3.79.76-5.98 5.77-4.89 11.19Z"/>
    <path fill="#86118C" d="M131.29 242.3c-4.79-.55-9.66-1.37-14.56-2.48-25.2-5.71-46.83-18.26-55.11-31.98a3.986 3.986 0 0 1 1.35-5.47 3.986 3.986 0 0 1 5.47 1.35c7.22 11.95 26.87 23.07 50.06 28.33 27.23 6.16 53 3.04 70.7-8.6a3.97 3.97 0 0 1 5.51 1.14 3.97 3.97 0 0 1-1.14 5.51c-16.24 10.68-38.38 14.92-62.27 12.2h-.01Z"/>
    <path fill="#F7D654" d="M262.13 174.31H223.2a7.04 7.04 0 0 0-6.05 3.43l-45.1 75.56c-.51.85-.48 1.91.06 2.73l.62.94a5.124 5.124 0 0 0 4.58 2.28l36.53-2.3a7.928 7.928 0 0 0 6.22-3.69l45.39-71.98c.85-1.35.83-3.07-.05-4.4l-.82-1.24a2.962 2.962 0 0 0-2.45-1.32v-.01Z"/>
    <path fill="#FCA203" d="m265.04 176.33-.46-.7a2.962 2.962 0 0 0-2.45-1.32H223.2a7.04 7.04 0 0 0-6.05 3.43l-45.1 75.56c-.51.85-.48 1.91.06 2.73 1.04 1.57 3.37 1.52 4.34-.1l43.98-73.68a6.566 6.566 0 0 1 5.64-3.2h37.51c1.4 0 2.23-1.56 1.46-2.72Z"/>
    <path fill="#fff" d="M241.02 193.76c-1.63 2.72-4.59 3.94-6.59 2.73-2.01-1.21-2.31-4.39-.68-7.11 1.63-2.72 4.59-3.94 6.59-2.73 2.01 1.21 2.31 4.39.68 7.11Zm-7.95 11.13c-1.22 2.03-3.42 2.94-4.92 2.04-1.5-.9-1.72-3.28-.5-5.3 1.22-2.03 3.42-2.94 4.92-2.04 1.5.9 1.72 3.28.5 5.3Zm-6.67 9.5c-.91 1.51-2.54 2.18-3.65 1.51-1.11-.67-1.28-2.43-.37-3.94.91-1.51 2.54-2.18 3.65-1.51 1.11.67 1.28 2.43.37 3.94Z"/>
    <path fill="#86118C" d="M212.14 222.39c-.35-3.15-8.2-.79-11.31-.84-3.11-.05-5.68-.91-5.93-3.94-.2-2.51 3.27-8.07 3.27-8.07-2.39-.24-5.39-.45-8.65-.25-8.05.49-10.27 6.63-11.28 13.43-.72 4.83 2.18 11.28 8.55 13.78 6.36 2.5 11.27 2.58 14.71 1.67 3.4-.9 4.65-3.31 3.9-5.27.95-.31 1.82-.7 2.46-1.23 2.91-2.37 1.79-4.26.81-4.99h-.02c2.23-1.19 3.67-2.75 3.5-4.31h-.01v.02Z"/>
  </g>
  <defs>
    <clipPath id="mobile-angry-purple__a">
      <path fill="#fff" d="M0 0h320v350.28H0z"/>
    </clipPath>
  </defs>
</svg>
