<svg xmlns="http://www.w3.org/2000/svg" width="216" height="253" fill="none" viewBox="0 0 216 253">
  <g clip-path="url(#mobile__a)">
    <path fill="#B72C25" d="M123.06 35.48c-.3 0-.7 0-1 .01h1v-.01Zm-82.38 1.91c-.09 0-.17.02-.26.03l.75-.08-.49.05Zm-12.99 3.38h-.02l.08-.03-.06.03Zm-12.94 8.72c-.32.32-.63.62-.93.93.66-.64 1.47-1.42 2.1-2.03-.35.33-.82.76-1.17 1.1ZM188.31 87.1v-.15c-.02-.95-.08-1.48-.2-2.7v.05c0-.07-.01-.13-.02-.2-.03-.32-.07-.64-.11-.95v-.01l-.09-.64c0-.06-.02-.13-.03-.19-.22-1.52-.6-3.36-1.05-4.95-.01-.05-.03-.1-.04-.15-.09-.32-.18-.63-.28-.92-2.76-9.25-8.26-16.15-14.13-21.23-5.02-4.53-10.63-7.89-15.86-10.18-.23-.11-.46-.22-.67-.33-.05-.02-.11-.05-.16-.08-.06-.03-.13-.06-.19-.09-.63-.3-1.18-.55-1.64-.76l-3.28-1.48c-.91-.41-1.79-.79-2.64-1.14-.03-.01-.05-.02-.08-.03-.37-.15-.73-.3-1.09-.44.01 0 .02 0 .03.01.01 0 .03.01.04.02-.02 0-.05-.02-.07-.03a.689.689 0 0 1-.08-.03c-.45-.18-.9-.35-1.33-.52-.02 0-.05-.02-.07-.03-.16-.06-.32-.12-.48-.17h-.06c-.63-.24-1.25-.46-1.84-.66-.08-.03-.16-.05-.25-.08a62.768 62.768 0 0 0-2.42-.77c-.33-.1-.65-.2-.96-.28l-.24-.07c-.18-.05-.38-.11-.58-.16l-.45-.12c-.4-.11-.81-.21-1.15-.31l-.6-.14s-.1-.02-.14-.03c-.44-.11-.83-.2-1.17-.28-.71-.16-1.55-.33-2.37-.48-.03 0-.07-.01-.1-.02l-.18-.03c-1.24-.22-2.4-.39-2.93-.45-.09 0-.19-.02-.27-.03-.61-.07-1.16-.13-1.67-.17l.52.04c-1.55-.14-2.2-.19-3.27-.21-.06 0-.13 0-.19-.01-.72-.04-1.67 0-2.39 0l-7.78.17-7.79.17-7.79.17-7.79.17-7.79.17-7.79.17-7.79.17-7.79.17-7.79.17-7.78.17c-.43.02-.92.04-1.41.07h-.14c-.84.05-1.7.12-2.49.2l.26-.03-.87.09c-1.06.12-2.46.34-3.49.58-.8.18-1.49.35-2.12.51l.42-.11-.49.13s-.03.01-.05.02c-1.77.45-3.05.87-4.87 1.62-.5.2-.99.41-1.5.64.08-.04.15-.07.23-.11l-.83.38c-.76.34-1.7.82-2.6 1.32-.03.02-.06.03-.09.05h-.01c.06-.03.13-.07.18-.1-.1.05-.23.13-.33.18-.24.13-.5.29-.76.44-.96.56-1.78 1.07-2.1 1.3-.31.22-.68.47-1.05.73.11-.08.22-.16.32-.23-.12.09-.28.2-.41.28-.05.03-.08.07-.13.1-.5.35-1 .7-1.4 1.04 0 0-.02.01-.02.02-.77.6-1.73 1.45-2.48 2.07l-1.2 1.16c-.33.31-.64.61-.93.9-.07.07-.15.14-.21.21l-.01.01c-.24.24-.49.52-.75.8-.99 1.06-2.06 2.36-3.14 3.84-.1.14-.21.27-.31.4-.49.63-1.03 1.5-1.5 2.24-.07.11-.14.21-.21.32-.04.06-.08.13-.12.19-.01.02-.99 1.53-2.08 3.74 0 0 0 .02-.01.02-.32.65-.65 1.37-.97 2.12-.16.38-.34.83-.52 1.28 0 .02-.02.04-.03.07-.24.61-.48 1.24-.67 1.78-.07.2-.14.41-.21.63-.29.87-.54 1.7-.75 2.5 0 .03-.02.07-.03.1-.17.55-.31 1.22-.45 1.87-.04.19-.08.38-.12.56-.06.31-.12.61-.19.88-.23 1.01-.39 2.39-.5 3.42-.11 1.04-.17 2.43-.24 3.47V81l-.08 2.6-.08 2.6v.08l-.08 2.68-.08 2.68v.08l-.08 2.6-.08 2.6V97l-.08 2.68-.08 2.68-.08 2.68-.08 2.68c-.01.41 1.22 1.33 3.37 2.52.26.15.54.3.83.45-2.67-1.47-4.22-2.56-4.22-3.03-.02 1.36.02 3.17.1 4.52.06.99.23 2.29.36 3.27.26 1.93.84 4.47 1.44 6.33.04.12.08.25.12.38.43 1.39.93 2.72 1.48 4.01.04.1.09.2.13.3 6.36 14.53 19.59 22.34 27.41 26.21.08.04.15.08.23.11.53.26 1.04.51 1.51.73.14.06.26.12.4.19.47.22.92.43 1.31.61l3.28 1.48c.91.4 2.06.9 3.37 1.43.07.03.15.06.22.09l.22.08c1.12.45 2.33.91 3.62 1.35l1.84.61c.62.2 1.46.45 2.09.64l.37.1c.43.12.84.23 1.22.33l.28.08c.21.05.44.11.68.17.58.14 1.11.27 1.59.38.5.12 1.16.25 1.9.4h.05s.04.02.06.02c.66.12 1.39.25 2.15.36.16.03.32.05.47.08l.34.04a49.203 49.203 0 0 0 2.9.32c.84.07 1.45.11 2.13.13.16 0 .33.02.48.02.74.03 1.74 0 2.48.01 1.14-.02 2.64-.06 3.8-.08h.09l3.89-.09 7.79-.17 7.79-.17 7.79-.17 7.79-.17 7.79-.17 7.79-.17 7.79-.17c1.23-.03 2.67-.06 4.1-.09l3.69-.08c1.17-.03 2.53-.05 3.89-.08l3.89-.08h.02c.43-.02.9-.04 1.39-.07h.15c.41-.03.82-.05 1.23-.09.38-.02.75-.05 1.08-.08.12-.01.24-.03.36-.05h.09c.07 0 .15-.01.22-.02h.05s.05-.01.07-.01c1.06-.12 2.46-.34 3.49-.58 3.17-.73 4.66-1.15 7.12-2.16.47-.19.93-.39 1.41-.59.03-.01.07-.03.1-.04.2-.08.39-.17.6-.26.77-.34 1.7-.83 2.61-1.33.03-.01.05-.03.08-.04l.16-.08c.24-.13.49-.28.76-.44.97-.56 1.78-1.07 2.11-1.3.19-.14.4-.28.62-.44.08-.06.16-.11.24-.17.63-.43 1.29-.89 1.8-1.31 0 0 .02-.01.02-.02 0 0 .02-.01.03-.02 2.25-1.71 4.18-3.55 5.83-5.4.05-.06.11-.12.16-.18.24-.27.48-.55.71-.82.23-.27.47-.56.7-.85.07-.09.15-.18.22-.27.36-.46.72-.93 1.09-1.43.1-.14.21-.28.31-.4.49-.64 1.03-1.5 1.51-2.25.07-.1.13-.2.2-.31.04-.06.08-.13.12-.19.55-.83 1.18-2 1.64-2.88l.27-.53v-.03c.12-.22.23-.43.33-.65.3-.61.59-1.25.82-1.79.06-.14.12-.29.18-.44.02-.04.04-.09.06-.12l-.05.12c.11-.27.22-.55.34-.84 0-.02.02-.04.02-.06.24-.61.48-1.24.67-1.78.07-.2.14-.41.21-.63.22-.66.41-1.29.59-1.91l.06-.2.03-.11c.02-.09.05-.18.07-.27 0-.03.02-.07.03-.1.17-.55.31-1.22.45-1.87.04-.19.08-.37.11-.56 0-.02 0-.04.01-.05l.08-.34c-.02.09-.05.18-.07.28.05-.27.11-.53.16-.77.08-.35.15-.74.21-1.15.1-.6.17-1.08.24-1.78l.06-.5c.11-1.03.17-2.42.24-3.46l.05-1.57.04-1.39.07-2.4.08-2.68.08-2.68.08-2.68.05-1.57.04-1.39.07-2.4.08-2.68.08-2.68.08-2.68v-.32.31c.04-1.42.05-2.12-.02-3.17v-.05ZM50.39 38.39l-.09-.03c.03 0 .06.02.09.03Zm17.94 123.14v-.01.01Zm.01-.02v-.02.02Zm119.71-71.02h-.02.02Zm-.26-.08v.11l-.8 26.8c-.02.67-.06 1.34-.11 2.01-.48 4.63-1.41 8.75-2.86 12.56-.15.39-.31.77-.47 1.15l-.21.51c-.23.53-.48 1.06-.73 1.59-.04.07-.07.15-.11.22-.21.43-.43.84-.65 1.26-.14.26-.27.51-.41.77-.09.16-.19.33-.28.49-1.86 3.2-4.19 6.25-7.06 9.31-3.12 3.15-6.68 5.82-10.57 7.85-.17.09-.34.17-.52.26-.37.19-.75.37-1.12.55l-.6.27a39.14 39.14 0 0 1-12.39 3.27c-.89-.06-2.04-.34-2.62.16h-.05l-77.85 1.69v.03-.03h-.9c-4.69-.17-8.72-.94-12.16-2.08-5.47-1.94-10.35-5.15-14.32-9.31-3.03-3.34-5.28-6.74-6.93-10.06-2.72-5.68-4.18-12.17-3.97-19.07v-.19l.02-.8c.02-.56.04-1.33.07-2.27l.55-18.29c.02-.71.04-1.37.06-1.96l.07-2.27c.01-.37.02-.64.02-.8v-.19c.68-22.74 19.04-41.78 40.76-42.24l77.85-1.69c20.87-.46 37.61 16.39 38.27 37.89-.13.88-.44 1.96.01 2.53l.01-.03ZM52.54 39.17c.24.09.48.19.73.28-.25-.1-.49-.19-.73-.29v.01Zm1.22.48c.52.22 1.05.44 1.59.68-.54-.24-1.07-.47-1.59-.68Zm74.34-2.98c-.31-.1-.62-.19-.92-.28.3.09.6.18.92.28Zm-1.35-.41c-.11-.03-.2-.05-.31-.08.1.03.2.05.31.08Zm-2.79-.62h-.03.03ZM8.55 85.62c.68.32 1.4.66 2.15.99-.75-.34-1.47-.67-2.15-.99-1.02-.49-1.96-.95-2.81-1.39-.56-.29-1.09-.57-1.57-.84-.06-.03-.11-.06-.17-.1 1.22.69 2.76 1.48 4.55 2.33ZM1.2 81.44c-.11-.11-.19-.2-.26-.29.06.09.15.18.26.29Z"/>
    <path fill="#FF462D" d="M149.51 49.99c21.72-.48 38.97 17.79 38.28 40.53-.27 8.93-.53 17.86-.8 26.8-.67 22.74-19.04 41.78-40.76 42.24-25.95.56-51.9 1.13-77.85 1.69-21.71.48-38.96-17.79-38.28-40.53.27-8.93.53-17.86.8-26.8.67-22.74 19.04-41.78 40.75-42.24 25.95-.56 51.9-1.13 77.85-1.69h.01Z"/>
    <path fill="#CC5200" d="m69.37 136.1-7.48.113a4.27 4.27 0 0 0-4.204 4.335l.029 1.929a4.27 4.27 0 0 0 4.334 4.205l7.48-.114a4.27 4.27 0 0 0 4.204-4.334l-.03-1.93a4.27 4.27 0 0 0-4.334-4.204Z"/>
    <path fill="#FF8419" d="m71.374 137.069-7.48.114a4.27 4.27 0 0 0-4.204 4.334l.03 1.93a4.27 4.27 0 0 0 4.334 4.205l7.479-.114a4.27 4.27 0 0 0 4.204-4.334l-.029-1.93a4.27 4.27 0 0 0-4.334-4.205Z"/>
    <path fill="#B77100" d="m89.073 135.801-7.48.113a4.27 4.27 0 0 0-4.204 4.335l.029 1.929a4.27 4.27 0 0 0 4.334 4.205l7.48-.114a4.27 4.27 0 0 0 4.204-4.334l-.03-1.93a4.27 4.27 0 0 0-4.334-4.204Z"/>
    <path fill="#FFBC31" d="m91.067 136.77-7.48.114a4.27 4.27 0 0 0-4.204 4.334l.03 1.93a4.27 4.27 0 0 0 4.334 4.205l7.479-.114a4.27 4.27 0 0 0 4.205-4.334l-.03-1.93a4.27 4.27 0 0 0-4.334-4.205Z"/>
    <path fill="#fff" d="M72.84 123.96c-6.37-.23-13.31-.76-17.94-4.81-5.48-4.79-5.74-12.67-5.63-19.67.09-6.12.2-12.24.29-18.36.05-2.89.14-5.96 1.83-8.4 2.95-4.27 9.29-5.09 14.74-4.97 34.11.79 60.02.78 95.87-1.8 6.13-.44 11.5 4.28 12.12 10.67.89 9.09 1.01 21.44-1.63 32.23-1.63 6.66-7.07 11.5-13.59 12.29-28.02 3.39-58.29 3.83-86.06 2.82Z"/>
    <path fill="#E3E3E3" d="M153.42 249.62c0 1.87-26.53 3.39-59.25 3.39s-59.25-1.52-59.25-3.39 26.53-3.39 59.25-3.39 59.25 1.52 59.25 3.39Z"/>
    <path fill="#FFBC31" d="M31.82 16.94c.56 3.61-1.92 6.99-5.53 7.55-3.61.56-6.99-1.92-7.55-5.53-.56-3.61 1.92-6.99 5.53-7.55 3.61-.56 6.99 1.92 7.55 5.53Zm9.82-1.39c-.92.22-1.85-.34-2.09-1.26A14.82 14.82 0 0 0 34 6.08a1.74 1.74 0 0 1-.37-2.43 1.74 1.74 0 0 1 2.43-.37c3.37 2.48 5.81 6.09 6.85 10.14.24.93-.32 1.88-1.25 2.12h-.03l.01.01ZM11.7 10.94a1.739 1.739 0 0 1-1.89-2.61C12.54 3.96 17 .91 22.08.03c.94-.17 1.85.46 2.02 1.4.17.95-.44 1.89-1.41 2.02-4.09.75-7.72 3.18-9.92 6.72-.25.4-.64.67-1.07.77Zm3.58 21.47c-.51.12-1.07 0-1.51-.34a18.236 18.236 0 0 1-6.48-11.25c-.15-.95.52-1.81 1.44-1.99.95-.15 1.84.5 1.99 1.44a14.73 14.73 0 0 0 5.24 9.1c.74.61.86 1.7.25 2.45-.25.3-.58.51-.94.59h.01Z"/>
    <path fill="#FFBC31" d="M43.25 48.31a1.74 1.74 0 0 1-1.89-.78L23.8 18.86c-.5-.82-.24-1.89.57-2.39.82-.51 1.89-.25 2.39.57l17.56 28.67a1.745 1.745 0 0 1-1.07 2.6Z"/>
    <path fill="#FF8419" d="M8.46 109.43c1.09 5.41 5.05 9.18 8.84 8.42 3.79-.76 5.98-5.77 4.89-11.19-1.09-5.41-5.05-9.18-8.84-8.42-3.79.76-5.98 5.77-4.89 11.19Z"/>
    <path fill="#CC5239" d="M81.2 145.02c-4.79-.55-9.66-1.37-14.56-2.48-25.2-5.71-46.83-18.26-55.11-31.98a3.986 3.986 0 0 1 1.35-5.47 3.986 3.986 0 0 1 5.47 1.35c7.22 11.95 26.87 23.07 50.06 28.33 27.23 6.16 53 3.04 70.7-8.6a3.97 3.97 0 0 1 5.51 1.14 3.97 3.97 0 0 1-1.14 5.51c-16.24 10.68-38.38 14.92-62.27 12.2h-.01Z"/>
    <path fill="#F7D654" d="M212.04 77.03h-38.93a7.04 7.04 0 0 0-6.05 3.43l-45.1 75.56c-.51.85-.48 1.91.06 2.73l.62.94a5.124 5.124 0 0 0 4.58 2.28l36.53-2.3a7.928 7.928 0 0 0 6.22-3.69L215.36 84c.85-1.35.83-3.07-.05-4.4l-.82-1.24a2.962 2.962 0 0 0-2.45-1.32v-.01Z"/>
    <path fill="#FCA203" d="m214.95 79.05-.46-.7a2.962 2.962 0 0 0-2.45-1.32h-38.93a7.04 7.04 0 0 0-6.05 3.43l-45.1 75.56c-.51.85-.48 1.91.06 2.73 1.04 1.57 3.37 1.52 4.34-.1l43.98-73.68a6.566 6.566 0 0 1 5.64-3.2h37.51c1.4 0 2.23-1.56 1.46-2.72Z"/>
    <path fill="#fff" d="M190.93 96.48c-1.63 2.72-4.59 3.94-6.59 2.73-2.01-1.21-2.31-4.39-.68-7.11 1.63-2.72 4.59-3.94 6.59-2.73 2.01 1.21 2.31 4.39.68 7.11Zm-7.95 11.13c-1.22 2.03-3.42 2.94-4.92 2.04-1.5-.9-1.72-3.28-.5-5.3 1.22-2.03 3.42-2.94 4.92-2.04 1.5.9 1.72 3.28.5 5.3Zm-6.67 9.5c-.91 1.51-2.54 2.18-3.65 1.51-1.11-.67-1.28-2.43-.37-3.94.91-1.51 2.54-2.18 3.65-1.51 1.11.67 1.28 2.43.37 3.94Z"/>
    <path fill="#CC5239" d="M162.05 125.11c-.35-3.15-8.2-.79-11.31-.84-3.11-.05-5.68-.91-5.93-3.94-.2-2.51 3.27-8.07 3.27-8.07-2.39-.24-5.39-.45-8.65-.25-8.05.49-10.27 6.63-11.28 13.43-.72 4.83 2.18 11.28 8.55 13.78 6.36 2.5 11.27 2.58 14.71 1.67 3.4-.9 4.65-3.31 3.9-5.27.95-.31 1.82-.7 2.46-1.23 2.91-2.37 1.79-4.26.81-4.99h-.02c2.23-1.19 3.67-2.75 3.5-4.31h-.01v.02Zm33.48-1.4c-.43-1.62-1.55-3.3-2.58-4.21l-4.71 7.61c-.95 1.4-3.39 1.1-5.14-.53-1.75-1.63-3.88-6.54-6.71-5.39-2.55 1.03-1.61 4.32-1.05 6.48 0 0-2.88-.73-3.23 2.74-.26 2.54 1.55 3.31 1.91 4.06-2.07.19-2.48 3.12-.72 4.65 2.21 1.93 4.73 3.12 9.82 2.87 10.28-.5 14-12.26 12.4-18.28h.01Z"/>
    <path fill="#EA563C" fill-rule="evenodd" d="M77.38 89.56c-.03 3.55-2.56 6.41-5.66 6.39-3.1-.02-5.59-2.92-5.56-6.48.03-3.55 2.56-6.41 5.66-6.39 3.1.02 5.59 2.92 5.56 6.48Zm80.81-1c-.03 3.55-2.56 6.41-5.66 6.39-3.1-.02-5.59-2.92-5.56-6.48.03-3.55 2.56-6.41 5.66-6.39 3.1.02 5.59 2.92 5.56 6.48Z" clip-rule="evenodd"/>
    <path fill="#FF462D" d="M78.25 89.29c0 4.09-2.88 7.4-6.44 7.4-3.56 0-6.43-3.31-6.43-7.4s2.88-7.4 6.43-7.4 6.44 3.31 6.44 7.4Zm80.75 0c0 4.09-2.88 7.4-6.44 7.4-3.56 0-6.43-3.31-6.43-7.4s2.88-7.4 6.43-7.4 6.44 3.31 6.44 7.4Zm-42.3 28.75c-8.28-.21-11.05-7.76-11.37-11.72-.1-1.28.85-2.4 2.13-2.5 1.27-.13 2.39.85 2.5 2.12.06.74.82 7.29 6.85 7.44 6.03.15 6.78-7.63 6.81-7.96.11-1.28 1.25-2.23 2.5-2.12 1.28.11 2.23 1.22 2.13 2.49-.34 4.32-3.2 12.44-11.56 12.24l.01.01Z"/>
  </g>
  <defs>
    <clipPath id="mobile__a">
      <path fill="#fff" d="M0 0h215.98v253.01H0z"/>
    </clipPath>
  </defs>
</svg>
