<svg xmlns="http://www.w3.org/2000/svg" width="320" height="397" fill="none" viewBox="0 0 320 397">
  <g clip-path="url(#mobile-confused-spruce__a)">
    <path fill="#F2F1EE" d="M317.86 145.46c-5.28-22.92-15.93-44.25-30.45-60.02-18.47-20.05-41.72-29.69-65.16-29.67-26.86.03-47.45 19.27-75.46 12.55-8.82-2.12-26.16-9.28-32.33-13.01-18.53-11.22-41.17-15.73-69.04-2.19-29.3 14.24-39.01 42.5-33.58 69.61.76 2.93 1.56 5.83 2.33 8.75 2.09 7.98 3.91 16.13 3.9 25.49-.01 16.85-6.25 31.67-12.17 46.66v.01c-1.56 3.96-3.11 7.94-4.51 11.97-7.03 30.17 11.98 72.4 74.63 83.1 79.08 13.5 160.99 7.14 218.36-63.74 8.28-10.23 13.78-21.37 17.63-31.5 7.24-17.68 10.45-38.02 5.85-58.02v.01Z"/>
    <path fill="#B72C25" d="M195.56 183.93c.13.05.27.11.39.15-.12-.05-.26-.11-.39-.15Zm-24.52-5.07h.76c-.3 0-.7 0-1 .01h.24v-.01Zm-81.62 1.9-.26.03.75-.08-.49.05Zm-12.99 3.38h-.02l.08-.03-.06.03Zm-12.94 8.72c-.32.32-.63.62-.93.93.66-.64 1.47-1.42 2.1-2.03-.35.33-.82.76-1.17 1.1Z"/>
    <path fill="#0C6066" d="M237.05 230.47v-.15c-.02-.95-.08-1.48-.2-2.7v.05c0-.07-.01-.13-.02-.2-.03-.32-.07-.64-.11-.95v-.01l-.09-.64c0-.06-.02-.13-.03-.19-.22-1.52-.6-3.36-1.05-4.95-.01-.05-.03-.1-.04-.15-.09-.32-.18-.63-.28-.92-2.76-9.24-8.26-16.15-14.13-21.23-5.02-4.53-10.63-7.89-15.86-10.18-.23-.11-.46-.22-.68-.33a.714.714 0 0 1-.15-.08c-.06-.03-.13-.06-.19-.09-.63-.3-1.18-.55-1.64-.76l-3.28-1.48c-.91-.41-1.79-.79-2.64-1.14-.03-.01-.05-.02-.08-.03-.37-.15-.73-.3-1.09-.44.01 0 .02 0 .03.01 0 0 .04.01.05.02a.689.689 0 0 1-.08-.03 44.808 44.808 0 0 0-1.41-.54.689.689 0 0 1-.08-.03c-.16-.06-.31-.11-.47-.17 0 0-.02 0-.03-.01h-.03c-.63-.24-1.25-.46-1.83-.66-.08-.03-.16-.05-.25-.08-.69-.23-1.35-.45-1.98-.64-.15-.05-.3-.09-.44-.14-.33-.1-.65-.19-.96-.28l-.25-.07c-.18-.05-.38-.11-.58-.16l-.45-.12c-.4-.11-.8-.21-1.15-.3l-.6-.14-.14-.03c-.44-.11-.83-.2-1.17-.28-.71-.16-1.55-.33-2.37-.48-.03 0-.07-.01-.1-.02l-.18-.03c-1.24-.22-2.4-.39-2.93-.45-.09 0-.19-.02-.27-.03-.61-.07-1.16-.13-1.68-.17l.52.04c-1.55-.13-2.2-.19-3.27-.21-.06 0-.13 0-.19-.01-.72-.04-1.68 0-2.39 0l-7.78.17-7.79.17-7.79.17-7.79.17-7.79.17-7.79.17-7.79.17-7.79.17-7.79.17-7.79.17c-.43.02-.92.04-1.41.07h-.14c-.84.05-1.71.12-2.5.2l.26-.03-.87.09c-1.06.12-2.46.34-3.49.58-.8.18-1.49.35-2.12.51l.42-.11-.49.13s-.03.01-.05.02c-1.77.45-3.05.87-4.87 1.62-.5.2-1 .41-1.5.64.08-.04.15-.07.22-.11l-.83.38c-.76.34-1.7.83-2.6 1.33-.03.02-.06.03-.09.05h-.01c.06-.03.13-.07.18-.1l-.33.18c-.24.13-.5.29-.76.45-.96.56-1.78 1.07-2.1 1.3-.31.23-.68.47-1.05.73.11-.08.22-.16.32-.23-.12.09-.28.2-.41.28-.05.03-.09.07-.13.1-.5.35-1 .7-1.4 1.04 0 0-.02.01-.02.02-.77.6-1.73 1.45-2.48 2.07l-1.2 1.16c-.33.31-.64.61-.93.9-.07.07-.15.14-.21.21l-.01.01c-.24.24-.49.51-.75.8-.99 1.06-2.06 2.36-3.14 3.84-.1.14-.21.28-.31.4-.49.64-1.03 1.5-1.51 2.25-.07.11-.14.21-.2.31-.04.06-.08.13-.12.19-.01.02-.99 1.53-2.08 3.74 0 0 0 .02-.01.02-.32.65-.65 1.37-.97 2.12-.16.38-.34.83-.52 1.28 0 .02-.02.04-.03.06-.24.61-.48 1.24-.67 1.78-.07.2-.14.41-.21.63-.29.87-.54 1.7-.75 2.49l-.03.1c-.17.55-.31 1.22-.45 1.87-.04.19-.08.38-.12.56-.06.31-.12.61-.19.88-.23 1.01-.39 2.39-.5 3.42-.11 1.04-.17 2.43-.24 3.47l-.08 2.68-.08 2.68-.08 2.68-.08 2.68-.08 2.68-.08 2.68-.08 2.68-.08 2.68-.08 2.68-.08 2.68c-.02 1.36.02 3.17.1 4.52.06.99.23 2.29.36 3.27.26 1.93.84 4.47 1.44 6.33.04.12.08.25.12.38.43 1.39.93 2.73 1.48 4.01.04.1.08.2.13.3 6.36 14.53 19.58 22.34 27.41 26.21.08.04.16.08.23.12.53.26 1.04.5 1.51.73.14.07.28.13.42.2.46.22.9.42 1.29.6l3.28 1.48c.91.4 2.06.9 3.37 1.43.07.03.15.06.22.09l.21.08c1.12.45 2.33.91 3.63 1.35l1.84.61c.62.2 1.46.45 2.09.64l.37.1c.43.12.84.23 1.22.33l.28.08c.21.05.44.11.69.17.58.14 1.1.27 1.59.38.5.12 1.16.26 1.91.4h.05s.04.02.05.02c.66.12 1.39.25 2.16.36.16.03.32.05.47.08l.33.04a49.769 49.769 0 0 0 2.9.32c.84.07 1.46.11 2.14.13.16 0 .33.02.48.02.74.03 1.74 0 2.48.01l2.65-.06c.44 0 .86-.02 1.24-.03l3.89-.08 7.79-.17 7.79-.17 7.79-.17 7.79-.17 7.79-.17 7.79-.17 7.79-.17c1.23-.03 2.67-.06 4.1-.09l3.69-.08c.33 0 .67-.01 1.03-.02l1.77-.04c.36 0 .73-.02 1.09-.02l3.89-.08c.43-.02.91-.04 1.41-.07h.14c.41-.03.82-.05 1.23-.09.38-.02.75-.05 1.08-.08.12-.01.24-.03.36-.05h.09c.07 0 .15-.01.22-.02h.05s.05-.01.07-.01c1.06-.12 2.46-.34 3.49-.58 3.17-.73 4.66-1.15 7.12-2.16.47-.19.93-.38 1.4-.59.03-.01.06-.03.1-.04.2-.09.4-.17.61-.26.77-.34 1.7-.83 2.61-1.33a.3.3 0 0 1 .08-.04l.16-.08c.24-.13.49-.28.76-.44.97-.56 1.78-1.07 2.11-1.3a21.903 21.903 0 0 1 .81-.56c.64-.44 1.33-.91 1.86-1.35 0 0 .02-.01.02-.02 0 0 .02-.01.03-.02 2.25-1.71 4.18-3.55 5.83-5.4.05-.06.11-.12.16-.18.24-.27.48-.55.71-.82.23-.27.47-.56.7-.85.07-.09.14-.18.22-.27.36-.46.72-.93 1.09-1.43.1-.14.21-.28.31-.4.49-.64 1.03-1.5 1.51-2.25.07-.11.14-.21.2-.31.04-.06.08-.13.12-.19.55-.83 1.18-2 1.64-2.88l.27-.53v-.03c.12-.22.23-.43.33-.65.3-.61.59-1.25.82-1.79.06-.14.12-.29.18-.44.02-.04.04-.09.06-.12l-.05.12c.11-.27.22-.55.34-.84 0-.02.02-.04.02-.06.24-.61.48-1.24.67-1.78.07-.2.14-.41.21-.63.22-.66.41-1.29.59-1.91l.06-.2.03-.11c.02-.09.05-.18.07-.27 0-.03.02-.07.03-.1.17-.55.31-1.21.45-1.87.04-.2.08-.39.12-.58v-.04l.08-.34c-.02.09-.05.18-.07.28.06-.27.11-.53.16-.77.08-.35.15-.74.21-1.15.1-.6.17-1.08.24-1.78.02-.17.04-.34.06-.49.11-1.03.17-2.42.24-3.46l.08-2.68.08-2.68.08-2.68.08-2.68.08-2.68.08-2.68.08-2.68.08-2.68.08-2.68.08-2.68v-.32.31c.04-1.42.05-2.12-.02-3.17v-.13ZM54.56 254.84c-2.32-1.16-4.05-2.17-4.99-2.89.95.72 2.67 1.72 4.99 2.89Zm-4.88-30.32c.06.09.15.18.26.29-.11-.11-.19-.2-.26-.29Zm127.16-44.49c-.41-.13-.81-.25-1.2-.36.39.11.78.23 1.19.36h.01Zm-1.35-.4c-.11-.03-.2-.05-.31-.08.1.03.2.05.31.08ZM117.07 304.9v-.01.01Zm.01-.02v-.02.02Zm119.71-71.02h-.02.02Zm-.25-.08v.11l-.8 26.8c-.02.67-.06 1.34-.11 2.01-.48 4.63-1.41 8.75-2.86 12.56-.15.39-.31.77-.47 1.15l-.21.51c-.23.53-.48 1.06-.73 1.59-.04.07-.07.15-.11.22-.21.43-.43.84-.65 1.26-.14.25-.27.51-.41.76-.09.17-.19.33-.28.49-1.85 3.2-4.19 6.25-7.06 9.31-3.12 3.15-6.68 5.82-10.57 7.85-.17.09-.34.17-.51.25-.37.19-.75.38-1.13.55l-.6.27a39.14 39.14 0 0 1-12.39 3.27c-.89-.06-2.04-.34-2.62.16h-.05l-77.85 1.69v.03-.03h-.9c-4.69-.17-8.72-.94-12.16-2.08-5.47-1.94-10.35-5.15-14.32-9.31-3.03-3.34-5.28-6.74-6.93-10.06-2.72-5.68-4.17-12.17-3.97-19.07l.8-26.8c.67-22.74 19.04-41.78 40.75-42.24h.63c.23-.01.51-.02.85-.02l.76-.02c.65-.01 1.44-.03 2.34-.05l.79-.02c1.55-.03 3.38-.07 5.44-.12h.01c1.69-.04 3.53-.08 5.49-.12h.29c4.02-.09 8.51-.19 13.2-.29h.23c2.12-.05 4.28-.1 6.44-.14l2.2-.05 2.7-.06 2.03-.04c4.41-.1 8.75-.19 12.78-.28l1.22-.03 1.48-.03 2.36-.05h.29l2.83-.06c1.77-.04 3.41-.07 4.9-.11h.49c1.31-.04 2.49-.06 3.52-.09h.56c.41-.02.79-.03 1.15-.04h.63c.27-.02.53-.03.76-.03h.23c.39-.01.69-.02.91-.02h.35c20.87-.47 37.61 16.38 38.27 37.88-.13.88-.44 1.96.01 2.53v.01Zm-63.84-54.77h-.03.03Zm.54.09h.03-.03Zm1.26.27c.02 0 .04 0 .06.01-.02 0-.04 0-.06-.01Zm-72 3.65c.52.22 1.05.44 1.59.68-.54-.24-1.07-.47-1.59-.68Zm-8.6-2.44h-.02.02Z"/>
    <path fill="#29707A" d="M198.25 193.36c21.72-.48 38.97 17.79 38.28 40.53-.27 8.93-.53 17.86-.8 26.8-.67 22.74-19.04 41.78-40.76 42.24-25.95.56-51.9 1.13-77.85 1.69-21.71.48-38.96-17.79-38.28-40.53.27-8.93.53-17.86.8-26.8.67-22.74 19.04-41.78 40.75-42.24 25.95-.56 51.9-1.13 77.85-1.69h.01Z"/>
    <path fill="#CC5200" d="m118.111 279.473-7.48.114a4.27 4.27 0 0 0-4.204 4.334l.029 1.93a4.27 4.27 0 0 0 4.334 4.205l7.48-.114a4.27 4.27 0 0 0 4.204-4.334l-.029-1.93a4.27 4.27 0 0 0-4.334-4.205Z"/>
    <path fill="#FF8419" d="m120.105 280.433-7.479.113a4.27 4.27 0 0 0-4.205 4.335l.029 1.929a4.27 4.27 0 0 0 4.335 4.205l7.479-.114a4.27 4.27 0 0 0 4.205-4.334l-.03-1.93a4.268 4.268 0 0 0-4.334-4.204Z"/>
    <path fill="#B77100" d="m137.814 279.174-7.479.114a4.27 4.27 0 0 0-4.205 4.334l.029 1.93a4.27 4.27 0 0 0 4.335 4.204l7.479-.113a4.27 4.27 0 0 0 4.204-4.334l-.029-1.93a4.27 4.27 0 0 0-4.334-4.205Z"/>
    <path fill="#FFBC31" d="m139.808 280.144-7.479.113a4.271 4.271 0 0 0-4.205 4.335l.03 1.929a4.27 4.27 0 0 0 4.334 4.205l7.479-.114a4.27 4.27 0 0 0 4.205-4.334l-.029-1.93a4.27 4.27 0 0 0-4.335-4.204Z"/>
    <path fill="#fff" d="M121.58 267.33c-6.37-.23-13.31-.76-17.94-4.81-5.48-4.79-5.74-12.67-5.63-19.67.09-6.12.2-12.24.29-18.36.05-2.89.14-5.96 1.83-8.4 2.95-4.27 9.29-5.09 14.74-4.97 34.11.79 60.02.78 95.87-1.8 6.13-.44 11.5 4.28 12.12 10.67.89 9.09 1.01 21.44-1.63 32.23-1.63 6.66-7.07 11.5-13.59 12.29-28.02 3.39-58.29 3.83-86.06 2.82Z"/>
    <path fill="#E3E3E3" d="M202.16 392.99c0 1.87-26.53 3.39-59.25 3.39s-59.25-1.52-59.25-3.39 26.53-3.39 59.25-3.39 59.25 1.52 59.25 3.39Z"/>
    <path fill="#5FBEAC" d="M80.56 160.31c.56 3.61-1.92 6.99-5.53 7.55-3.61.56-6.99-1.92-7.55-5.53-.56-3.61 1.92-6.99 5.53-7.55 3.61-.56 6.99 1.92 7.55 5.53Zm9.82-1.39c-.92.22-1.85-.34-2.09-1.26a14.82 14.82 0 0 0-5.55-8.21 1.74 1.74 0 0 1-.37-2.43 1.74 1.74 0 0 1 2.43-.37c3.37 2.48 5.81 6.09 6.85 10.14.24.93-.32 1.88-1.25 2.12h-.03l.01.01Zm-29.94-4.61a1.739 1.739 0 0 1-1.89-2.61c2.73-4.37 7.19-7.42 12.27-8.3.94-.17 1.85.46 2.02 1.4.17.95-.44 1.89-1.41 2.02-4.09.75-7.72 3.18-9.92 6.72-.25.4-.64.67-1.07.77Zm3.58 21.47c-.51.12-1.07 0-1.51-.34a18.236 18.236 0 0 1-6.48-11.25c-.15-.95.52-1.81 1.44-1.99.95-.15 1.84.5 1.99 1.44a14.73 14.73 0 0 0 5.24 9.1c.74.61.86 1.7.25 2.45-.25.3-.58.51-.94.59h.01Z"/>
    <path fill="#5FBEAC" d="M91.99 191.68a1.74 1.74 0 0 1-1.89-.78l-17.56-28.67c-.5-.82-.24-1.89.57-2.39.82-.51 1.89-.25 2.39.57l17.56 28.67a1.745 1.745 0 0 1-1.07 2.6ZM57.2 252.8c1.09 5.41 5.05 9.18 8.84 8.42 3.79-.76 5.98-5.77 4.89-11.19-1.09-5.41-5.05-9.18-8.84-8.42-3.79.76-5.98 5.77-4.89 11.19Z"/>
    <path fill="#467E89" d="M129.94 288.39c-4.79-.55-9.66-1.37-14.56-2.48-25.2-5.71-46.83-18.26-55.11-31.98a3.986 3.986 0 0 1 1.35-5.47 3.986 3.986 0 0 1 5.47 1.35c7.22 11.95 26.87 23.07 50.06 28.33 27.23 6.16 53 3.04 70.7-8.6a3.97 3.97 0 0 1 5.51 1.14 3.97 3.97 0 0 1-1.14 5.51c-16.24 10.68-38.38 14.92-62.27 12.2h-.01Z"/>
    <path fill="#F7D654" d="M260.78 220.4h-38.93a7.04 7.04 0 0 0-6.05 3.43l-45.1 75.56c-.51.85-.48 1.91.06 2.73l.62.94a5.124 5.124 0 0 0 4.58 2.28l36.53-2.3a7.928 7.928 0 0 0 6.22-3.69l45.39-71.98c.85-1.35.83-3.07-.05-4.4l-.82-1.24a2.962 2.962 0 0 0-2.45-1.32v-.01Z"/>
    <path fill="#FCA203" d="m263.69 222.42-.46-.7a2.962 2.962 0 0 0-2.45-1.32h-38.93a7.04 7.04 0 0 0-6.05 3.43l-45.1 75.56c-.51.85-.48 1.91.06 2.73 1.04 1.57 3.37 1.52 4.34-.1l43.98-73.68a6.566 6.566 0 0 1 5.64-3.2h37.51c1.4 0 2.23-1.56 1.46-2.72Z"/>
    <path fill="#fff" d="M239.67 239.85c-1.63 2.72-4.59 3.94-6.59 2.73-2.01-1.21-2.31-4.39-.68-7.11 1.63-2.72 4.59-3.94 6.59-2.73 2.01 1.21 2.31 4.39.68 7.11Zm-7.95 11.13c-1.22 2.03-3.42 2.94-4.92 2.04-1.5-.9-1.72-3.28-.5-5.3 1.22-2.03 3.42-2.94 4.92-2.04 1.5.9 1.72 3.28.5 5.3Zm-6.67 9.5c-.91 1.51-2.54 2.18-3.65 1.51-1.11-.67-1.28-2.43-.37-3.94.91-1.51 2.54-2.18 3.65-1.51 1.11.67 1.28 2.43.37 3.94Z"/>
    <path fill="#467E89" d="M210.79 268.48c-.35-3.15-8.2-.79-11.31-.84-3.11-.05-5.68-.91-5.93-3.94-.2-2.51 3.27-8.07 3.27-8.07-2.39-.24-5.39-.45-8.65-.25-8.05.49-10.27 6.63-11.28 13.43-.72 4.83 2.18 11.28 8.55 13.78 6.36 2.5 11.27 2.58 14.71 1.67 3.4-.9 4.65-3.31 3.9-5.27.95-.31 1.82-.7 2.46-1.23 2.91-2.37 1.79-4.26.81-4.99h-.02c2.23-1.19 3.67-2.75 3.5-4.31h-.01v.02Zm33.48-1.4c-.43-1.62-1.55-3.3-2.58-4.21l-4.71 7.61c-.95 1.4-3.39 1.1-5.14-.53-1.75-1.63-3.88-6.54-6.71-5.39-2.55 1.03-1.61 4.32-1.05 6.48 0 0-2.88-.73-3.23 2.74-.26 2.54 1.55 3.31 1.91 4.06-2.07.19-2.48 3.12-.72 4.65 2.21 1.93 4.73 3.12 9.82 2.87 10.28-.5 14-12.26 12.4-18.28h.01Z"/>
    <path fill="#5FBEAC" d="M134.99 232.66c0 4.09-2.88 7.4-6.44 7.4-3.56 0-6.43-3.31-6.43-7.4s2.88-7.4 6.43-7.4 6.44 3.31 6.44 7.4Zm72.76 0c0 4.09-2.88 7.4-6.44 7.4-3.56 0-6.43-3.31-6.43-7.4s2.88-7.4 6.43-7.4 6.44 3.31 6.44 7.4Zm-49.21 27.49c-.27 0-.55-.07-.81-.18a2.049 2.049 0 0 1-1-2.72c1.71-3.7 5.11-6.16 8.66-6.27 3.56-.13 7.02 2.2 8.7 5.87.47 1.03.02 2.24-1.01 2.71a2.05 2.05 0 0 1-2.71-1.01c-.98-2.14-2.91-3.52-4.85-3.47-1.98.06-4.02 1.62-5.07 3.9-.35.76-1.11 1.2-1.9 1.19l-.01-.02Zm-43.05-34.17c-2.09 0-4.02-.29-5.54-.69a2.002 2.002 0 0 1 1.02-3.87c.52.14 12.65 3.18 15.63-6.8a1.996 1.996 0 0 1 2.49-1.34c1.06.32 1.66 1.43 1.34 2.49-2.4 8.03-9.24 10.21-14.95 10.21h.01Zm76.31.12c-.41 0-.82-.12-1.17-.38a2.01 2.01 0 0 1-.45-2.79c5.89-8.13 14.53-7.73 18.28-6.38 1.04.37 1.58 1.52 1.2 2.56a1.994 1.994 0 0 1-2.55 1.21c-.36-.13-8.13-2.7-13.69 4.96-.39.54-1 .83-1.62.83v-.01Z"/>
    <path fill="#E3E3E3" d="M240.24 105.33c-3.2 0-6.35-.23-9.43-.64-.08 5.24-.57 11.22-1.87 17.73a98.787 98.787 0 0 1-10.79 29.16c7.29-2.07 20.25-6.85 32.36-18.2 7.3-6.84 18.39-23.89 19.01-34.19-9.34 3.95-19.44 6.14-29.28 6.14Z"/>
    <path fill="#E3E3E3" d="M221.57 119.14c47.32 0 85.68-26.67 85.68-59.57S268.89 0 221.57 0c-47.32 0-85.68 26.67-85.68 59.57s38.36 59.57 85.68 59.57Z"/>
    <path fill="#fff" d="M215.43 65.51v-2.62c0-1.99.42-3.67 1.24-5.05.83-1.37 2.3-2.71 4.42-4.01 1.68-1.04 2.89-1.97 3.62-2.81.73-.83 1.1-1.79 1.1-2.87 0-.85-.4-1.53-1.18-2.03-.79-.5-1.81-.75-3.08-.75-3.13 0-6.79 1.09-10.98 3.26l-4.32-8.29c5.16-2.89 10.55-4.33 16.17-4.33 4.63 0 8.25.99 10.88 2.99 2.63 1.99 3.95 4.71 3.95 8.14 0 2.46-.58 4.59-1.76 6.39-1.17 1.8-3.04 3.5-5.61 5.11-2.18 1.38-3.54 2.39-4.09 3.03-.55.64-.82 1.4-.82 2.27v1.56h-9.55l.01.01Zm-1.33 10.68c0-1.87.55-3.31 1.66-4.33 1.11-1.01 2.74-1.53 4.9-1.53s3.66.51 4.77 1.54c1.11 1.03 1.66 2.47 1.66 4.31 0 1.84-.58 3.29-1.73 4.3-1.15 1.01-2.72 1.53-4.71 1.53-1.99 0-3.66-.5-4.82-1.51-1.16-1-1.74-2.44-1.74-4.31h.01Z"/>
  </g>
  <defs>
    <clipPath id="mobile-confused-spruce__a">
      <path fill="#fff" d="M0 0h320v396.38H0z"/>
    </clipPath>
  </defs>
</svg>
