<svg xmlns="http://www.w3.org/2000/svg" width="324" height="280" fill="none" viewBox="0 0 324 280">
  <g clip-path="url(#tech-issue__a)">
    <path fill="#CC5239" d="M269.63 135.53c-5.91 0-12.26-.82-19.01-2.47a2.988 2.988 0 0 1-2.19-3.61c.39-1.6 2.01-2.57 3.61-2.19 13.84 3.39 38.95 5.87 51.56-15.7.83-1.42 2.66-1.9 4.08-1.07 1.42.83 1.9 2.66 1.07 4.08-8.06 13.8-21.64 20.96-39.12 20.96Z"/>
    <path fill="#CC5239" d="M302.64 114.86c-3.95-2.78-5.08-5.43-5.83-7.29-.88-2.19-2.07-6.12.26-6.67 2.3-.54 2.84 1.19 3.94 2.99 1.39 2.28 2.98 2.54 3.68 2.61.79.08 1.89-1.41 2.44-2.61 1.08-2.36 4.48.3 7.14 2.44 2.67 2.13 4.92 4.9 2.97 7.04-1.95 2.15-4.6 3.69-7.48 3.85-2.88.16-4.93-.82-7.13-2.37l.01.01Z"/>
    <path fill="#CC5239" d="M306.93 108.19c-2.76-1.09.91-4.15 1.14-7.65.12-1.91-.32-5.69 2.35-5.98 2.67-.29 3.07 3.33 2.78 5.76-.28 2.43-2.53 9.34-6.27 7.86v.01Z"/>
    <path fill="#CC5239" d="M311.95 109.41c-2.68-1.48 1.18-5.85 1.99-7.61.81-1.76 1.74-5.93 4.26-5.09 2.52.84 1.51 4.01.67 6.22s-3.59 8.33-6.93 6.49l.01-.01Z"/>
    <path fill="#CC5239" d="M312 116.13c-1.48-1.28 2.26-5.51 3.1-6.58.83-1.08 2.02-2.21 2.78-3.29.76-1.09 1.44-2.2 2.29-3.1.85-.9 1.91-1.61 3.01-.89 1.11.71.84 1.87.42 3s-.9 1.87-1.69 3.02c-.78 1.16-1.95 2.68-3.1 3.79-1.16 1.11-5.33 5.34-6.81 4.06v-.01Z"/>
    <path fill="#B72C25" d="M255.09 147.41c.04-.39.06-.83.07-1.27.03-.66.04-1.19.02-1.95v-.55c0-.64-.05-1.39-.09-2.14.02.23.04.45.05.66-.04-.68-.1-1.57-.14-2.26v-.08l-.08-.9-.06-.69c-.01-.15-.03-.3-.04-.45l-.06-.67-.08-.9-.08-.9-.08-.9-.08-.9-.08-.9-.08-.9-.08-.9-.07-.79c0-.08-.01-.16-.02-.25l-.07-.76-.05-.58-.06-.74-.04-.48-.04-.43c-.03-.33-.06-.66-.08-.99l-.03-.38-.02-.29-.12-1.41v-.1l-.09-.9-.08-.9c0-.05 0-.09-.01-.14v-.08c-.19-1.9-.3-2.85-.56-4.18-.02-.09-.03-.18-.04-.27-.07-.36-.14-.72-.21-1.07-.1-.57-.23-1.19-.38-1.86-1.59-7.62-5.48-16.81-14.5-24.24-.01 0-.02-.02-.03-.03a.435.435 0 0 0-.07-.06c-.72-.63-1.21-1.04-1.89-1.56l-.4-.31c-.11-.09-.23-.17-.35-.26-.37-.28-.73-.54-1.07-.78-.07-.05-.14-.11-.22-.16l.13.09c-.26-.19-.52-.36-.77-.53l-.11-.08-.13-.08c-1.02-.68-1.87-1.19-2.44-1.53-.43-.26-1.51-.87-3.02-1.62-.02 0-.04-.02-.05-.03l-.07-.03c-.65-.32-1.37-.66-2.17-1.01l-.07-.03c-.08-.04-.18-.08-.27-.12a55.539 55.539 0 0 0-3.86-1.53l-.34-.13c-.1-.04-.22-.08-.33-.11-.01 0-.02 0-.04-.01-.14-.05-.28-.1-.43-.15-.03-.01-.06-.02-.1-.03-.1-.04-.21-.07-.31-.11.04.02.09.03.13.05-.25-.08-.5-.17-.75-.25-3.83-1.28-7.56-2.16-10.95-2.8-.44-.09-.86-.17-1.28-.24-.13-.03-.27-.05-.39-.07l-.23-.04c-.27-.05-.52-.09-.78-.13l-1.07-.18-1.14-.18-2.12-.3-4.47-.6s-.07 0-.1-.01h.01-.03c-.5-.07-1.09-.14-1.63-.2a4.69 4.69 0 0 1-.37-.05c-.03 0-.07 0-.1-.01l-.69-.07c-.43-.05-.86-.1-1.28-.14h-.14c-.28-.04-.61-.07-.94-.1l-1.02-.09c-.08 0-.16-.01-.23-.02l-.25-.02c-.6-.05-1.18-.09-1.74-.12h-.13c-1.6-.1-2.97-.14-4.07-.16h-2.47c-.49 0-.92.01-1.34.02h.19c-.2 0-.47.01-.68.02-.09 0-.19 0-.29.01-.87.03-1.55.06-2.07.09-1.18.07-1.8.11-2.83.23l-.25.02c-.66.08-1.53.19-2.2.27h-.01l-6.53.92-6.53.92-6.53.92-6.53.92-6.53.92-6.53.92-6.53.92-6.53.92-6.53.92-6.53.92c-.26.04-.5.08-.72.11l-.2.03c-.81.13-1.43.23-2.02.35-.4.08-.82.16-1.25.26h.06l-.12.01h-.03l-.09.02h-.02c-.6.13-1.24.29-1.91.47l-.22.05-.16.05c-.68.19-1.38.39-2.12.63l-.13.04c-.09.03-.19.07-.29.1-.35.12-.69.23-1.05.36-.45.16-.94.36-1.45.57h-.02s-.02.01-.03.02c-.15.06-.31.14-.47.2-.33.13-.66.26-.96.38l-2.14 1.04s.02-.01.03-.02c-.23.11-.46.22-.66.33-.55.27-1.18.64-1.8 1.02l-.49.29c-.06.04-.12.08-.19.13-.3.18-.58.36-.85.52-.66.39-1.67 1.11-2.68 1.88-.02.01-.03.03-.05.04-.01 0-.03.02-.04.03-1.11.84-2.19 1.73-2.76 2.27-.47.45-1.04.96-1.58 1.48l-.01.01c-.34.33-.68.65-.95.95-.01.01-.02.02-.03.04-.21.22-.43.46-.66.71-.2.21-.39.41-.55.6-.05.06-.1.12-.15.19-.32.36-.64.72-.92 1.04l.02-.03-.04.05-.04.06-1.06 1.32c-.11.16-.22.31-.33.47l-.71.92s-.03.04-.04.06c-.04.05-.12.16-.27.36-.47.64-.96 1.37-1.37 2.05-.66 1.05-1.46 2.41-2.29 4.03-.8 1.5-1.49 2.98-2.02 4.44-.64 1.6-1.24 3.32-1.74 5.16-.13.4-.24.86-.35 1.33-.16.66-.31 1.3-.44 1.92l-.07.3s-.3 1.36-.58 3.37c0 .03 0 .07-.01.1 0 .03 0 .06-.01.09 0 .02 0 .05-.01.08v.06c-.15 1.08-.28 2.33-.36 3.66-.09 1.53-.13 2.14-.09 3.52v.25c.06 1.15.13 2.67.19 3.82l.08.9.07.82c0 .06.01.12.02.18l.07.8.05.61.06.67.04.52.03.4.09 1.05.03.35.03.32.12 1.34v.14l.02.11c.11 1.24.21 2.49.32 3.73l.06.66.04.5c.03.31.05.61.08.92l.03.38.02.29c.04.43.07.85.11 1.28l.02.23.02.21c.05.53.09 1.06.14 1.59.06.47.12.97.19 1.49.01.11.03.22.04.33.03.24.07.46.1.69.06.42.13.84.19 1.27 0 .05.01.1.02.14.17 1.07.35 2.13.53 3.05.21 1.08.66 2.47.95 3.53.56 2.07 1.64 4.75 2.6 6.67.08.16.16.3.23.46.08.17.17.34.26.51.28.54.54 1.05.81 1.53.06.11.12.22.19.33 1.05 1.89 2.13 3.55 4.04 6.02.63.81 1.51 1.86 2.23 2.6 1.51 1.54 2.41 2.42 3.36 3.25l.64.58c3 2.63 6.46 4.75 10.04 6.48.28.14.56.28.81.4.83.39 1.65.75 2.39 1.05.03.01.06.02.08.04l.08.03c.86.35 1.6.63 2.06.81.61.23 1.38.5 2.14.76h.03c.81.28 1.61.53 2.16.69.05.01.08.02.13.04.58.17 1.26.37 1.8.52l.42.11c.49.13.94.25 1.37.36l.21.06c.24.06.51.13.78.19.41.1.82.2 1.28.31.47.11 1.16.26 1.85.41l.17.04c.17.03.34.07.53.11.66.14 1.26.26 1.58.31.25.05.48.09.7.13l1.37.25c.2.03.41.07.64.11.33.06.66.11 1.02.16.18.03.36.06.52.08l2.12.3 4.46.6.78.1.7.08c.23.03.47.06.69.08l.73.09c.18.02.39.04.6.06l1.16.12c.15.01.3.03.43.04h.02c.69.06 1.38.12 2.06.17.19.01.41.03.63.04.39.03.77.05 1.16.07.13 0 .26.02.38.02l.48.02.77.03c.13 0 .27.01.4.02l.39.02 1.06.03h.46c.24 0 .47 0 .67.01.88.01 1.73 0 2.52-.01h.05c.45 0 .88-.02 1.27-.04.16 0 .31 0 .46-.01l.52-.03c.65-.03 1.18-.06 1.51-.08a40.874 40.874 0 0 0 2.58-.23c.46-.06 1.02-.13 1.54-.19.19-.02.39-.05.61-.07l6.53-.92 6.53-.92 6.53-.92 6.53-.92 6.53-.92 6.53-.92 6.53-.92 6.53-.92 6.53-.92 6.53-.92c.24-.04.47-.07.68-.11.08-.01.16-.03.25-.04a51.847 51.847 0 0 0 5.38-1.13c.07-.02.13-.03.21-.05l.16-.05c.68-.19 1.38-.39 2.12-.63l.13-.04.29-.1c.35-.12.69-.23 1.05-.36.08-.03.17-.07.26-.1.08-.03.15-.05.24-.08-.07.02-.15.05-.22.07.53-.2 1.1-.43 1.68-.68.33-.13.66-.26.95-.38l1.43-.69c.29-.14.55-.27.82-.4.04-.02.08-.04.13-.06.04-.02.1-.05.15-.07l.26-.13c.02-.01.05-.03.08-.04.71-.36 1.78-.96 3.13-1.84.04-.02.08-.05.12-.07.66-.39 1.69-1.12 2.7-1.89l.03-.02.11-.08s.05-.04.07-.06l.12-.09.03-.02c1-.77 1.95-1.55 2.47-2.05.02-.02.05-.05.08-.07.02-.02.04-.03.06-.05l-.05.05c.76-.72 1.77-1.6 2.46-2.36.01-.01.02-.02.03-.04.35-.36.73-.78 1.11-1.21.12-.13.23-.26.35-.38l.25-.28c.12-.14.23-.27.35-.39l.15-.18c.56-.66.99-1.2 1.25-1.56.1-.14.2-.29.3-.43.01-.02.02-.03.03-.04l.65-.84s.03-.04.04-.06c.04-.05.12-.16.27-.36.47-.64.96-1.37 1.37-2.04 1.59-2.52 3.99-6.85 5.65-12.24a46.613 46.613 0 0 0 .78-2.83c0-.04.02-.07.03-.11.17-.7.34-1.41.46-2.01.04-.2.08-.43.12-.66.2-1.01.35-1.97.48-2.89 0-.03.01-.07.02-.1.1-.61.17-1.35.23-2.07l.06-.75c.02-.31.05-.61.07-.89l.05-.04ZM107.6 83.7h-.02.02Zm69.71-9.29h.04-.04Zm-25.2 126.58v-.02.02Zm100.6-82.14c0 1.05-.32 2.48.38 3.06v.04l1.55 18.01c.03.33.04.65.06.97.19 4.79-.07 9.16-.84 13.27-.55 2.81-1.33 5.55-2.32 8.18 0 .01 0 .02-.01.03-.15.39-.31.77-.47 1.16-1.53 3.68-3.57 7.27-6.15 10.95-2.83 3.8-6.18 7.13-9.94 9.83-.19.14-.39.27-.59.41-.34.23-.67.46-1.01.68-.21.14-.43.27-.64.4-3.84 2.39-8.04 4.14-12.5 5.11-.92.05-2.12-.09-2.67.49-.02 0-.04 0-.06.01l-65.32 9.18c-.39.06-.78.09-1.17.13-7.74.56-14.88-.87-21.08-4.01-6.36-3.33-11.85-8.47-15.86-14.91-.14-.22-.27-.44-.4-.67l-.48-.81c-1.25-2.21-2.34-4.59-3.29-7.11-.15-.41-.3-.83-.44-1.25-.02-.05-.03-.1-.05-.15-1.16-3.51-1.93-7.25-2.27-11.17l-1.55-18.01c-2.17-25.13 14.58-48.32 37.16-51.49L208.07 82c14.03-1.98 27.17 4.22 35.63 15.23.26.34.51.68.76 1.03l.39.54c.23.33.46.67.68 1.01.17.26.35.52.51.79.13.21.26.42.39.64.26.42.51.85.76 1.29 2.6 4.8 4.48 10.27 5.52 16.31v.01ZM117.37 83.93h-.04.04Zm-3.32-.26h-.03.03Zm60.1-9.23c-.2 0-.4.02-.59.04.2-.01.39-.03.59-.04Zm.87-.02c.2 0 .39-.01.6-.01-.2 0-.4 0-.6.01Zm-98.73 65.29c-.2-.03-.39-.06-.58-.09l.58.09Zm-1.58-.24c-.19-.03-.38-.06-.56-.09l.56.09Zm.61 17.87.36.06c-.12-.02-.25-.04-.36-.06Zm.96.14c.31.05.63.1.96.14-.33-.05-.65-.1-.97-.14h.01Zm1.58.24c.36.05.72.1 1.09.16-.37-.05-.74-.1-1.1-.16h.01Zm1.66.24s.09.01.14.02c-.05 0-.09-.01-.14-.02Zm-6.32-18.72-.35-.06c.11.02.23.04.35.06Zm-.23 17.72h.02-.02Zm.89.14h.01-.01Zm.29.05h.01-.01Z"/>
    <path fill="#B72C25" d="m91.21 88.45-.15.09c.62-.3 1.29-.63 1.83-.9-.5.24-1.18.55-1.68.81Z"/>
    <path fill="#FF462D" d="M208.07 82.01c22.58-3.18 42.87 14.81 45.02 39.94.52 6 1.03 12 1.55 18.01 2.17 25.13-14.57 48.32-37.15 51.49l-65.32 9.18c-22.58 3.18-42.87-14.81-45.03-39.94-.52-6-1.03-12-1.55-18.01-2.17-25.13 14.58-48.32 37.16-51.49l65.32-9.18Z"/>
    <path fill="#fff" d="M127.08 114.14c4.68-4.8 13.28-6.85 19.62-8.17 7.93-1.65 14.26-3.25 22.22-4.8 16.99-3.3 34.6-5.04 51.94-3.63 9.13.74 13.54 5.11 15.88 14.76 1.68 6.9 2.46 17.9 2.45 25.85-.01 8.81-3.87 14.03-11.09 15.23l-86.41 13.27c-7.05 1.17-15.19-3.54-16.3-12.06 0 0-2.33-13.98-3.13-23.96-.51-6.4 1.05-12.64 4.81-16.49h.01Z"/>
    <path fill="#CC5200" d="m145.188 179.059-7.449.678a4.27 4.27 0 0 0-3.865 4.64l.174 1.922a4.27 4.27 0 0 0 4.64 3.865l7.449-.678a4.27 4.27 0 0 0 3.866-4.639l-.175-1.922a4.271 4.271 0 0 0-4.64-3.866Z"/>
    <path fill="#FF8419" d="m147.174 178.88-7.45.678a4.269 4.269 0 0 0-3.865 4.639l.175 1.922a4.27 4.27 0 0 0 4.639 3.865l7.45-.677a4.27 4.27 0 0 0 3.865-4.64l-.175-1.922a4.27 4.27 0 0 0-4.639-3.865Z"/>
    <path fill="#B77100" d="m164.805 177.269-7.449.677a4.27 4.27 0 0 0-3.865 4.64l.174 1.922a4.27 4.27 0 0 0 4.64 3.865l7.449-.678a4.27 4.27 0 0 0 3.866-4.639l-.175-1.922a4.27 4.27 0 0 0-4.64-3.865Z"/>
    <path fill="#FFBC31" d="m166.801 177.089-7.45.678a4.27 4.27 0 0 0-3.865 4.639l.175 1.922a4.27 4.27 0 0 0 4.639 3.866l7.45-.678a4.27 4.27 0 0 0 3.865-4.64l-.175-1.922a4.27 4.27 0 0 0-4.639-3.865Z"/>
    <path fill="#F1F1F1" d="M230.3 275.79c0 1.87-26.53 3.39-59.25 3.39s-59.25-1.52-59.25-3.39 26.53-3.39 59.25-3.39 59.25 1.52 59.25 3.39Z"/>
    <path fill="#FFBC31" d="M89.76 59.17c.56 3.61-1.92 6.99-5.53 7.55-3.61.56-6.99-1.92-7.55-5.53-.56-3.61 1.92-6.99 5.53-7.55 3.61-.56 6.99 1.92 7.55 5.53Zm9.82-1.39c-.92.22-1.85-.34-2.09-1.26a14.82 14.82 0 0 0-5.55-8.21 1.74 1.74 0 0 1-.37-2.43 1.74 1.74 0 0 1 2.43-.37c3.37 2.48 5.81 6.09 6.85 10.14.24.93-.32 1.88-1.25 2.12h-.03.01v.01Zm-29.94-4.61a1.739 1.739 0 0 1-1.89-2.61c2.73-4.37 7.19-7.42 12.27-8.3.94-.17 1.85.46 2.02 1.4.17.95-.44 1.89-1.41 2.02-4.09.75-7.72 3.18-9.92 6.72-.25.4-.64.67-1.07.77Zm3.58 21.47c-.51.12-1.07 0-1.51-.34a18.236 18.236 0 0 1-6.48-11.25c-.15-.95.52-1.81 1.44-1.99.95-.15 1.84.5 1.99 1.44a14.73 14.73 0 0 0 5.24 9.1c.74.61.86 1.7.25 2.45-.25.3-.58.51-.94.59h.01Z"/>
    <path fill="#FFBC31" d="M101.19 90.54a1.74 1.74 0 0 1-1.89-.78L81.74 61.09c-.5-.82-.24-1.89.57-2.39.82-.51 1.89-.25 2.39.57l17.56 28.67a1.745 1.745 0 0 1-1.07 2.6Z"/>
    <path fill="#EE893A" d="M87.7 159.13c-1.03 5.84-5.17 9.99-9.26 9.27-4.09-.72-6.57-6.04-5.55-11.87 1.03-5.84 5.17-9.99 9.26-9.27 4.09.72 6.57 6.04 5.55 11.87Z"/>
    <path fill="#CC5239" d="M43.32 217.29c-1.92 0-3.57-1.46-3.76-3.41-2.33-24.05 12.55-54.84 37.64-60.56 2.03-.47 4.06.81 4.53 2.85.46 2.04-.81 4.06-2.85 4.53-20.65 4.71-33.82 31.58-31.8 52.46.2 2.08-1.32 3.93-3.4 4.13-.12 0-.25.02-.37.02v-.02h.01Z"/>
    <path fill="#FFBC31" d="M62.56 254.63a15.404 15.404 0 0 1-9.01-15.46c.04-.46.1-.89.18-1.35.22-1.2.59-2.39 1.11-3.55.72-1.58 1.66-3 2.77-4.17.02 0 .03 0 .04-.03a15.372 15.372 0 0 1 17.53-3.51c2.75 1.23 4.95 3.16 6.5 5.5l-2.35 5.18-7.98-3.58-8.03 4.43 2.01 8.95 7.98 3.58-2.33 5.2c-2.76.4-5.68.02-8.41-1.2h-.01v.01Z"/>
    <path fill="#FFBC31" d="m59.17 230.96-1.56-.86c-1.11 1.17-2.05 2.59-2.77 4.17-.52 1.16-.89 2.35-1.11 3.55l2.02.73 3.42-7.59Zm-16.46-8.36-7.42-3.73-.12-.06-7.04-3.52-.55-.28-4.18-2.1-1.24-.63-13.36-6.31a5.97 5.97 0 0 0-8.28 2.78c-1.41 3.16.15 6.86 3.41 8.02l19.91 8.65 5.42 2.25 1.51.63 6.77 2.8c.28-1.05.49-2.01.67-2.65.75-2.67 2.48-6.04 4.49-5.85h.01Zm-37.38-9.03c-1.22-.55-1.76-2-1.21-3.22a2.416 2.416 0 0 1 3.2-1.21c1.22.55 1.78 1.99 1.23 3.21s-2.01 1.78-3.23 1.23h.01v-.01Z"/>
    <path fill="#FFBC31" d="m53.73 237.82-.14-.05-7.85-3.26-4.64-1.92-3.56-1.48c.28-1.05.49-2.01.67-2.65.75-2.67 2.48-6.04 4.49-5.85l1.4.7 7.2 3.62 5.84 2.93.46.25c-1.11 1.17-2.05 2.59-2.77 4.17-.52 1.16-.89 2.35-1.11 3.55l.01-.01Z"/>
    <path fill="#CC5239" d="m43.97 233.76 4.64 1.92c-1.82 1.68-4.95.7-4.64-1.92Z"/>
    <path fill="#CC5239" d="M34.53 236.53c-1.75-1.36-1.65-4-.83-6.79 1.16-4 3.78-8.29 4.51-9.44.1-.15.16-.23.17-.28l-.28.22c-.86.75-3.47 3.3-5.9 8.87-.07.15-.12.29-.19.44-1.28 3.05-5.84 2.69-5.29-2.25l.06-.44c.55-3.8 2.83-7.84 4.28-10.14.68-1.06 1.19-1.74 1.27-1.87-.14.08-.85.52-1.82 1.59-.8.88-1.76 2.2-2.7 4.09-1.4 2.83-4.98 4.61-5.1.36-.01-.64.07-1.36.24-2.11.02-.07.03-.13.05-.2.12-.49.26-.99.46-1.51.21-.59.46-1.2.77-1.81.26-.51.54-1.03.86-1.54.43-.74.93-1.45 1.48-2.16.37-.48.75-.94 1.17-1.37 1.4-1.53 3.03-2.88 4.85-3.85 6.47-3.49 14.01-1.94 19.81 4.87 3.16 3.7 3.68 8.87 2.8 13.54-.06.3-.11.57-.18.84 0 .11-.05.23-.08.34-.05.26-.12.51-.18.76l-.18.61c-.06.23-.14.46-.22.67v.05c-.05.12-.09.24-.13.35l-7.2-3.62-.11-.11c-.44-.38-.87-.56-1.29-.59-2.01-.19-3.74 3.18-4.49 5.85-.18.64-.39 1.61-.67 2.65-.87 3.07-2.42 6.7-5.93 3.99l-.01-.01Z"/>
    <path fill="#E3E3E3" d="M204.09 19.49v-.02c.15-1.17.17-2.35.05-3.5v-.02c1.55-1.24 2.2-3.37 1.42-5.3-.77-1.94-2.71-3.04-4.69-2.86v-.02a14.85 14.85 0 0 0-2.45-2.5h-.02c.23-1.97-.82-3.94-2.74-4.76a4.588 4.588 0 0 0-5.34 1.3h-.02c-1.17-.15-2.35-.17-3.5-.05h-.02c-1.24-1.55-3.37-2.2-5.3-1.42-1.94.77-3.04 2.72-2.86 4.69h-.02c-.92.71-1.76 1.53-2.5 2.44v.02c-1.97-.23-3.95.82-4.77 2.74-.82 1.92-.23 4.07 1.3 5.35v.02c-.15 1.17-.16 2.34-.05 3.5v.02c-1.55 1.23-2.2 3.37-1.43 5.31.77 1.94 2.71 3.04 4.69 2.86v.02c.71.92 1.53 1.76 2.45 2.5h.02c-.23 1.97.83 3.94 2.74 4.76 1.92.82 4.07.23 5.34-1.3h.02c1.17.15 2.35.17 3.5.05h.02c1.24 1.55 3.37 2.2 5.3 1.42 1.94-.77 3.04-2.71 2.86-4.69h.02c.92-.71 1.76-1.53 2.5-2.45v-.02c1.97.23 3.94-.82 4.77-2.74.83-1.92.23-4.07-1.3-5.34l.01-.01Zm-17.82 2.86a5.262 5.262 0 0 1-2.76-6.9c1.14-2.67 4.24-3.9 6.9-2.76 2.67 1.14 3.9 4.23 2.76 6.9-1.14 2.67-4.23 3.9-6.9 2.76Zm49.64 209.91c.1-.8.11-1.59.03-2.37 1.05-.84 1.48-2.28.96-3.59a3.09 3.09 0 0 0-3.16-1.93 9.83 9.83 0 0 0-1.65-1.7c.15-1.33-.56-2.66-1.85-3.21a3.115 3.115 0 0 0-3.6.87h-.02c-.79-.1-1.58-.11-2.36-.03a3.098 3.098 0 0 0-3.58-.96c-1.31.52-2.05 1.83-1.93 3.17-.62.48-1.18 1.03-1.69 1.65-1.33-.14-2.66.57-3.22 1.86s-.15 2.75.88 3.6c-.1.8-.11 1.59-.03 2.37-1.05.84-1.49 2.28-.96 3.59.52 1.3 1.83 2.05 3.16 1.93.48.63 1.03 1.2 1.65 1.7-.15 1.33.56 2.66 1.85 3.21 1.29.55 2.74.15 3.6-.87.79.1 1.58.11 2.36.03h.02a3.098 3.098 0 0 0 3.58.96 3.09 3.09 0 0 0 1.93-3.16c.62-.48 1.19-1.03 1.69-1.65 1.33.14 2.66-.57 3.21-1.86.55-1.29.15-2.75-.87-3.6v-.01Zm-12.02 1.93a3.542 3.542 0 1 1 2.79-6.508 3.542 3.542 0 0 1-2.79 6.508Z"/>
    <path fill="#F7D654" d="M316.62 77.83c.1-.8.11-1.59.03-2.37 1.05-.84 1.48-2.28.96-3.59a3.09 3.09 0 0 0-3.16-1.93 9.83 9.83 0 0 0-1.65-1.7h-.01c.15-1.33-.56-2.66-1.85-3.21a3.115 3.115 0 0 0-3.6.87h-.02c-.79-.1-1.58-.11-2.36-.03h-.01a3.098 3.098 0 0 0-3.58-.96c-1.31.52-2.05 1.83-1.93 3.17h-.01c-.62.48-1.18 1.03-1.69 1.65-1.33-.14-2.66.57-3.22 1.86s-.15 2.75.88 3.6c-.1.8-.11 1.59-.03 2.37-1.05.84-1.49 2.28-.96 3.59.52 1.3 1.83 2.05 3.16 1.93.48.63 1.03 1.2 1.65 1.7h.01c-.15 1.33.56 2.66 1.85 3.21 1.29.55 2.74.15 3.6-.87h.01c.79.1 1.58.11 2.36.03h.02a3.098 3.098 0 0 0 3.58.96 3.09 3.09 0 0 0 1.93-3.16h.01c.62-.48 1.19-1.03 1.69-1.65 1.33.14 2.66-.57 3.21-1.86.55-1.29.15-2.75-.87-3.6v-.01Zm-12.02 1.93a3.542 3.542 0 1 1 2.79-6.508 3.542 3.542 0 0 1-2.79 6.508Z"/>
    <path fill="#FF462D" d="M186.42 148.66c-.27.03-.55 0-.83-.08a2.057 2.057 0 0 1-1.34-2.57c1.23-3.89 4.29-6.76 7.79-7.32 3.51-.58 7.24 1.29 9.37 4.72.6.96.3 2.22-.66 2.82-.96.59-2.22.3-2.82-.66-1.24-2-3.33-3.12-5.25-2.83-1.96.31-3.78 2.12-4.53 4.51-.25.8-.95 1.33-1.73 1.42v-.01Zm-29.27-10.73a1.95 1.95 0 0 1-1.44-.37l-12.82-9.65a1.923 1.923 0 0 1-.38-2.71c.64-.86 1.86-1.03 2.71-.38l12.82 9.65c.86.64 1.03 1.86.38 2.71-.32.43-.79.68-1.28.75h.01Z"/>
    <path fill="#FF462D" d="M145.92 139.52a1.95 1.95 0 0 1-1.44-.37 1.923 1.923 0 0 1-.38-2.71l9.65-12.82c.64-.86 1.86-1.03 2.71-.38.86.64 1.03 1.86.38 2.71l-9.65 12.82c-.32.43-.79.68-1.28.75h.01Zm82.05-11.79c-.44.06-.9-.04-1.29-.33l-11.5-8.66c-.77-.58-.92-1.67-.34-2.43.58-.77 1.67-.92 2.43-.34l11.5 8.66c.77.58.92 1.67.34 2.43-.29.38-.71.61-1.15.68l.01-.01Z"/>
    <path fill="#FF462D" d="M217.89 129.16c-.44.06-.9-.04-1.29-.33-.77-.58-.92-1.67-.34-2.43l8.66-11.5c.58-.77 1.67-.92 2.43-.34.77.58.92 1.67.34 2.43l-8.66 11.5c-.29.38-.71.61-1.15.68l.01-.01Z"/>
    <path fill="#F7D654" d="M14.77 127.86h-.01a1.622 1.622 0 0 1-.81-2.15c6.22-13.76 18.45-23.36 33.56-26.34 12.63-2.49 25.04.28 32.4 7.23.65.62.68 1.64.06 2.3-.62.65-1.65.67-2.3.06-6.6-6.24-17.92-8.69-29.54-6.41-14.06 2.77-25.44 11.69-31.22 24.49-.37.81-1.32 1.18-2.14.82Z"/>
    <path fill="#F7D654" d="M24.89 143.73c2.59.25 4.7-1.91 4.5-4.79-.67-9.55-3.76-16.88-12.72-17.74-8.89-.85-13.39 5.75-15.86 14.99-.74 2.79.91 5.31 3.5 5.56l20.57 1.98h.01Z"/>
    <path fill="#F7D654" d="M7.13 151.73c-.96-.09-1.67-.95-1.58-1.91l1.06-11.06 3.49.34-1.06 11.06c-.09.96-.95 1.67-1.91 1.58v-.01ZM20.4 153c-.96-.09-1.67-.95-1.58-1.91l1.06-11.06 3.49.34-1.06 11.06c-.09.96-.95 1.67-1.91 1.58V153Z"/>
  </g>
  <defs>
    <clipPath id="tech-issue__a">
      <path fill="#fff" d="M0 0h323.97v279.18H0z"/>
    </clipPath>
  </defs>
</svg>
