<svg xmlns="http://www.w3.org/2000/svg" width="387" height="272" fill="none" viewBox="0 0 387 272">
  <g clip-path="url(#tech-issue-2__a)">
    <path fill="#CC5239" d="M217.69 167.57c-.41.19-.88.29-1.36.26-13.67-.86-23.95-9.75-29.73-25.71-4.21-11.63-4.55-22.84-4.56-23.31a2.811 2.811 0 0 1 2.75-2.89 2.83 2.83 0 0 1 2.9 2.74c0 .42 1.47 41.82 29 43.54a2.82 2.82 0 0 1 1.01 5.37h-.01Z"/>
    <path fill="#CC5239" d="M223.09 168.94s.77 2.77-1.93 3.6c-2.97.89-7.5-.13-9.33-1.81-1.82-1.68-2.74-3.56-2.78-5.71-.07-3.79 1.25-8.82 6.02-11.19 4.77-2.35 8.21-.59 7.54 1.44-.58 1.75-1.63 1-3.66 1.62-2.04.63-2.46 1.61-2.02 2.74.41 1.07 4.71.84 7.55.81 2.84-.04 7.45-.25 7.4 2.39-.06 2.62-4.7 2.29-6.69 2.22-.4 0-.85-.03-1.35-.05-1.95-.08-4.31-.17-4.31-.17l3.55 4.11h.01Z"/>
    <path fill="#CC5239" d="M221.16 172.54c-2.97.89-7.5-.13-9.33-1.81-1.82-1.68-2.74-3.56-2.78-5.71-.07-3.79 1.25-8.82 6.02-11.19 4.77-2.35 8.21-.59 7.54 1.44-.58 1.75-1.63 1-3.66 1.62-2.04.63-2.46 1.61-2.02 2.74.41 1.07 4.71.84 7.55.81 2.84-.04 7.45-.25 7.4 2.39-.06 2.62-4.7 2.29-6.69 2.22-.4 0-.85-.03-1.35-.05 0 0 1.5.88 1.07 2.44-.21.75-.91 1.24-1.82 1.5 0 0 .77 2.77-1.93 3.6Z"/>
    <path fill="#B72C25" d="M126.2 33.49c-.3 0-.7 0-1 .01h1v-.01ZM43.82 35.4c-.09 0-.17.02-.26.03l.75-.08-.49.05Zm-12.99 3.38h-.02l.08-.03-.06.03ZM17.89 47.5c-.32.32-.63.62-.93.93.66-.64 1.47-1.42 2.1-2.02-.35.33-.82.76-1.17 1.1v-.01Z"/>
    <path fill="#B72C25" d="M191.45 85.11v-.15c-.02-.95-.08-1.48-.2-2.7v.05c0-.07-.01-.13-.02-.2-.03-.32-.07-.64-.11-.95v-.01l-.09-.64c0-.07-.02-.13-.03-.2-.22-1.52-.6-3.36-1.05-4.95-.01-.05-.03-.1-.04-.15-.09-.32-.18-.63-.28-.92-2.76-9.25-8.26-16.15-14.13-21.24-5.02-4.53-10.63-7.89-15.86-10.18-.23-.11-.46-.22-.68-.33-.05-.02-.1-.05-.15-.08l-.18-.09c-.63-.3-1.18-.55-1.64-.76l-3.28-1.48c-.91-.41-1.79-.79-2.64-1.14-.03-.01-.06-.02-.08-.04-.37-.15-.73-.3-1.09-.44.01 0 .02 0 .03.01.01 0 .03.01.04.02-.02 0-.05-.02-.07-.03a58.735 58.735 0 0 0-1.41-.54.689.689 0 0 1-.08-.03c-.16-.06-.31-.11-.47-.17 0 0-.02 0-.03-.01h-.03c-.63-.24-1.25-.46-1.83-.66-.08-.03-.17-.05-.25-.08-.69-.24-1.35-.45-1.98-.64-.15-.05-.3-.09-.44-.13-.33-.1-.66-.2-.97-.29l-.24-.07c-.18-.05-.38-.11-.58-.16l-.45-.12c-.4-.11-.8-.21-1.15-.3l-.6-.14-.14-.03c-.44-.11-.83-.2-1.17-.28-.71-.16-1.55-.33-2.37-.48-.03 0-.07-.01-.1-.02l-.18-.03c-1.24-.22-2.4-.39-2.93-.45-.08 0-.18-.02-.27-.03-.61-.07-1.16-.13-1.68-.17l.52.04c-1.55-.14-2.2-.19-3.27-.21-.06 0-.13 0-.19-.01-.72-.04-1.67 0-2.39 0l-7.78.17-7.79.17-7.79.17-7.79.17-7.79.17-7.79.17-7.79.17-7.79.17-7.79.17-7.79.17c-.43.02-.92.04-1.41.07h-.14c-.84.05-1.71.12-2.49.2l.26-.03-.87.09c-1.06.12-2.46.34-3.49.58-.8.18-1.49.35-2.12.51l.42-.11-.49.13s-.03.01-.05.02c-1.77.45-3.05.87-4.87 1.62-.5.2-1 .41-1.5.64.08-.04.15-.07.23-.11l-.84.38c-.76.34-1.7.82-2.6 1.32-.03.02-.06.03-.09.05h-.01c.06-.03.13-.07.18-.1-.1.05-.23.13-.33.18-.24.13-.49.28-.76.44-.96.56-1.78 1.07-2.11 1.3-.31.22-.68.47-1.05.73.11-.08.22-.16.32-.23-.12.09-.28.2-.41.28-.05.03-.09.07-.13.1-.5.35-1 .7-1.4 1.04 0 0-.02.01-.02.02-.77.6-1.74 1.45-2.48 2.07l-1.2 1.16c-.33.31-.64.61-.93.9-.07.07-.15.14-.21.21l-.01.01c-.24.24-.49.52-.75.8-.99 1.06-2.06 2.36-3.14 3.84-.1.14-.21.28-.31.4-.49.64-1.03 1.5-1.51 2.25-.07.1-.13.2-.2.31-.04.06-.08.13-.12.19-.01.02-.99 1.53-2.08 3.74 0 0 0 .01-.01.02-.32.66-.66 1.37-.98 2.12-.16.38-.34.83-.52 1.28 0 .02-.02.04-.03.06-.24.61-.48 1.24-.67 1.78-.07.19-.14.41-.21.63-.29.87-.54 1.7-.75 2.5 0 .03-.02.07-.03.1-.17.55-.31 1.22-.45 1.87-.04.19-.08.37-.11.56-.06.31-.13.61-.19.89-.23 1.01-.39 2.39-.5 3.42-.11 1.04-.17 2.43-.24 3.47l-.08 2.68-.08 2.68-.08 2.68-.08 2.68-.08 2.68-.08 2.68-.08 2.68-.08 2.68-.08 2.68-.08 2.68c-.02 1.36.02 3.17.1 4.52.06.99.23 2.29.36 3.27.26 1.93.84 4.47 1.44 6.33.04.12.08.25.12.37.43 1.39.93 2.73 1.48 4.01.04.1.09.2.13.3 6.36 14.53 19.58 22.34 27.41 26.21l.24.12c.53.26 1.03.5 1.5.72.14.07.28.13.42.2.46.22.9.42 1.29.6l3.28 1.48c.91.4 2.06.9 3.37 1.43.07.03.15.06.22.09l.22.08c1.12.45 2.33.91 3.62 1.35l1.84.61c.62.2 1.46.45 2.09.64l.37.1c.43.12.84.23 1.22.33l.28.08c.21.05.44.11.69.17.58.14 1.1.27 1.59.38.5.12 1.16.25 1.9.4h.05s.04.02.06.02c.66.12 1.39.25 2.15.36.16.03.32.05.47.08l.34.04a49.203 49.203 0 0 0 2.9.32c.84.07 1.45.11 2.13.13.16 0 .33.02.48.02.74.03 1.74 0 2.48.01l2.64-.06c.44 0 .87-.02 1.25-.03l3.89-.08 7.79-.17 7.79-.17 7.79-.17 7.79-.17 7.79-.17 7.79-.17 7.79-.17c1.23-.03 2.67-.06 4.1-.09l.9-.02c.6-.01 1.19-.03 1.75-.04l1.03-.02c1.17-.03 2.53-.05 3.89-.08l1.14-.02c.59-.01 1.17-.03 1.72-.04l1.03-.02c.43-.02.92-.04 1.41-.07h.14c.41-.03.82-.05 1.23-.09.38-.02.75-.05 1.08-.08.12-.01.24-.03.36-.05h.09c.07 0 .15-.01.22-.02h.05s.05-.01.07-.01c1.06-.12 2.46-.34 3.49-.58 3.17-.73 4.66-1.15 7.12-2.16.47-.19.94-.39 1.41-.6.03-.01.06-.03.1-.04.2-.08.39-.17.6-.26.77-.34 1.7-.83 2.61-1.33.03-.01.05-.03.08-.04l.16-.08c.24-.13.49-.28.76-.44.97-.56 1.78-1.07 2.11-1.3.19-.14.41-.29.63-.44.08-.05.15-.1.22-.15.63-.43 1.31-.9 1.82-1.33 0 0 .02-.01.02-.02s.02-.01.02-.02c2.25-1.71 4.18-3.55 5.83-5.4.05-.06.11-.12.16-.18.24-.28.48-.55.71-.82.23-.27.46-.56.7-.85.07-.09.15-.18.22-.28.36-.46.72-.93 1.09-1.43.1-.14.21-.28.31-.4.49-.64 1.03-1.5 1.51-2.25.07-.1.13-.2.2-.31.04-.06.08-.13.12-.19.55-.83 1.18-2 1.64-2.88l.28-.54v-.03c.12-.22.23-.44.34-.66.3-.61.59-1.25.82-1.79.06-.14.12-.29.18-.44.02-.04.04-.09.06-.12l-.05.12c.11-.27.22-.55.34-.83 0-.02.02-.05.03-.07.24-.61.48-1.24.67-1.78.07-.19.14-.41.21-.63.22-.66.41-1.3.59-1.92l.06-.2.03-.11c.02-.09.05-.18.07-.27l.03-.1c.17-.55.31-1.22.45-1.87.04-.19.08-.37.11-.56 0-.02 0-.04.01-.05l.08-.34c-.02.09-.05.18-.07.28.05-.27.11-.53.16-.77.08-.35.15-.74.21-1.15.1-.6.17-1.08.24-1.78l.06-.5c.11-1.03.17-2.42.24-3.46l.03-1.17.06-1.89.07-2.3.08-2.68.08-2.68.08-2.68.03-1.17.06-1.89.07-2.3.08-2.68.08-2.68.08-2.68v-.32.31c.04-1.42.05-2.12-.02-3.17l-.01-.02Zm-60.21-50.43c-.32-.1-.62-.19-.92-.28.3.09.61.18.92.28Zm-4.14-1.03h-.03.03ZM53.52 36.4c-.03 0-.05-.02-.08-.03.03 0 .05.02.08.02v.01Zm17.95 123.14v-.01.01Zm.01-.02v-.02.02Zm119.7-71.02h-.02.02Zm-.02.01h-.01.01Zm-.06 0h.04-.04Zm-.17-.09v.11h.07-.07l-.8 26.8c-.02.67-.06 1.34-.11 2.01-.48 4.63-1.41 8.75-2.86 12.56-.15.39-.31.77-.47 1.15l-.21.51c-.23.54-.48 1.06-.73 1.59-.04.07-.07.15-.1.22-.21.43-.43.84-.65 1.26-.14.26-.27.51-.41.77-.09.16-.19.33-.28.49-1.86 3.2-4.19 6.25-7.06 9.31-3.12 3.15-6.68 5.82-10.57 7.85-.17.09-.34.17-.52.26-.37.19-.75.37-1.12.55l-.6.27a39.14 39.14 0 0 1-12.39 3.27c-.89-.06-2.04-.34-2.62.16h-.05l-77.85 1.69v.03-.03h-.9c-4.69-.17-8.72-.94-12.16-2.08-5.47-1.94-10.35-5.15-14.32-9.31-3.03-3.34-5.28-6.74-6.93-10.06-2.72-5.68-4.18-12.17-3.97-19.07l.8-26.8c.67-22.74 19.04-41.78 40.75-42.24L152.65 48c20.87-.46 37.61 16.39 38.27 37.89-.13.88-.44 1.96.01 2.53ZM56.9 37.66c.52.22 1.05.44 1.59.68-.54-.24-1.07-.47-1.59-.68Zm-8.6-2.44h-.02.02ZM8.91 82.26Zm-4.57-2.81c-.11-.11-.19-.2-.26-.29.06.09.14.18.26.29Z"/>
    <path fill="#FF462D" d="M152.65 48c21.72-.48 38.97 17.79 38.28 40.53-.27 8.93-.53 17.86-.8 26.8-.67 22.74-19.04 41.78-40.76 42.24-25.95.56-51.9 1.13-77.85 1.69-21.71.48-38.96-17.79-38.28-40.53.27-8.93.53-17.86.8-26.8.67-22.74 19.04-41.78 40.75-42.24 25.95-.56 51.9-1.13 77.85-1.69h.01Z"/>
    <path fill="#CC5200" d="m72.509 134.112-7.48.114a4.27 4.27 0 0 0-4.204 4.334l.03 1.93a4.27 4.27 0 0 0 4.334 4.204l7.479-.113a4.27 4.27 0 0 0 4.205-4.334l-.03-1.93a4.27 4.27 0 0 0-4.334-4.205Z"/>
    <path fill="#FF8419" d="m74.513 135.072-7.479.113a4.27 4.27 0 0 0-4.205 4.335l.03 1.93a4.27 4.27 0 0 0 4.334 4.204l7.48-.113a4.27 4.27 0 0 0 4.204-4.335l-.03-1.93a4.27 4.27 0 0 0-4.334-4.204Z"/>
    <path fill="#B77100" d="m92.202 133.813-7.479.114a4.27 4.27 0 0 0-4.205 4.334l.03 1.93a4.27 4.27 0 0 0 4.334 4.205l7.48-.114a4.27 4.27 0 0 0 4.204-4.334l-.03-1.93a4.27 4.27 0 0 0-4.334-4.205Z"/>
    <path fill="#FFBC31" d="m94.197 134.783-7.48.114a4.27 4.27 0 0 0-4.204 4.334l.03 1.93a4.27 4.27 0 0 0 4.333 4.204l7.48-.113a4.27 4.27 0 0 0 4.204-4.335l-.029-1.929a4.27 4.27 0 0 0-4.334-4.205Z"/>
    <path fill="#fff" d="M75.97 121.97c-6.37-.23-13.31-.76-17.94-4.81-5.48-4.79-5.74-12.67-5.63-19.67.09-6.12.2-12.24.29-18.36.05-2.89.14-5.96 1.83-8.4 2.95-4.27 9.29-5.09 14.74-4.97 34.11.79 60.02.78 95.87-1.8 6.13-.44 11.5 4.28 12.12 10.67.89 9.09 1.01 21.44-1.63 32.23-1.63 6.66-7.07 11.5-13.59 12.29-28.02 3.39-58.29 3.83-86.06 2.82Z"/>
    <path fill="#CC5239" d="M223.85 165.01s1.5.86 1.07 2.42c-.21.75-.91 1.24-1.82 1.5-1.01.29-2.27.31-3.47.11l4.22-4.03Z"/>
    <path fill="#E3E3E3" d="M161.05 268.39c0 1.87-26.53 3.39-59.25 3.39s-59.25-1.52-59.25-3.39S69.08 265 101.8 265s59.25 1.52 59.25 3.39Z"/>
    <path fill="#FFBC31" d="M26.12 16.94c.56 3.61-1.92 6.99-5.53 7.55-3.61.56-6.99-1.92-7.55-5.53-.56-3.61 1.92-6.99 5.53-7.55 3.61-.56 6.99 1.92 7.55 5.53Zm9.82-1.39c-.92.22-1.85-.34-2.09-1.26a14.82 14.82 0 0 0-5.55-8.21 1.74 1.74 0 0 1-.37-2.43 1.74 1.74 0 0 1 2.43-.37c3.37 2.48 5.81 6.09 6.85 10.14.24.93-.32 1.88-1.25 2.12h-.03l.01.01ZM6.01 10.94a1.739 1.739 0 0 1-1.89-2.61C6.85 3.96 11.3.91 16.38.03c.94-.17 1.85.46 2.02 1.4.17.95-.44 1.89-1.41 2.02-4.09.75-7.72 3.18-9.92 6.72-.25.4-.64.67-1.07.77h.01Zm3.58 21.47c-.51.12-1.07 0-1.51-.34A18.236 18.236 0 0 1 1.6 20.82c-.15-.95.52-1.81 1.44-1.99.95-.15 1.84.5 1.99 1.44a14.73 14.73 0 0 0 5.24 9.1c.74.61.86 1.7.25 2.45-.25.3-.58.51-.94.59h.01Z"/>
    <path fill="#FFBC31" d="M37.55 48.31a1.74 1.74 0 0 1-1.89-.78L18.1 18.86c-.5-.82-.24-1.89.57-2.39.82-.51 1.89-.25 2.39.57l17.56 28.67a1.745 1.745 0 0 1-1.07 2.6Z"/>
    <path fill="#FF8419" d="M9.29 115.1c1.09 5.41 5.05 9.18 8.84 8.42 3.79-.76 5.98-5.77 4.89-11.19-1.09-5.41-5.05-9.18-8.84-8.42-3.79.76-5.98 5.77-4.89 11.19Z"/>
    <path fill="#CC5239" d="M12.39 175.91c-1.09 0-2.16-.5-2.85-1.45-17.79-24.44-6.98-53.48 2.46-62.9a3.53 3.53 0 0 1 4.98 0 3.53 3.53 0 0 1 0 4.98c-6.97 6.95-17.37 32.3-1.74 53.77a3.521 3.521 0 0 1-2.85 5.59v.01Z"/>
    <path fill="#CC5239" d="M21.54 167.5c-4.59-4.06-9.11-1.96-13.35 1.16-3.01 2.21-4.95 7.24-2.89 12.01s4.65 7.45 6.99 8.81c2.32 1.34 4.29.72 4.95-.74.68.35 1.36.6 1.99.66 2.85.29 3.27-1.33 3.14-2.25h-.02c1.85.56 3.46.5 4.22-.44 1.52-1.88-3.98-4.83-5.62-6.53-1.64-1.7-2.35-4.07-1.41-4.99.94-.92 2.36.49 3.85 2.03 1.49 1.54 4.3 1.07 4.87-.42.57-1.5-2.15-5.23-6.74-9.29h.02v-.01Z"/>
    <path fill="#FF462D" fill-rule="evenodd" d="M132.16 106.61c.03 3.55-3.55 6.46-8.01 6.5-4.45.04-8.09-2.81-8.12-6.36-.03-3.55 3.55-6.46 8.01-6.5 4.45-.04 8.09 2.81 8.12 6.36Z" clip-rule="evenodd"/>
    <path fill="#56676F" d="m386.81 155.8-35.95 79.44h-54.42l-1.92-4.81h-57.16l33.13-69.06 116.32-5.57Z"/>
    <path fill="#85C7ED" d="m378.36 160.49-104.62 5.21-28.83 60.78 104.18-1.03 29.27-64.96Z"/>
    <path fill="#F7D754" d="M327.53 136.17s-15.81 15.56-13.93 45.5c1.89 29.94 27.55 43.78 27.55 43.78l-89.18.72s34.39-13.59 32.16-44.63c-2.23-31.04-19.85-48.04-19.85-48.04l63.25 2.67Z"/>
    <path fill="#E59035" d="M283.52 175.69c.26 1.89.48 3.84.62 5.85.73 10.21-2.5 18.53-7.16 25.1 8.67-3.21 10.29-11.21 10.29-11.21.16 4.54 4.23 6.56 4.23 6.56-.16-4.4 5.07-8.25 5.07-8.25 5.07 4.74 4.02 14.07 4.02 14.07 6.27-6.11 5.48-14.07 5.48-14.07 3.56 9.93 14.58 14.84 17.96 16.15-5.16-6.96-9.68-16.32-10.43-28.23-.13-2.06-.17-4.05-.14-5.97h-29.95.01Z"/>
    <path fill="#F7D754" d="M295.24 186.55s-1.38 5.66-7.18 5.7c-5.8.04-6.46-5.46-6.46-5.46s-15.96 7.65-18.79-5.62c-2.83-13.28 11.8-13.37 13.89-8.21 0 0-2.69-5.66 3.7-7.69 6.39-2.03 7.07 3.25 7.07 3.25s.16-8.08 8.63-8.2c8.47-.13 9.58 7.28 9.58 7.28s3.55-7.04 10.7-6.26c7.16.78 7.58 7.54 7.58 7.54s11.56-4.4 15.87 6.64c4.3 11.04-12.69 19.57-20.04 12.56 0 0-1.79 5.45-6.87 5.67-5.08.21-8.38-5.51-8.38-5.51s-1 4.39-5.59 4.02c-4.59-.37-3.71-5.7-3.71-5.7v-.01Z"/>
    <path fill="#E59035" d="M321.9 180.86s-2 6.47-7.66 6.72c-5.67.25-9.35-6.54-9.35-6.54s-1.11 5.21-6.23 4.77c-5.12-.44-4.14-6.77-4.14-6.77s-1.54 6.72-8.01 6.76c-6.47.04-7.2-6.48-7.2-6.48s-10.37 5.28-16.68.78c.05.34.11.7.19 1.06 2.83 13.28 18.79 5.62 18.79 5.62s.65 5.5 6.46 5.46c5.8-.04 7.18-5.7 7.18-5.7s-.88 5.33 3.71 5.7c4.59.37 5.59-4.02 5.59-4.02s3.3 5.72 8.38 5.51c5.08-.21 6.87-5.66 6.87-5.66 6.43 6.13 20.22.38 20.72-8.54-5.24 4.72-13.78 6.21-18.6 1.32h-.02v.01Zm-57.62-47.36s9.26 8.94 15.2 25.68c-1.48-7.86 3.48-11.77 3.48-11.77.2 5.15 5.6 9.84 5.6 9.84-.8-4.2 3.6-8.55 3.6-8.55.33 6.83 9.41 8.55 9.41 8.55 3.41-6.6 9.45-6.09 9.45-6.09 4.01 4.03 4.53 8.39 4.53 8.39 3.92-15.44 11.98-23.38 11.98-23.38l-63.25-2.67Z"/>
    <path fill="#E59035" d="M275.61 141.77s-12.82 13.98-29.93.31c0 0-17.53 4.43-22.16-11.23-6.2-20.98 14.72-21.1 14.72-21.1s.29-20.71 19.35-23.27c19.06-2.56 26.28 6.58 26.28 6.58s5.05-16.62 22.34-14.81c17.29 1.8 18.74 11.06 18.74 11.06s12.45-9.25 28.53.72c13.73 8.52 7 18.31 7 18.31s14.14 3.36 12.27 16.46c-1.87 13.09-13.71 11.9-13.71 11.9s-8.03 12.33-23.87 4.84c0 0-9.8 11.96-22.95-1.43 0 0-3.08 9.93-12.45 8.43-9.37-1.51-8.54-11.24-8.54-11.24s-2.79 10.18-15.62 4.47Z"/>
    <path fill="#F7D654" d="M371.05 115.67c-3.47-5.64-10.57-7.33-10.57-7.33s4-5.84-.48-12.42c-.04 0-.06-.01-.06-.01s.01-.01.03-.04c-1.33-1.93-3.38-3.92-6.48-5.84-16.08-9.97-28.53-.72-28.53-.72s-1.45-9.25-18.74-11.06c-17.29-1.8-22.34 14.81-22.34 14.81s-7.22-9.14-26.28-6.58c-19.06 2.56-19.35 23.27-19.35 23.27s-10.16.06-14.22 7.19c5.51 12.59 21.62 8.98 21.62 8.98 17.22 12.81 29.89.02 29.89.02 12.88 5.41 15.56-3.97 15.56-3.97s-.73 8.98 8.64 10.47c9.37 1.49 12.35-7.66 12.35-7.66 13.27 12.51 22.93 1.55 22.93 1.55 15.9 7.08 23.79-4.23 23.79-4.23s8.67.89 12.25-6.43h-.01Z"/>
    <path fill="#56676F" d="M325.85 235.24H192.51l-4.74-8.06h146.86l-8.78 8.06Z"/>
    <path fill="#FF462D" d="M87.85 86.23c0 3.85-2.88 6.97-6.44 6.97-3.56 0-6.43-3.12-6.43-6.97 0-3.85 2.88-6.97 6.43-6.97s6.44 3.12 6.44 6.97Zm73.78 0c0 3.85-2.88 6.97-6.44 6.97-3.56 0-6.43-3.12-6.43-6.97 0-3.85 2.88-6.97 6.43-6.97s6.44 3.12 6.44 6.97Z"/>
  </g>
  <defs>
    <clipPath id="tech-issue-2__a">
      <path fill="#fff" d="M0 0h386.81v271.78H0z"/>
    </clipPath>
  </defs>
</svg>
