<svg xmlns="http://www.w3.org/2000/svg" width="314" height="373" fill="none" viewBox="0 0 314 373">
  <g clip-path="url(#text-bubble__a)">
    <path fill="#CC5239" d="M205.88 232.41a3.314 3.314 0 0 1-2.5-3.59c.2-1.82 1.84-3.14 3.66-2.94 28.92 3.2 43.69-17.23 47.55-35.7a3.333 3.333 0 0 1 3.93-2.57c1.87.41 2.95 2.14 2.57 3.93-4.78 22.86-23.57 44.39-54.78 40.94-.15-.02-.29-.04-.44-.08l.01.01Z"/>
    <path fill="#CC5239" d="M266.44 185.94c-1.1-3.13-4.33-2.09-4.33-2.09-.35-1.06-.96-1.86-1.85-2.07-1.85-.43-2.8 1.38-2.8 1.38h-.02v-1.59c-.01-2.34.14-7.81-2.95-7.75-3.1.07-2.63 5.48-2.44 8.82.18 3.33.66 8.38-.57 8.91-1.31.58-2.48.13-3.32-2.23-.83-2.36 0-3.63-2.09-4.22-2.43-.68-4.32 3.45-1.31 8.94 3.02 5.49 9 6.79 13.45 6.52 2.53-.16 4.7-1.33 6.58-3.56s2.86-7.61 1.66-11.05h-.01v-.01Z"/>
    <path fill="#B72C25" d="M210.52 239.92c.04-.39.06-.83.07-1.28.03-.66.04-1.19.02-1.95v-.55c0-.64-.05-1.39-.09-2.14.02.23.04.45.05.66-.04-.68-.1-1.57-.14-2.26v-.22c-.06-.59-.11-1.18-.16-1.76l-.07-.8-.05-.61-.06-.67-.04-.52-.04-.47c-.03-.3-.05-.61-.08-.91l-.04-.42-.03-.32-.12-1.34v-.14l-.02-.11c-.05-.55-.1-1.11-.14-1.66v-.06c-.17-2-.34-3.99-.52-5.99l-.02-.28-.02-.21c-.05-.53-.09-1.06-.14-1.59 0-.05 0-.1-.01-.14v-.08c-.19-1.9-.3-2.85-.56-4.18-.02-.09-.03-.18-.04-.27-.06-.36-.14-.71-.21-1.07-.1-.57-.23-1.2-.38-1.86-1.59-7.62-5.48-16.8-14.5-24.24-.01 0-.02-.02-.03-.03a.435.435 0 0 0-.07-.06 30.44 30.44 0 0 0-1.89-1.56l-.4-.31c-.11-.09-.23-.17-.34-.25-.37-.28-.73-.54-1.08-.79-.07-.05-.14-.1-.21-.16l.13.09c-.26-.19-.52-.36-.77-.53l-.11-.08-.13-.08c-1.02-.68-1.87-1.19-2.44-1.53-.43-.26-1.51-.87-3.02-1.62-.02 0-.04-.02-.05-.03l-.07-.03c-.65-.32-1.37-.66-2.17-1.01l-.07-.03c-.08-.04-.18-.08-.27-.11-.66-.29-1.35-.58-2.1-.87-.59-.23-1.18-.45-1.77-.66l-.33-.12c-.1-.04-.21-.07-.33-.11-.02 0-.03-.01-.05-.02-.13-.05-.27-.09-.41-.14a.487.487 0 0 1-.11-.04c-.1-.04-.21-.07-.3-.11.04.02.09.03.13.05-.25-.08-.5-.17-.75-.25-3.83-1.27-7.56-2.16-10.95-2.8-.44-.09-.86-.17-1.28-.24-.13-.03-.27-.05-.39-.07l-.23-.04c-.27-.05-.52-.09-.78-.13l-1.07-.18-1.14-.18-2.12-.3-4.47-.6s-.07 0-.1-.01h.01-.03c-.5-.07-1.09-.14-1.63-.2a4.69 4.69 0 0 1-.37-.05c-.03 0-.07 0-.1-.01l-.69-.07c-.43-.05-.86-.1-1.27-.14h-.14c-.28-.04-.61-.07-.93-.1l-1.02-.09c-.08 0-.16-.01-.23-.02l-.25-.02c-.6-.05-1.17-.09-1.72-.12h-.15c-1.59-.09-2.96-.14-4.07-.16h-2.49c-.48 0-.92.01-1.33.02h.19c-.2 0-.47.01-.68.02-.09 0-.18 0-.27.01-.88.03-1.56.07-2.08.09-1.18.07-1.8.11-2.83.23l-.25.02-2.2.27-6.53.92-6.53.92-6.53.92-6.53.92-6.53.92-6.53.92-6.53.92-6.53.92-6.53.92-6.53.92c-.26.04-.49.08-.71.11l-.21.03c-.81.13-1.42.23-2.01.35-.4.08-.82.16-1.25.26h.06l-.12.01h-.03l-.09.02h-.02c-.6.13-1.24.29-1.9.47l-.22.05-.16.05c-.68.19-1.38.39-2.12.63l-.13.04c-.09.03-.19.07-.28.1-.35.12-.69.23-1.05.36-.45.16-.94.36-1.45.57h-.02s-.02 0-.03.01c-.15.06-.31.14-.47.2-.33.13-.66.26-.96.38l-2.15 1.04s.02-.01.03-.02c-.23.11-.46.22-.66.33-.55.27-1.18.64-1.8 1.02l-.49.29c-.06.04-.12.08-.18.13-.3.18-.59.36-.85.52-.66.39-1.67 1.11-2.68 1.88-.02.01-.03.03-.05.04-.01 0-.03.02-.04.03-1.11.84-2.19 1.73-2.76 2.27-.47.45-1.04.96-1.58 1.48l-.01.01c-.34.33-.68.65-.95.96-.01.01-.02.02-.03.04-.21.22-.43.46-.66.71-.2.21-.39.41-.55.6-.05.06-.1.12-.15.19-.32.36-.64.72-.92 1.04l.02-.03-.04.05-.05.06-1.06 1.32c-.11.16-.22.31-.33.47l-.71.91s-.03.04-.05.06c-.04.05-.12.16-.26.36-.47.64-.96 1.37-1.37 2.05-.66 1.05-1.46 2.41-2.29 4.03-.79 1.5-1.48 2.98-2.02 4.44a46.7 46.7 0 0 0-1.74 5.17c-.13.4-.24.86-.35 1.33-.16.66-.31 1.3-.45 1.92l-.07.3s-.3 1.37-.58 3.38c0 .03 0 .06-.01.09 0 .03 0 .07-.01.1 0 .02 0 .05-.01.08v.06c-.15 1.08-.28 2.33-.36 3.66-.09 1.53-.13 2.14-.09 3.52v.25c.06 1.15.13 2.67.19 3.82.15 1.8.31 3.59.46 5.39v.04c.15 1.78.31 3.57.46 5.35v.06l.15 1.79.08.88.08.9.08.9.08.9.08.9.08.9c.06.47.12.97.19 1.49.01.11.03.22.04.33.03.23.07.46.1.69.06.42.13.85.2 1.28 0 .04.01.09.02.13.17 1.07.35 2.13.53 3.05.21 1.08.66 2.47.95 3.53.56 2.07 1.64 4.75 2.6 6.67.08.16.16.3.23.46.08.17.17.34.26.5a96.013 96.013 0 0 0 .99 1.86c1.05 1.89 2.14 3.55 4.04 6.02.63.81 1.51 1.86 2.23 2.6 1.51 1.54 2.41 2.42 3.37 3.25l.64.58c3 2.63 6.45 4.75 10.04 6.48.28.14.56.28.81.4.83.39 1.65.75 2.39 1.05.03.01.06.03.08.04l.08.03c.86.35 1.6.63 2.06.81.61.23 1.39.5 2.15.76h.01c.81.28 1.61.53 2.16.69.05.01.09.03.14.04.58.17 1.26.36 1.79.52l.41.11c.49.13.94.25 1.37.36l.22.06.8.2c.4.1.81.2 1.26.3.47.11 1.16.26 1.85.41l.17.04c.17.03.35.07.53.11.66.14 1.26.26 1.58.31.26.05.5.09.72.13l1.35.24c.2.03.41.07.64.11.33.05.65.11 1.01.16.18.03.36.06.52.08l2.13.3 4.47.6.78.1.7.08c.23.03.46.06.69.08l.73.09.6.06c.16.02.32.03.48.05.06 0 .11.01.17.02.17.02.34.03.51.05.15.01.3.03.43.04h.02c.69.06 1.38.12 2.06.17.2.01.41.03.63.04.38.03.77.05 1.16.07.13 0 .26.02.38.02l.48.02.76.03h.02c.13 0 .26.01.39.02l.39.02 1.06.03h.46c.23 0 .46 0 .67.01.88.01 1.73 0 2.53-.01h.04c.44 0 .86-.02 1.25-.03.17 0 .33 0 .48-.01l.52-.03c.65-.03 1.18-.06 1.51-.08a40.874 40.874 0 0 0 2.4-.21c.06 0 .12-.01.18-.02.46-.06 1.02-.13 1.54-.19.19-.02.39-.05.61-.07l6.53-.92 6.53-.92 6.53-.92 6.53-.92 6.53-.92 6.53-.92.92-.13 5.61-.79 5.61-.79.92-.13.92-.13 5.61-.79 6.53-.92c.25-.04.47-.07.68-.11.08-.01.16-.02.24-.04.8-.13 1.41-.23 2-.35 1.01-.19 2.15-.45 3.38-.78.07-.02.13-.03.2-.05l.16-.05c.68-.19 1.38-.39 2.12-.63l.13-.04c.09-.03.19-.07.29-.1.35-.12.69-.23 1.05-.36.08-.03.17-.07.26-.1.08-.03.15-.05.23-.08-.07.02-.15.05-.21.07.53-.2 1.1-.43 1.68-.68.33-.13.66-.26.95-.38l1.43-.7c.29-.14.55-.26.81-.4.04-.02.09-.04.13-.06.04-.02.1-.05.15-.07.08-.04.17-.08.25-.12.02-.01.05-.03.08-.04.71-.36 1.78-.96 3.13-1.84.04-.02.08-.05.12-.07.66-.39 1.69-1.12 2.7-1.89l.03-.02.11-.08s.05-.04.07-.06l.12-.09.03-.02c1-.77 1.95-1.55 2.47-2.05.02-.02.05-.05.08-.07.02-.02.04-.03.06-.05l-.05.05c.76-.72 1.77-1.6 2.46-2.36 0-.01.02-.02.03-.03.35-.36.73-.79 1.11-1.22.12-.13.23-.25.34-.38l.26-.29c.12-.13.23-.26.34-.39.05-.06.1-.12.16-.18.56-.66.99-1.2 1.25-1.56.1-.14.2-.29.3-.43.01-.02.02-.03.03-.04l.65-.84s.03-.04.04-.06a30.264 30.264 0 0 0 1.64-2.4c1.59-2.53 3.99-6.85 5.65-12.25.14-.46.28-.92.41-1.39.12-.43.25-.93.37-1.43 0-.04.02-.07.03-.11.17-.7.34-1.41.46-2.01.04-.2.08-.43.12-.66.2-1.01.35-1.97.48-2.89 0-.03.01-.07.02-.1.1-.62.17-1.35.23-2.07l.06-.75c.02-.31.05-.61.07-.89v-.05Zm-180.33 9.84.56.09.36.06c-.12-.02-.25-.04-.36-.06l-.57-.09h.01Zm-.61-17.86c.18.03.37.06.56.09l-.56-.09Zm33.45-55.68h-.02.02Zm44.52 117.28v-.02.02Zm100.59-82.14c0 1.05-.32 2.48.38 3.06v.04l1.55 18.01c.03.33.04.65.06.97.19 4.79-.07 9.16-.84 13.27-.55 2.81-1.33 5.55-2.32 8.18 0 .01 0 .02-.01.04-.15.39-.31.77-.47 1.16-1.53 3.68-3.57 7.28-6.16 10.96-2.83 3.8-6.18 7.13-9.94 9.83-.19.14-.39.27-.59.41-.34.23-.67.46-1.01.68-.21.14-.43.27-.64.41-3.83 2.39-8.04 4.14-12.5 5.11-.92.05-2.12-.09-2.67.49-.02 0-.04 0-.06.01l-65.32 9.18c-.39.06-.78.09-1.17.13-7.74.56-14.88-.87-21.08-4.01-6.36-3.33-11.84-8.47-15.85-14.91-.14-.22-.27-.45-.4-.68-.16-.27-.32-.53-.47-.8a49.781 49.781 0 0 1-3.29-7.11c-.15-.41-.3-.82-.44-1.24a.75.75 0 0 1-.05-.16 49.648 49.648 0 0 1-2.27-11.16l-1.55-18.01c-2.17-25.13 14.58-48.32 37.16-51.49l65.32-9.18c14.03-1.98 27.17 4.22 35.63 15.23.26.34.51.68.75 1.02l.39.54c.23.33.46.67.68 1.01.17.26.35.52.51.79.13.21.26.42.39.64.26.43.51.85.76 1.29 2.6 4.8 4.48 10.27 5.52 16.31v-.02ZM72.8 176.45h-.04.04Zm-3.31-.27h-.03.03Zm60.1-9.22c-.21.01-.41.03-.62.04.2-.01.4-.03.61-.04h.01ZM31.71 250c.31.05.63.1.96.14-.33-.05-.65-.1-.97-.14h.01Zm1.58.23c.36.05.72.1 1.09.16-.37-.05-.74-.1-1.1-.16h.01Zm1.67.24s.09.01.14.02c-.05 0-.09-.01-.14-.02Zm-6.33-18.72-.35-.06c.11.02.23.04.35.06Z"/>
    <path fill="#FF462D" d="M163.5 174.53c22.58-3.18 42.87 14.81 45.02 39.94.52 6 1.03 12 1.55 18.01 2.17 25.13-14.57 48.32-37.15 51.49l-65.32 9.18c-22.58 3.18-42.87-14.81-45.03-39.94-.52-6-1.03-12-1.55-18.01-2.17-25.13 14.58-48.32 37.16-51.49l65.32-9.18Z"/>
    <path fill="#fff" d="M82.52 206.65c4.68-4.8 13.28-6.85 19.62-8.17 7.93-1.65 14.26-3.25 22.22-4.8 16.99-3.3 34.6-5.04 51.94-3.63 9.13.74 13.54 5.11 15.88 14.76 1.68 6.9 2.46 17.9 2.45 25.85-.01 8.81-3.87 14.03-11.09 15.23l-86.41 13.27c-7.05 1.17-15.19-3.54-16.3-12.06 0 0-2.33-13.98-3.13-23.96-.51-6.4 1.05-12.64 4.81-16.49h.01Z"/>
    <path fill="#CC5200" d="m100.626 271.567-7.45.678a4.27 4.27 0 0 0-3.865 4.639l.175 1.923a4.27 4.27 0 0 0 4.64 3.865l7.449-.678a4.27 4.27 0 0 0 3.865-4.639l-.175-1.922a4.269 4.269 0 0 0-4.639-3.866Z"/>
    <path fill="#FF8419" d="m102.622 271.387-7.45.678a4.27 4.27 0 0 0-3.865 4.64l.175 1.922a4.27 4.27 0 0 0 4.64 3.865l7.448-.678a4.269 4.269 0 0 0 3.866-4.639l-.175-1.922a4.27 4.27 0 0 0-4.639-3.866Z"/>
    <path fill="#B77100" d="m120.254 269.786-7.449.678a4.271 4.271 0 0 0-3.866 4.64l.175 1.922a4.27 4.27 0 0 0 4.64 3.865l7.449-.678a4.27 4.27 0 0 0 3.865-4.639l-.175-1.922a4.27 4.27 0 0 0-4.639-3.866Z"/>
    <path fill="#FFBC31" d="m122.239 269.607-7.449.678a4.27 4.27 0 0 0-3.865 4.639l.175 1.922a4.27 4.27 0 0 0 4.639 3.866l7.449-.678a4.27 4.27 0 0 0 3.866-4.64l-.175-1.922a4.27 4.27 0 0 0-4.64-3.865Z"/>
    <path fill="#E3E3E3" d="M246.91 105.33c-3.2 0-6.35-.23-9.43-.64-.08 5.24-.57 11.22-1.87 17.73a98.787 98.787 0 0 1-10.79 29.16c7.29-2.07 20.25-6.85 32.36-18.2 7.3-6.84 18.39-23.89 19.01-34.19-9.34 3.95-19.44 6.14-29.28 6.14Z"/>
    <path fill="#E3E3E3" d="M228.24 119.14c47.32 0 85.68-26.67 85.68-59.57S275.56 0 228.24 0c-47.32 0-85.68 26.67-85.68 59.57s38.36 59.57 85.68 59.57Z"/>
    <path fill="#FF462D" d="M105.68 225.8c3.551 0 6.43-3.336 6.43-7.45 0-4.115-2.879-7.45-6.43-7.45-3.551 0-6.43 3.335-6.43 7.45 0 4.114 2.879 7.45 6.43 7.45Zm71.59-17.08c0 3.85-2.88 6.97-6.44 6.97-3.56 0-6.43-3.12-6.43-6.97 0-3.85 2.88-6.97 6.43-6.97s6.44 3.12 6.44 6.97Zm-30.81 35.4c-8.25.72-11.84-6.48-12.6-10.38-.24-1.26.58-2.48 1.84-2.72 1.25-.27 2.47.58 2.72 1.83.14.73 1.62 7.16 7.63 6.64 6.01-.52 5.89-8.34 5.88-8.67-.03-1.28.99-2.35 2.25-2.38 1.28-.03 2.35.96 2.39 2.24.14 4.33-1.8 12.72-10.13 13.44h.02Z"/>
    <path fill="#FF8419" d="M42.19 251.44c.42 6.31-2.83 11.66-7.25 11.96-4.42.29-8.34-4.59-8.76-10.9-.42-6.31 2.83-11.66 7.25-11.96 4.42-.29 8.34 4.59 8.76 10.9Z"/>
    <path fill="#CC5239" d="M10.82 322.05a4.27 4.27 0 0 1-3.87-2.47c-7.1-15.35-7.16-33.67-.16-49.01 5.24-11.49 13.92-19.72 23.8-22.58a4.256 4.256 0 1 1 2.36 8.18c-7.49 2.17-14.21 8.7-18.42 17.93-5.98 13.1-5.93 28.77.15 41.9a4.252 4.252 0 0 1-3.86 6.04v.01Z"/>
    <path fill="#CC5239" d="M22.93 315.32c-2.91-6.38-8.59-6.26-14.42-4.96-4.14.93-8.47 5.3-8.51 11.25-.04 5.95 1.42 9.95 3.24 12.46 1.8 2.48 4.14 2.74 5.49 1.52.55.68 1.14 1.26 1.76 1.61 2.84 1.62 4.02.12 4.3-.9l-.02-.02c1.67 1.44 3.38 2.12 4.59 1.49 2.44-1.26-1.92-6.9-2.86-9.44-.93-2.54-.58-5.36.82-5.88 1.4-.52 2.24 1.6 3.08 3.91.85 2.31 3.99 3.12 5.26 1.81 1.28-1.3.16-6.47-2.75-12.85h.02Z"/>
    <path fill="#FFBC31" d="M47.39 150.48c.56 3.61-1.92 6.99-5.53 7.55-3.61.56-6.99-1.92-7.55-5.53-.56-3.61 1.92-6.99 5.53-7.55 3.61-.56 6.99 1.92 7.55 5.53Zm9.82-1.4c-.92.22-1.85-.34-2.09-1.26a14.82 14.82 0 0 0-5.55-8.21 1.74 1.74 0 0 1-.37-2.43 1.74 1.74 0 0 1 2.43-.37c3.37 2.48 5.81 6.09 6.85 10.14.24.93-.32 1.88-1.25 2.12h-.03l.01.01Zm-29.93-4.61a1.739 1.739 0 0 1-1.89-2.61c2.72-4.37 7.18-7.42 12.26-8.3.94-.17 1.85.46 2.02 1.4.17.95-.44 1.89-1.41 2.02-4.09.75-7.72 3.18-9.92 6.72-.25.4-.64.67-1.07.77h.01Zm3.58 21.47c-.51.12-1.07 0-1.51-.34a18.236 18.236 0 0 1-6.48-11.25c-.15-.95.52-1.81 1.44-1.99.95-.15 1.84.5 1.99 1.44a14.73 14.73 0 0 0 5.24 9.1c.74.61.86 1.7.25 2.45-.25.3-.58.51-.94.59h.01Z"/>
    <path fill="#FFBC31" d="M58.82 181.84a1.74 1.74 0 0 1-1.89-.78l-17.56-28.67c-.5-.82-.24-1.89.57-2.39.82-.51 1.89-.25 2.39.57l17.56 28.67a1.745 1.745 0 0 1-1.07 2.6Z"/>
    <path fill="#F1F1F1" d="M193.77 368.89c0 1.87-26.53 3.39-59.25 3.39s-59.25-1.52-59.25-3.39 26.53-3.39 59.25-3.39 59.25 1.52 59.25 3.39Z"/>
  </g>
  <defs>
    <clipPath id="text-bubble__a">
      <path fill="#fff" d="M0 0h313.92v372.28H0z"/>
    </clipPath>
  </defs>
</svg>
