<svg xmlns="http://www.w3.org/2000/svg" width="35" height="35" viewBox="0 0 35 35" fill="none">
  <g clip-path="url(#clip0_30265_7237)">
    <rect width="35" height="34.9986" rx="17" fill="var(--kd-color-background-logo-ai-indicator-background)"/>
    <path d="M17.4999 30.6238C24.7518 30.6238 30.625 24.751 30.625 17.4993C30.625 10.2476 24.7518 4.37482 17.4999 4.37482C10.248 4.37482 4.375 10.2476 4.375 17.4993C4.375 24.751 10.248 30.6238 17.4999 30.6238Z" fill="var(--kd-color-background-logo-ai-indicator-halo)"/>
    <path d="M17.4978 24.5691C21.4656 24.5691 24.6791 21.3558 24.6791 17.3882C24.6791 13.4205 21.4656 10.2072 17.4978 10.2072C13.5299 10.2072 10.3166 13.4205 10.3166 17.3882C10.3166 21.3558 13.5299 24.5691 17.4978 24.5691Z" fill="var(--kd-color-background-logo-ai-indicator-head)"/>
  </g>
  <defs>
    <clipPath id="clip0_30265_7237">
      <rect width="35" height="35" rx="4" fill="white"/>
    </clipPath>
  </defs>
</svg>
